M48
; DRILL file {KiCad 8.0.4} date 2026-07-01T21:01:33+0200
; FORMAT={-:-/ absolute / inch / decimal}
; #@! TF.CreationDate,2026-07-01T21:01:33+02:00
; #@! TF.GenerationSoftware,Kicad,Pcbnew,8.0.4
; #@! TF.FileFunction,Plated,1,2,PTH
FMAT,2
INCH
; #@! TA.AperFunction,Plated,PTH,ComponentDrill
T1C0.0394
%
G90
G05
T1
X2.7244Y-4.5591
X2.7244Y-4.6591
X2.7244Y-4.7591
X2.7244Y-4.8591
X2.7244Y-4.9591
X2.7244Y-5.0591
X2.7244Y-5.1591
X2.7244Y-5.2591
X2.7283Y-3.4606
X2.7283Y-3.5606
X2.7283Y-3.6606
X2.7283Y-3.7606
X2.7283Y-3.8606
X2.7283Y-3.9606
X2.7283Y-4.0606
X2.7283Y-4.1606
X2.8268Y-4.5591
X2.8268Y-4.6591
X2.8268Y-4.7591
X2.8268Y-4.8591
X2.8268Y-4.9591
X2.8268Y-5.0591
X2.8268Y-5.1591
X2.8268Y-5.2591
X2.8307Y-3.4606
X2.8307Y-3.5606
X2.8307Y-3.6606
X2.8307Y-3.7606
X2.8307Y-3.8606
X2.8307Y-3.9606
X2.8307Y-4.0606
X2.8307Y-4.1606
X3.3571Y-2.6585
X3.3571Y-2.7585
X3.3571Y-2.8585
X3.3571Y-2.9585
X3.3571Y-3.0585
X3.3571Y-3.1585
X3.3571Y-3.2585
X3.3571Y-3.3585
X3.3571Y-3.4585
X3.3571Y-3.5585
X3.3571Y-3.6585
X3.3571Y-3.7585
X3.3571Y-3.8585
X3.3571Y-3.9585
X3.3571Y-4.0585
X3.3571Y-4.1585
X3.5354Y-6.6693
X3.5354Y-7.1693
X3.5394Y-5.6575
X3.5394Y-6.1614
X3.5394Y-7.685
X3.5394Y-8.189
X3.5433Y-4.6378
X3.5433Y-5.1299
X3.6354Y-6.6693
X3.6354Y-7.1693
X3.6394Y-5.6575
X3.6394Y-6.1614
X3.6394Y-7.685
X3.6394Y-8.189
X3.6433Y-4.6378
X3.6433Y-5.1299
X3.7354Y-6.6693
X3.7354Y-7.1693
X3.7394Y-5.6575
X3.7394Y-6.1614
X3.7394Y-7.685
X3.7394Y-8.189
X3.7433Y-4.6378
X3.7433Y-5.1299
X3.8354Y-6.6693
X3.8354Y-7.1693
X3.8394Y-5.6575
X3.8394Y-6.1614
X3.8394Y-7.685
X3.8394Y-8.189
X3.8433Y-4.6378
X3.8433Y-5.1299
X3.9354Y-6.6693
X3.9354Y-7.1693
X3.9394Y-5.6575
X3.9394Y-6.1614
X3.9394Y-7.685
X3.9394Y-8.189
X3.9433Y-4.6378
X3.9433Y-5.1299
X3.9571Y-3.0585
X3.9571Y-3.1585
X3.9571Y-3.2585
X3.9571Y-3.3585
X3.9571Y-3.4585
X3.9571Y-3.5585
X3.9571Y-3.6585
X3.9571Y-3.7585
X4.1561Y-3.0575
X4.1561Y-3.1575
X4.1561Y-3.2575
X4.1561Y-3.3575
X4.1561Y-3.4575
X4.1561Y-3.5575
X4.1561Y-3.6575
X4.1561Y-3.7575
X4.2561Y-3.0575
X4.2561Y-3.1575
X4.2561Y-3.2575
X4.2561Y-3.3575
X4.2561Y-3.4575
X4.2561Y-3.5575
X4.2561Y-3.6575
X4.2561Y-3.7575
X4.4571Y-3.0585
X4.4571Y-3.1585
X4.4571Y-3.2585
X4.4571Y-3.3585
X4.4571Y-3.4585
X4.4571Y-3.5585
X4.4571Y-3.6585
X4.4571Y-3.7585
X4.4571Y-3.8585
X4.4571Y-3.9585
X4.4571Y-4.0585
X4.4571Y-4.1585
X4.4571Y-4.4535
X4.4571Y-4.5535
X4.4571Y-4.6535
X4.4571Y-4.7535
X4.4571Y-4.8535
X4.4581Y-4.9589
X4.4581Y-5.0589
X4.4581Y-5.1589
X4.4581Y-5.2589
X4.4581Y-5.3589
X4.4581Y-5.4639
X4.4581Y-5.5639
X4.4581Y-5.6639
X4.4581Y-5.7639
X4.4581Y-5.8639
X4.4581Y-5.9689
X4.4581Y-6.0689
X4.4581Y-6.1689
X4.4581Y-6.2689
X4.4581Y-6.3689
X4.4581Y-6.4739
X4.4581Y-6.5739
X4.4581Y-6.6739
X4.4581Y-6.7739
X4.4581Y-6.8739
X4.4581Y-6.9789
X4.4581Y-7.0789
X4.4581Y-7.1789
X4.4581Y-7.2789
X4.4581Y-7.3789
X4.4581Y-7.4839
X4.4581Y-7.5839
X4.4581Y-7.6839
X4.4581Y-7.7839
X4.4581Y-7.8839
X4.4581Y-7.9889
X4.4581Y-8.0889
X4.4581Y-8.1889
X4.4581Y-8.2889
X4.4581Y-8.3889
X4.6565Y-2.8335
X4.6575Y-2.5472
X4.7024Y-4.6535
X4.7063Y-5.1575
X4.7063Y-5.6614
X4.7063Y-7.685
X4.7063Y-8.189
X4.7102Y-6.1693
X4.7102Y-6.6772
X4.7102Y-7.1811
X4.7565Y-2.8335
X4.7575Y-2.5472
X4.8024Y-4.6535
X4.8063Y-5.1575
X4.8063Y-5.6614
X4.8063Y-7.685
X4.8063Y-8.189
X4.8102Y-6.1693
X4.8102Y-6.6772
X4.8102Y-7.1811
X4.8565Y-2.8335
X4.8575Y-2.5472
X4.9024Y-4.6535
X4.9063Y-5.1575
X4.9063Y-5.6614
X4.9063Y-7.685
X4.9063Y-8.189
X4.9102Y-6.1693
X4.9102Y-6.6772
X4.9102Y-7.1811
X5.0024Y-4.6535
X5.0063Y-5.1575
X5.0063Y-5.6614
X5.0063Y-7.685
X5.0063Y-8.189
X5.0102Y-6.1693
X5.0102Y-6.6772
X5.0102Y-7.1811
X5.0571Y-3.0585
X5.0571Y-3.1585
X5.0571Y-3.2585
X5.0571Y-3.3585
X5.0571Y-3.4585
X5.0571Y-3.5585
X5.0571Y-3.6585
X5.0571Y-3.7585
X5.0571Y-3.8585
X5.0571Y-3.9585
X5.0571Y-4.0585
X5.0571Y-4.1585
X5.1024Y-4.6535
X5.1063Y-5.1575
X5.1063Y-5.6614
X5.1063Y-7.685
X5.1063Y-8.189
X5.1102Y-6.1693
X5.1102Y-6.6772
X5.1102Y-7.1811
X5.1717Y-3.0587
X5.1717Y-3.1587
X5.1717Y-3.2587
X5.1717Y-3.3587
X5.1717Y-3.4587
X5.1717Y-3.5587
X5.1717Y-3.6587
X5.1717Y-3.7587
X5.1717Y-3.8587
X5.1717Y-3.9587
X5.1717Y-4.0587
X5.1717Y-4.1587
X5.6921Y-3.4585
X5.6921Y-3.5585
X5.6921Y-3.6585
X5.6921Y-3.7585
X5.6921Y-3.8585
X5.6921Y-3.9585
X5.6921Y-4.0585
X5.6921Y-4.1585
X5.6921Y-4.5685
X5.6921Y-4.6685
X5.6921Y-4.7685
X5.6921Y-4.8685
X5.6921Y-4.9685
X5.6921Y-5.0685
X5.6921Y-5.1685
X5.6921Y-5.2685
X5.7921Y-3.4585
X5.7921Y-3.5585
X5.7921Y-3.6585
X5.7921Y-3.7585
X5.7921Y-3.8585
X5.7921Y-3.9585
X5.7921Y-4.0585
X5.7921Y-4.1585
X5.7921Y-4.5685
X5.7921Y-4.6685
X5.7921Y-4.7685
X5.7921Y-4.8685
X5.7921Y-4.9685
X5.7921Y-5.0685
X5.7921Y-5.1685
X5.7921Y-5.2685
M30
