M48
; DRILL file {KiCad 8.0.4} date 2026-09-04T14:14:59+0200
; FORMAT={-:-/ absolute / inch / decimal}
; #@! TF.CreationDate,2026-09-04T14:14:59+02:00
; #@! TF.GenerationSoftware,Kicad,Pcbnew,8.0.4
; #@! TF.FileFunction,Plated,1,2,PTH
FMAT,2
INCH
; #@! TA.AperFunction,Plated,PTH,ComponentDrill
T1C0.0394
%
G90
G05
T1
X2.6962Y-4.5581
X2.6962Y-4.6581
X2.6962Y-4.7581
X2.6962Y-4.8581
X2.6962Y-4.9581
X2.6962Y-5.0581
X2.6962Y-5.1581
X2.6962Y-5.2581
X2.7001Y-3.4597
X2.7001Y-3.5597
X2.7001Y-3.6597
X2.7001Y-3.7597
X2.7001Y-3.8597
X2.7001Y-3.9597
X2.7001Y-4.0597
X2.7001Y-4.1597
X2.7986Y-4.5581
X2.7986Y-4.6581
X2.7986Y-4.7581
X2.7986Y-4.8581
X2.7986Y-4.9581
X2.7986Y-5.0581
X2.7986Y-5.1581
X2.7986Y-5.2581
X2.8025Y-3.4597
X2.8025Y-3.5597
X2.8025Y-3.6597
X2.8025Y-3.7597
X2.8025Y-3.8597
X2.8025Y-3.9597
X2.8025Y-4.0597
X2.8025Y-4.1597
X3.1142Y-2.563
X3.1142Y-2.6693
X3.2205Y-2.563
X3.2205Y-2.6693
X3.437Y-2.663
X3.437Y-2.763
X3.437Y-2.863
X3.437Y-2.963
X3.437Y-3.063
X3.437Y-3.163
X3.437Y-3.263
X3.437Y-3.363
X3.437Y-3.463
X3.437Y-3.563
X3.437Y-3.663
X3.437Y-3.763
X3.437Y-3.863
X3.437Y-3.963
X3.437Y-4.063
X3.437Y-4.163
X3.5307Y-6.7717
X3.5331Y-7.7795
X3.5346Y-6.2677
X3.5346Y-7.2874
X3.5425Y-5.7677
X3.5449Y-4.752
X3.5465Y-5.2638
X3.5465Y-8.2913
X3.6307Y-6.7717
X3.6331Y-7.7795
X3.6346Y-6.2677
X3.6346Y-7.2874
X3.6425Y-5.7677
X3.6449Y-4.752
X3.6465Y-5.2638
X3.6465Y-8.2913
X3.7307Y-6.7717
X3.7331Y-7.7795
X3.7346Y-6.2677
X3.7346Y-7.2874
X3.7425Y-5.7677
X3.7449Y-4.752
X3.7465Y-5.2638
X3.7465Y-8.2913
X3.8307Y-6.7717
X3.8331Y-7.7795
X3.8346Y-6.2677
X3.8346Y-7.2874
X3.8425Y-5.7677
X3.8449Y-4.752
X3.8465Y-5.2638
X3.8465Y-8.2913
X3.9307Y-6.7717
X3.9331Y-7.7795
X3.9346Y-6.2677
X3.9346Y-7.2874
X3.9425Y-5.7677
X3.9449Y-4.752
X3.9465Y-5.2638
X3.9465Y-8.2913
X4.0315Y-3.0638
X4.0315Y-3.1638
X4.0315Y-3.2638
X4.0315Y-3.3638
X4.0315Y-3.4638
X4.0315Y-3.5638
X4.0315Y-3.6638
X4.0315Y-3.7638
X4.1929Y-3.063
X4.1929Y-3.163
X4.1929Y-3.263
X4.1929Y-3.363
X4.1929Y-3.463
X4.1929Y-3.563
X4.1929Y-3.663
X4.1929Y-3.763
X4.2756Y-8.5512
X4.2952Y-3.0629
X4.2952Y-3.1629
X4.2952Y-3.2629
X4.2952Y-3.3629
X4.2952Y-3.4629
X4.2952Y-3.5629
X4.2952Y-3.6629
X4.2952Y-3.7629
X4.3661Y-8.5512
X4.4571Y-3.0585
X4.4571Y-3.1585
X4.4571Y-3.2585
X4.4571Y-3.3585
X4.4571Y-3.4585
X4.4571Y-3.5585
X4.4571Y-3.6585
X4.4571Y-3.7585
X4.4571Y-3.8585
X4.4571Y-3.9585
X4.4571Y-4.0585
X4.4571Y-4.1585
X4.4571Y-4.4535
X4.4571Y-4.5535
X4.4571Y-4.6535
X4.4571Y-4.7535
X4.4571Y-4.8535
X4.4581Y-4.9589
X4.4581Y-5.0589
X4.4581Y-5.1589
X4.4581Y-5.2589
X4.4581Y-5.3589
X4.4581Y-5.4639
X4.4581Y-5.5639
X4.4581Y-5.6639
X4.4581Y-5.7639
X4.4581Y-5.8639
X4.4581Y-5.9689
X4.4581Y-6.0689
X4.4581Y-6.1689
X4.4581Y-6.2689
X4.4581Y-6.3689
X4.4581Y-6.4739
X4.4581Y-6.5739
X4.4581Y-6.6739
X4.4581Y-6.7739
X4.4581Y-6.8739
X4.4581Y-6.9789
X4.4581Y-7.0789
X4.4581Y-7.1789
X4.4581Y-7.2789
X4.4581Y-7.3789
X4.4581Y-7.4839
X4.4581Y-7.5839
X4.4581Y-7.6839
X4.4581Y-7.7839
X4.4581Y-7.8839
X4.4581Y-7.9889
X4.4581Y-8.0889
X4.4581Y-8.1889
X4.4581Y-8.2889
X4.4581Y-8.3889
X4.4606Y-8.5512
X4.466Y-2.8189
X4.4693Y-2.5327
X4.5551Y-8.5512
X4.566Y-2.8189
X4.5693Y-2.5327
X4.6496Y-8.5512
X4.666Y-2.8189
X4.6693Y-2.5327
X4.7756Y-5.7638
X4.7795Y-4.752
X4.7795Y-5.2638
X4.7835Y-6.2717
X4.7835Y-6.7717
X4.7874Y-7.2835
X4.7874Y-7.7795
X4.7874Y-8.2874
X4.8756Y-5.7638
X4.8795Y-4.752
X4.8795Y-5.2638
X4.8835Y-6.2717
X4.8835Y-6.7717
X4.8874Y-7.2835
X4.8874Y-7.7795
X4.8874Y-8.2874
X4.9756Y-5.7638
X4.9795Y-4.752
X4.9795Y-5.2638
X4.9835Y-6.2717
X4.9835Y-6.7717
X4.9874Y-7.2835
X4.9874Y-7.7795
X4.9874Y-8.2874
X5.0571Y-3.0585
X5.0571Y-3.1585
X5.0571Y-3.2585
X5.0571Y-3.3585
X5.0571Y-3.4585
X5.0571Y-3.5585
X5.0571Y-3.6585
X5.0571Y-3.7585
X5.0571Y-3.8585
X5.0571Y-3.9585
X5.0571Y-4.0585
X5.0571Y-4.1585
X5.0756Y-5.7638
X5.0795Y-4.752
X5.0795Y-5.2638
X5.0835Y-6.2717
X5.0835Y-6.7717
X5.0874Y-7.2835
X5.0874Y-7.7795
X5.0874Y-8.2874
X5.1717Y-3.0587
X5.1717Y-3.1587
X5.1717Y-3.2587
X5.1717Y-3.3587
X5.1717Y-3.4587
X5.1717Y-3.5587
X5.1717Y-3.6587
X5.1717Y-3.7587
X5.1717Y-3.8587
X5.1717Y-3.9587
X5.1717Y-4.0587
X5.1717Y-4.1587
X5.1756Y-5.7638
X5.1795Y-4.752
X5.1795Y-5.2638
X5.1835Y-6.2717
X5.1835Y-6.7717
X5.1874Y-7.2835
X5.1874Y-7.7795
X5.1874Y-8.2874
X5.6921Y-3.4585
X5.6921Y-3.5585
X5.6921Y-3.6585
X5.6921Y-3.7585
X5.6921Y-3.8585
X5.6921Y-3.9585
X5.6921Y-4.0585
X5.6921Y-4.1585
X5.6921Y-4.5685
X5.6921Y-4.6685
X5.6921Y-4.7685
X5.6921Y-4.8685
X5.6921Y-4.9685
X5.6921Y-5.0685
X5.6921Y-5.1685
X5.6921Y-5.2685
X5.7921Y-3.4585
X5.7921Y-3.5585
X5.7921Y-3.6585
X5.7921Y-3.7585
X5.7921Y-3.8585
X5.7921Y-3.9585
X5.7921Y-4.0585
X5.7921Y-4.1585
X5.7921Y-4.5685
X5.7921Y-4.6685
X5.7921Y-4.7685
X5.7921Y-4.8685
X5.7921Y-4.9685
X5.7921Y-5.0685
X5.7921Y-5.1685
X5.7921Y-5.2685
M30
