%TF.GenerationSoftware,KiCad,Pcbnew,8.0.2*%
%TF.CreationDate,2024-06-16T18:34:37+02:00*%
%TF.ProjectId,p1,70312e6b-6963-4616-945f-706362585858,rev?*%
%TF.SameCoordinates,Original*%
%TF.FileFunction,Legend,Bot*%
%TF.FilePolarity,Positive*%
%FSLAX46Y46*%
G04 Gerber Fmt 4.6, Leading zero omitted, Abs format (unit mm)*
G04 Created by KiCad (PCBNEW 8.0.2) date 2024-06-16 18:34:37*
%MOMM*%
%LPD*%
G01*
G04 APERTURE LIST*
%ADD10C,0.100000*%
%ADD11C,0.150000*%
%ADD12C,0.300000*%
%ADD13C,0.400000*%
%ADD14C,0.120000*%
G04 APERTURE END LIST*
D10*
D11*
X90007200Y-253002200D02*
X198007200Y-253002200D01*
X198007200Y-285002200D01*
X90007200Y-285002200D01*
X90007200Y-253002200D01*
D10*
D11*
X10000000Y-10000000D02*
X200007200Y-10000000D01*
X200007200Y-287002200D01*
X10000000Y-287002200D01*
X10000000Y-10000000D01*
D10*
D11*
X12000000Y-12000000D02*
X198007200Y-12000000D01*
X198007200Y-285002200D01*
X12000000Y-285002200D01*
X12000000Y-12000000D01*
D10*
D11*
X60000000Y-12000000D02*
X60000000Y-10000000D01*
D10*
D11*
X110000000Y-12000000D02*
X110000000Y-10000000D01*
D10*
D11*
X160000000Y-12000000D02*
X160000000Y-10000000D01*
D10*
D11*
X36089160Y-11593604D02*
X35346303Y-11593604D01*
X35717731Y-11593604D02*
X35717731Y-10293604D01*
X35717731Y-10293604D02*
X35593922Y-10479319D01*
X35593922Y-10479319D02*
X35470112Y-10603128D01*
X35470112Y-10603128D02*
X35346303Y-10665033D01*
D10*
D11*
X85346303Y-10417414D02*
X85408207Y-10355509D01*
X85408207Y-10355509D02*
X85532017Y-10293604D01*
X85532017Y-10293604D02*
X85841541Y-10293604D01*
X85841541Y-10293604D02*
X85965350Y-10355509D01*
X85965350Y-10355509D02*
X86027255Y-10417414D01*
X86027255Y-10417414D02*
X86089160Y-10541223D01*
X86089160Y-10541223D02*
X86089160Y-10665033D01*
X86089160Y-10665033D02*
X86027255Y-10850747D01*
X86027255Y-10850747D02*
X85284398Y-11593604D01*
X85284398Y-11593604D02*
X86089160Y-11593604D01*
D10*
D11*
X135284398Y-10293604D02*
X136089160Y-10293604D01*
X136089160Y-10293604D02*
X135655826Y-10788842D01*
X135655826Y-10788842D02*
X135841541Y-10788842D01*
X135841541Y-10788842D02*
X135965350Y-10850747D01*
X135965350Y-10850747D02*
X136027255Y-10912652D01*
X136027255Y-10912652D02*
X136089160Y-11036461D01*
X136089160Y-11036461D02*
X136089160Y-11345985D01*
X136089160Y-11345985D02*
X136027255Y-11469795D01*
X136027255Y-11469795D02*
X135965350Y-11531700D01*
X135965350Y-11531700D02*
X135841541Y-11593604D01*
X135841541Y-11593604D02*
X135470112Y-11593604D01*
X135470112Y-11593604D02*
X135346303Y-11531700D01*
X135346303Y-11531700D02*
X135284398Y-11469795D01*
D10*
D11*
X185965350Y-10726938D02*
X185965350Y-11593604D01*
X185655826Y-10231700D02*
X185346303Y-11160271D01*
X185346303Y-11160271D02*
X186151064Y-11160271D01*
D10*
D11*
X60000000Y-285002200D02*
X60000000Y-287002200D01*
D10*
D11*
X110000000Y-285002200D02*
X110000000Y-287002200D01*
D10*
D11*
X160000000Y-285002200D02*
X160000000Y-287002200D01*
D10*
D11*
X36089160Y-286595804D02*
X35346303Y-286595804D01*
X35717731Y-286595804D02*
X35717731Y-285295804D01*
X35717731Y-285295804D02*
X35593922Y-285481519D01*
X35593922Y-285481519D02*
X35470112Y-285605328D01*
X35470112Y-285605328D02*
X35346303Y-285667233D01*
D10*
D11*
X85346303Y-285419614D02*
X85408207Y-285357709D01*
X85408207Y-285357709D02*
X85532017Y-285295804D01*
X85532017Y-285295804D02*
X85841541Y-285295804D01*
X85841541Y-285295804D02*
X85965350Y-285357709D01*
X85965350Y-285357709D02*
X86027255Y-285419614D01*
X86027255Y-285419614D02*
X86089160Y-285543423D01*
X86089160Y-285543423D02*
X86089160Y-285667233D01*
X86089160Y-285667233D02*
X86027255Y-285852947D01*
X86027255Y-285852947D02*
X85284398Y-286595804D01*
X85284398Y-286595804D02*
X86089160Y-286595804D01*
D10*
D11*
X135284398Y-285295804D02*
X136089160Y-285295804D01*
X136089160Y-285295804D02*
X135655826Y-285791042D01*
X135655826Y-285791042D02*
X135841541Y-285791042D01*
X135841541Y-285791042D02*
X135965350Y-285852947D01*
X135965350Y-285852947D02*
X136027255Y-285914852D01*
X136027255Y-285914852D02*
X136089160Y-286038661D01*
X136089160Y-286038661D02*
X136089160Y-286348185D01*
X136089160Y-286348185D02*
X136027255Y-286471995D01*
X136027255Y-286471995D02*
X135965350Y-286533900D01*
X135965350Y-286533900D02*
X135841541Y-286595804D01*
X135841541Y-286595804D02*
X135470112Y-286595804D01*
X135470112Y-286595804D02*
X135346303Y-286533900D01*
X135346303Y-286533900D02*
X135284398Y-286471995D01*
D10*
D11*
X185965350Y-285729138D02*
X185965350Y-286595804D01*
X185655826Y-285233900D02*
X185346303Y-286162471D01*
X185346303Y-286162471D02*
X186151064Y-286162471D01*
D10*
D11*
X10000000Y-60000000D02*
X12000000Y-60000000D01*
D10*
D11*
X10000000Y-110000000D02*
X12000000Y-110000000D01*
D10*
D11*
X10000000Y-160000000D02*
X12000000Y-160000000D01*
D10*
D11*
X10000000Y-210000000D02*
X12000000Y-210000000D01*
D10*
D11*
X10000000Y-260000000D02*
X12000000Y-260000000D01*
D10*
D11*
X10690476Y-35222176D02*
X11309523Y-35222176D01*
X10566666Y-35593604D02*
X10999999Y-34293604D01*
X10999999Y-34293604D02*
X11433333Y-35593604D01*
D10*
D11*
X11092857Y-84912652D02*
X11278571Y-84974557D01*
X11278571Y-84974557D02*
X11340476Y-85036461D01*
X11340476Y-85036461D02*
X11402380Y-85160271D01*
X11402380Y-85160271D02*
X11402380Y-85345985D01*
X11402380Y-85345985D02*
X11340476Y-85469795D01*
X11340476Y-85469795D02*
X11278571Y-85531700D01*
X11278571Y-85531700D02*
X11154761Y-85593604D01*
X11154761Y-85593604D02*
X10659523Y-85593604D01*
X10659523Y-85593604D02*
X10659523Y-84293604D01*
X10659523Y-84293604D02*
X11092857Y-84293604D01*
X11092857Y-84293604D02*
X11216666Y-84355509D01*
X11216666Y-84355509D02*
X11278571Y-84417414D01*
X11278571Y-84417414D02*
X11340476Y-84541223D01*
X11340476Y-84541223D02*
X11340476Y-84665033D01*
X11340476Y-84665033D02*
X11278571Y-84788842D01*
X11278571Y-84788842D02*
X11216666Y-84850747D01*
X11216666Y-84850747D02*
X11092857Y-84912652D01*
X11092857Y-84912652D02*
X10659523Y-84912652D01*
D10*
D11*
X11402380Y-135469795D02*
X11340476Y-135531700D01*
X11340476Y-135531700D02*
X11154761Y-135593604D01*
X11154761Y-135593604D02*
X11030952Y-135593604D01*
X11030952Y-135593604D02*
X10845238Y-135531700D01*
X10845238Y-135531700D02*
X10721428Y-135407890D01*
X10721428Y-135407890D02*
X10659523Y-135284080D01*
X10659523Y-135284080D02*
X10597619Y-135036461D01*
X10597619Y-135036461D02*
X10597619Y-134850747D01*
X10597619Y-134850747D02*
X10659523Y-134603128D01*
X10659523Y-134603128D02*
X10721428Y-134479319D01*
X10721428Y-134479319D02*
X10845238Y-134355509D01*
X10845238Y-134355509D02*
X11030952Y-134293604D01*
X11030952Y-134293604D02*
X11154761Y-134293604D01*
X11154761Y-134293604D02*
X11340476Y-134355509D01*
X11340476Y-134355509D02*
X11402380Y-134417414D01*
D10*
D11*
X10659523Y-185593604D02*
X10659523Y-184293604D01*
X10659523Y-184293604D02*
X10969047Y-184293604D01*
X10969047Y-184293604D02*
X11154761Y-184355509D01*
X11154761Y-184355509D02*
X11278571Y-184479319D01*
X11278571Y-184479319D02*
X11340476Y-184603128D01*
X11340476Y-184603128D02*
X11402380Y-184850747D01*
X11402380Y-184850747D02*
X11402380Y-185036461D01*
X11402380Y-185036461D02*
X11340476Y-185284080D01*
X11340476Y-185284080D02*
X11278571Y-185407890D01*
X11278571Y-185407890D02*
X11154761Y-185531700D01*
X11154761Y-185531700D02*
X10969047Y-185593604D01*
X10969047Y-185593604D02*
X10659523Y-185593604D01*
D10*
D11*
X10721428Y-234912652D02*
X11154762Y-234912652D01*
X11340476Y-235593604D02*
X10721428Y-235593604D01*
X10721428Y-235593604D02*
X10721428Y-234293604D01*
X10721428Y-234293604D02*
X11340476Y-234293604D01*
D10*
D11*
X11185714Y-284912652D02*
X10752380Y-284912652D01*
X10752380Y-285593604D02*
X10752380Y-284293604D01*
X10752380Y-284293604D02*
X11371428Y-284293604D01*
D10*
D11*
X200007200Y-60000000D02*
X198007200Y-60000000D01*
D10*
D11*
X200007200Y-110000000D02*
X198007200Y-110000000D01*
D10*
D11*
X200007200Y-160000000D02*
X198007200Y-160000000D01*
D10*
D11*
X200007200Y-210000000D02*
X198007200Y-210000000D01*
D10*
D11*
X200007200Y-260000000D02*
X198007200Y-260000000D01*
D10*
D11*
X198697676Y-35222176D02*
X199316723Y-35222176D01*
X198573866Y-35593604D02*
X199007199Y-34293604D01*
X199007199Y-34293604D02*
X199440533Y-35593604D01*
D10*
D11*
X199100057Y-84912652D02*
X199285771Y-84974557D01*
X199285771Y-84974557D02*
X199347676Y-85036461D01*
X199347676Y-85036461D02*
X199409580Y-85160271D01*
X199409580Y-85160271D02*
X199409580Y-85345985D01*
X199409580Y-85345985D02*
X199347676Y-85469795D01*
X199347676Y-85469795D02*
X199285771Y-85531700D01*
X199285771Y-85531700D02*
X199161961Y-85593604D01*
X199161961Y-85593604D02*
X198666723Y-85593604D01*
X198666723Y-85593604D02*
X198666723Y-84293604D01*
X198666723Y-84293604D02*
X199100057Y-84293604D01*
X199100057Y-84293604D02*
X199223866Y-84355509D01*
X199223866Y-84355509D02*
X199285771Y-84417414D01*
X199285771Y-84417414D02*
X199347676Y-84541223D01*
X199347676Y-84541223D02*
X199347676Y-84665033D01*
X199347676Y-84665033D02*
X199285771Y-84788842D01*
X199285771Y-84788842D02*
X199223866Y-84850747D01*
X199223866Y-84850747D02*
X199100057Y-84912652D01*
X199100057Y-84912652D02*
X198666723Y-84912652D01*
D10*
D11*
X199409580Y-135469795D02*
X199347676Y-135531700D01*
X199347676Y-135531700D02*
X199161961Y-135593604D01*
X199161961Y-135593604D02*
X199038152Y-135593604D01*
X199038152Y-135593604D02*
X198852438Y-135531700D01*
X198852438Y-135531700D02*
X198728628Y-135407890D01*
X198728628Y-135407890D02*
X198666723Y-135284080D01*
X198666723Y-135284080D02*
X198604819Y-135036461D01*
X198604819Y-135036461D02*
X198604819Y-134850747D01*
X198604819Y-134850747D02*
X198666723Y-134603128D01*
X198666723Y-134603128D02*
X198728628Y-134479319D01*
X198728628Y-134479319D02*
X198852438Y-134355509D01*
X198852438Y-134355509D02*
X199038152Y-134293604D01*
X199038152Y-134293604D02*
X199161961Y-134293604D01*
X199161961Y-134293604D02*
X199347676Y-134355509D01*
X199347676Y-134355509D02*
X199409580Y-134417414D01*
D10*
D11*
X198666723Y-185593604D02*
X198666723Y-184293604D01*
X198666723Y-184293604D02*
X198976247Y-184293604D01*
X198976247Y-184293604D02*
X199161961Y-184355509D01*
X199161961Y-184355509D02*
X199285771Y-184479319D01*
X199285771Y-184479319D02*
X199347676Y-184603128D01*
X199347676Y-184603128D02*
X199409580Y-184850747D01*
X199409580Y-184850747D02*
X199409580Y-185036461D01*
X199409580Y-185036461D02*
X199347676Y-185284080D01*
X199347676Y-185284080D02*
X199285771Y-185407890D01*
X199285771Y-185407890D02*
X199161961Y-185531700D01*
X199161961Y-185531700D02*
X198976247Y-185593604D01*
X198976247Y-185593604D02*
X198666723Y-185593604D01*
D10*
D11*
X198728628Y-234912652D02*
X199161962Y-234912652D01*
X199347676Y-235593604D02*
X198728628Y-235593604D01*
X198728628Y-235593604D02*
X198728628Y-234293604D01*
X198728628Y-234293604D02*
X199347676Y-234293604D01*
D10*
D11*
X199192914Y-284912652D02*
X198759580Y-284912652D01*
X198759580Y-285593604D02*
X198759580Y-284293604D01*
X198759580Y-284293604D02*
X199378628Y-284293604D01*
D10*
D11*
X113463026Y-280788328D02*
X113463026Y-279288328D01*
X113463026Y-279288328D02*
X113820169Y-279288328D01*
X113820169Y-279288328D02*
X114034455Y-279359757D01*
X114034455Y-279359757D02*
X114177312Y-279502614D01*
X114177312Y-279502614D02*
X114248741Y-279645471D01*
X114248741Y-279645471D02*
X114320169Y-279931185D01*
X114320169Y-279931185D02*
X114320169Y-280145471D01*
X114320169Y-280145471D02*
X114248741Y-280431185D01*
X114248741Y-280431185D02*
X114177312Y-280574042D01*
X114177312Y-280574042D02*
X114034455Y-280716900D01*
X114034455Y-280716900D02*
X113820169Y-280788328D01*
X113820169Y-280788328D02*
X113463026Y-280788328D01*
X115605884Y-280788328D02*
X115605884Y-280002614D01*
X115605884Y-280002614D02*
X115534455Y-279859757D01*
X115534455Y-279859757D02*
X115391598Y-279788328D01*
X115391598Y-279788328D02*
X115105884Y-279788328D01*
X115105884Y-279788328D02*
X114963026Y-279859757D01*
X115605884Y-280716900D02*
X115463026Y-280788328D01*
X115463026Y-280788328D02*
X115105884Y-280788328D01*
X115105884Y-280788328D02*
X114963026Y-280716900D01*
X114963026Y-280716900D02*
X114891598Y-280574042D01*
X114891598Y-280574042D02*
X114891598Y-280431185D01*
X114891598Y-280431185D02*
X114963026Y-280288328D01*
X114963026Y-280288328D02*
X115105884Y-280216900D01*
X115105884Y-280216900D02*
X115463026Y-280216900D01*
X115463026Y-280216900D02*
X115605884Y-280145471D01*
X116105884Y-279788328D02*
X116677312Y-279788328D01*
X116320169Y-279288328D02*
X116320169Y-280574042D01*
X116320169Y-280574042D02*
X116391598Y-280716900D01*
X116391598Y-280716900D02*
X116534455Y-280788328D01*
X116534455Y-280788328D02*
X116677312Y-280788328D01*
X117748741Y-280716900D02*
X117605884Y-280788328D01*
X117605884Y-280788328D02*
X117320170Y-280788328D01*
X117320170Y-280788328D02*
X117177312Y-280716900D01*
X117177312Y-280716900D02*
X117105884Y-280574042D01*
X117105884Y-280574042D02*
X117105884Y-280002614D01*
X117105884Y-280002614D02*
X117177312Y-279859757D01*
X117177312Y-279859757D02*
X117320170Y-279788328D01*
X117320170Y-279788328D02*
X117605884Y-279788328D01*
X117605884Y-279788328D02*
X117748741Y-279859757D01*
X117748741Y-279859757D02*
X117820170Y-280002614D01*
X117820170Y-280002614D02*
X117820170Y-280145471D01*
X117820170Y-280145471D02*
X117105884Y-280288328D01*
X118463026Y-280645471D02*
X118534455Y-280716900D01*
X118534455Y-280716900D02*
X118463026Y-280788328D01*
X118463026Y-280788328D02*
X118391598Y-280716900D01*
X118391598Y-280716900D02*
X118463026Y-280645471D01*
X118463026Y-280645471D02*
X118463026Y-280788328D01*
X118463026Y-279859757D02*
X118534455Y-279931185D01*
X118534455Y-279931185D02*
X118463026Y-280002614D01*
X118463026Y-280002614D02*
X118391598Y-279931185D01*
X118391598Y-279931185D02*
X118463026Y-279859757D01*
X118463026Y-279859757D02*
X118463026Y-280002614D01*
D10*
D11*
X90007200Y-281502200D02*
X198007200Y-281502200D01*
D10*
D11*
X91463026Y-283588328D02*
X91463026Y-282088328D01*
X92320169Y-283588328D02*
X91677312Y-282731185D01*
X92320169Y-282088328D02*
X91463026Y-282945471D01*
X92963026Y-283588328D02*
X92963026Y-282588328D01*
X92963026Y-282088328D02*
X92891598Y-282159757D01*
X92891598Y-282159757D02*
X92963026Y-282231185D01*
X92963026Y-282231185D02*
X93034455Y-282159757D01*
X93034455Y-282159757D02*
X92963026Y-282088328D01*
X92963026Y-282088328D02*
X92963026Y-282231185D01*
X94534455Y-283445471D02*
X94463027Y-283516900D01*
X94463027Y-283516900D02*
X94248741Y-283588328D01*
X94248741Y-283588328D02*
X94105884Y-283588328D01*
X94105884Y-283588328D02*
X93891598Y-283516900D01*
X93891598Y-283516900D02*
X93748741Y-283374042D01*
X93748741Y-283374042D02*
X93677312Y-283231185D01*
X93677312Y-283231185D02*
X93605884Y-282945471D01*
X93605884Y-282945471D02*
X93605884Y-282731185D01*
X93605884Y-282731185D02*
X93677312Y-282445471D01*
X93677312Y-282445471D02*
X93748741Y-282302614D01*
X93748741Y-282302614D02*
X93891598Y-282159757D01*
X93891598Y-282159757D02*
X94105884Y-282088328D01*
X94105884Y-282088328D02*
X94248741Y-282088328D01*
X94248741Y-282088328D02*
X94463027Y-282159757D01*
X94463027Y-282159757D02*
X94534455Y-282231185D01*
X95820170Y-283588328D02*
X95820170Y-282802614D01*
X95820170Y-282802614D02*
X95748741Y-282659757D01*
X95748741Y-282659757D02*
X95605884Y-282588328D01*
X95605884Y-282588328D02*
X95320170Y-282588328D01*
X95320170Y-282588328D02*
X95177312Y-282659757D01*
X95820170Y-283516900D02*
X95677312Y-283588328D01*
X95677312Y-283588328D02*
X95320170Y-283588328D01*
X95320170Y-283588328D02*
X95177312Y-283516900D01*
X95177312Y-283516900D02*
X95105884Y-283374042D01*
X95105884Y-283374042D02*
X95105884Y-283231185D01*
X95105884Y-283231185D02*
X95177312Y-283088328D01*
X95177312Y-283088328D02*
X95320170Y-283016900D01*
X95320170Y-283016900D02*
X95677312Y-283016900D01*
X95677312Y-283016900D02*
X95820170Y-282945471D01*
X97177313Y-283588328D02*
X97177313Y-282088328D01*
X97177313Y-283516900D02*
X97034455Y-283588328D01*
X97034455Y-283588328D02*
X96748741Y-283588328D01*
X96748741Y-283588328D02*
X96605884Y-283516900D01*
X96605884Y-283516900D02*
X96534455Y-283445471D01*
X96534455Y-283445471D02*
X96463027Y-283302614D01*
X96463027Y-283302614D02*
X96463027Y-282874042D01*
X96463027Y-282874042D02*
X96534455Y-282731185D01*
X96534455Y-282731185D02*
X96605884Y-282659757D01*
X96605884Y-282659757D02*
X96748741Y-282588328D01*
X96748741Y-282588328D02*
X97034455Y-282588328D01*
X97034455Y-282588328D02*
X97177313Y-282659757D01*
X99034455Y-282802614D02*
X99534455Y-282802614D01*
X99748741Y-283588328D02*
X99034455Y-283588328D01*
X99034455Y-283588328D02*
X99034455Y-282088328D01*
X99034455Y-282088328D02*
X99748741Y-282088328D01*
X100391598Y-283445471D02*
X100463027Y-283516900D01*
X100463027Y-283516900D02*
X100391598Y-283588328D01*
X100391598Y-283588328D02*
X100320170Y-283516900D01*
X100320170Y-283516900D02*
X100391598Y-283445471D01*
X100391598Y-283445471D02*
X100391598Y-283588328D01*
X101105884Y-283588328D02*
X101105884Y-282088328D01*
X101105884Y-282088328D02*
X101463027Y-282088328D01*
X101463027Y-282088328D02*
X101677313Y-282159757D01*
X101677313Y-282159757D02*
X101820170Y-282302614D01*
X101820170Y-282302614D02*
X101891599Y-282445471D01*
X101891599Y-282445471D02*
X101963027Y-282731185D01*
X101963027Y-282731185D02*
X101963027Y-282945471D01*
X101963027Y-282945471D02*
X101891599Y-283231185D01*
X101891599Y-283231185D02*
X101820170Y-283374042D01*
X101820170Y-283374042D02*
X101677313Y-283516900D01*
X101677313Y-283516900D02*
X101463027Y-283588328D01*
X101463027Y-283588328D02*
X101105884Y-283588328D01*
X102605884Y-283445471D02*
X102677313Y-283516900D01*
X102677313Y-283516900D02*
X102605884Y-283588328D01*
X102605884Y-283588328D02*
X102534456Y-283516900D01*
X102534456Y-283516900D02*
X102605884Y-283445471D01*
X102605884Y-283445471D02*
X102605884Y-283588328D01*
X103248742Y-283159757D02*
X103963028Y-283159757D01*
X103105885Y-283588328D02*
X103605885Y-282088328D01*
X103605885Y-282088328D02*
X104105885Y-283588328D01*
X104605884Y-283445471D02*
X104677313Y-283516900D01*
X104677313Y-283516900D02*
X104605884Y-283588328D01*
X104605884Y-283588328D02*
X104534456Y-283516900D01*
X104534456Y-283516900D02*
X104605884Y-283445471D01*
X104605884Y-283445471D02*
X104605884Y-283588328D01*
X106677313Y-282731185D02*
X106534456Y-282659757D01*
X106534456Y-282659757D02*
X106463027Y-282588328D01*
X106463027Y-282588328D02*
X106391599Y-282445471D01*
X106391599Y-282445471D02*
X106391599Y-282374042D01*
X106391599Y-282374042D02*
X106463027Y-282231185D01*
X106463027Y-282231185D02*
X106534456Y-282159757D01*
X106534456Y-282159757D02*
X106677313Y-282088328D01*
X106677313Y-282088328D02*
X106963027Y-282088328D01*
X106963027Y-282088328D02*
X107105885Y-282159757D01*
X107105885Y-282159757D02*
X107177313Y-282231185D01*
X107177313Y-282231185D02*
X107248742Y-282374042D01*
X107248742Y-282374042D02*
X107248742Y-282445471D01*
X107248742Y-282445471D02*
X107177313Y-282588328D01*
X107177313Y-282588328D02*
X107105885Y-282659757D01*
X107105885Y-282659757D02*
X106963027Y-282731185D01*
X106963027Y-282731185D02*
X106677313Y-282731185D01*
X106677313Y-282731185D02*
X106534456Y-282802614D01*
X106534456Y-282802614D02*
X106463027Y-282874042D01*
X106463027Y-282874042D02*
X106391599Y-283016900D01*
X106391599Y-283016900D02*
X106391599Y-283302614D01*
X106391599Y-283302614D02*
X106463027Y-283445471D01*
X106463027Y-283445471D02*
X106534456Y-283516900D01*
X106534456Y-283516900D02*
X106677313Y-283588328D01*
X106677313Y-283588328D02*
X106963027Y-283588328D01*
X106963027Y-283588328D02*
X107105885Y-283516900D01*
X107105885Y-283516900D02*
X107177313Y-283445471D01*
X107177313Y-283445471D02*
X107248742Y-283302614D01*
X107248742Y-283302614D02*
X107248742Y-283016900D01*
X107248742Y-283016900D02*
X107177313Y-282874042D01*
X107177313Y-282874042D02*
X107105885Y-282802614D01*
X107105885Y-282802614D02*
X106963027Y-282731185D01*
X107891598Y-283445471D02*
X107963027Y-283516900D01*
X107963027Y-283516900D02*
X107891598Y-283588328D01*
X107891598Y-283588328D02*
X107820170Y-283516900D01*
X107820170Y-283516900D02*
X107891598Y-283445471D01*
X107891598Y-283445471D02*
X107891598Y-283588328D01*
X108891599Y-282088328D02*
X109034456Y-282088328D01*
X109034456Y-282088328D02*
X109177313Y-282159757D01*
X109177313Y-282159757D02*
X109248742Y-282231185D01*
X109248742Y-282231185D02*
X109320170Y-282374042D01*
X109320170Y-282374042D02*
X109391599Y-282659757D01*
X109391599Y-282659757D02*
X109391599Y-283016900D01*
X109391599Y-283016900D02*
X109320170Y-283302614D01*
X109320170Y-283302614D02*
X109248742Y-283445471D01*
X109248742Y-283445471D02*
X109177313Y-283516900D01*
X109177313Y-283516900D02*
X109034456Y-283588328D01*
X109034456Y-283588328D02*
X108891599Y-283588328D01*
X108891599Y-283588328D02*
X108748742Y-283516900D01*
X108748742Y-283516900D02*
X108677313Y-283445471D01*
X108677313Y-283445471D02*
X108605884Y-283302614D01*
X108605884Y-283302614D02*
X108534456Y-283016900D01*
X108534456Y-283016900D02*
X108534456Y-282659757D01*
X108534456Y-282659757D02*
X108605884Y-282374042D01*
X108605884Y-282374042D02*
X108677313Y-282231185D01*
X108677313Y-282231185D02*
X108748742Y-282159757D01*
X108748742Y-282159757D02*
X108891599Y-282088328D01*
X110034455Y-283445471D02*
X110105884Y-283516900D01*
X110105884Y-283516900D02*
X110034455Y-283588328D01*
X110034455Y-283588328D02*
X109963027Y-283516900D01*
X109963027Y-283516900D02*
X110034455Y-283445471D01*
X110034455Y-283445471D02*
X110034455Y-283588328D01*
X110677313Y-282231185D02*
X110748741Y-282159757D01*
X110748741Y-282159757D02*
X110891599Y-282088328D01*
X110891599Y-282088328D02*
X111248741Y-282088328D01*
X111248741Y-282088328D02*
X111391599Y-282159757D01*
X111391599Y-282159757D02*
X111463027Y-282231185D01*
X111463027Y-282231185D02*
X111534456Y-282374042D01*
X111534456Y-282374042D02*
X111534456Y-282516900D01*
X111534456Y-282516900D02*
X111463027Y-282731185D01*
X111463027Y-282731185D02*
X110605884Y-283588328D01*
X110605884Y-283588328D02*
X111534456Y-283588328D01*
D10*
D11*
X90007200Y-278502200D02*
X198007200Y-278502200D01*
D10*
D12*
X177418853Y-280780528D02*
X176918853Y-280066242D01*
X176561710Y-280780528D02*
X176561710Y-279280528D01*
X176561710Y-279280528D02*
X177133139Y-279280528D01*
X177133139Y-279280528D02*
X177275996Y-279351957D01*
X177275996Y-279351957D02*
X177347425Y-279423385D01*
X177347425Y-279423385D02*
X177418853Y-279566242D01*
X177418853Y-279566242D02*
X177418853Y-279780528D01*
X177418853Y-279780528D02*
X177347425Y-279923385D01*
X177347425Y-279923385D02*
X177275996Y-279994814D01*
X177275996Y-279994814D02*
X177133139Y-280066242D01*
X177133139Y-280066242D02*
X176561710Y-280066242D01*
X178633139Y-280709100D02*
X178490282Y-280780528D01*
X178490282Y-280780528D02*
X178204568Y-280780528D01*
X178204568Y-280780528D02*
X178061710Y-280709100D01*
X178061710Y-280709100D02*
X177990282Y-280566242D01*
X177990282Y-280566242D02*
X177990282Y-279994814D01*
X177990282Y-279994814D02*
X178061710Y-279851957D01*
X178061710Y-279851957D02*
X178204568Y-279780528D01*
X178204568Y-279780528D02*
X178490282Y-279780528D01*
X178490282Y-279780528D02*
X178633139Y-279851957D01*
X178633139Y-279851957D02*
X178704568Y-279994814D01*
X178704568Y-279994814D02*
X178704568Y-280137671D01*
X178704568Y-280137671D02*
X177990282Y-280280528D01*
X179204567Y-279780528D02*
X179561710Y-280780528D01*
X179561710Y-280780528D02*
X179918853Y-279780528D01*
X180490281Y-280637671D02*
X180561710Y-280709100D01*
X180561710Y-280709100D02*
X180490281Y-280780528D01*
X180490281Y-280780528D02*
X180418853Y-280709100D01*
X180418853Y-280709100D02*
X180490281Y-280637671D01*
X180490281Y-280637671D02*
X180490281Y-280780528D01*
X180490281Y-279851957D02*
X180561710Y-279923385D01*
X180561710Y-279923385D02*
X180490281Y-279994814D01*
X180490281Y-279994814D02*
X180418853Y-279923385D01*
X180418853Y-279923385D02*
X180490281Y-279851957D01*
X180490281Y-279851957D02*
X180490281Y-279994814D01*
D10*
D11*
X91391598Y-280716900D02*
X91605884Y-280788328D01*
X91605884Y-280788328D02*
X91963026Y-280788328D01*
X91963026Y-280788328D02*
X92105884Y-280716900D01*
X92105884Y-280716900D02*
X92177312Y-280645471D01*
X92177312Y-280645471D02*
X92248741Y-280502614D01*
X92248741Y-280502614D02*
X92248741Y-280359757D01*
X92248741Y-280359757D02*
X92177312Y-280216900D01*
X92177312Y-280216900D02*
X92105884Y-280145471D01*
X92105884Y-280145471D02*
X91963026Y-280074042D01*
X91963026Y-280074042D02*
X91677312Y-280002614D01*
X91677312Y-280002614D02*
X91534455Y-279931185D01*
X91534455Y-279931185D02*
X91463026Y-279859757D01*
X91463026Y-279859757D02*
X91391598Y-279716900D01*
X91391598Y-279716900D02*
X91391598Y-279574042D01*
X91391598Y-279574042D02*
X91463026Y-279431185D01*
X91463026Y-279431185D02*
X91534455Y-279359757D01*
X91534455Y-279359757D02*
X91677312Y-279288328D01*
X91677312Y-279288328D02*
X92034455Y-279288328D01*
X92034455Y-279288328D02*
X92248741Y-279359757D01*
X92891597Y-280788328D02*
X92891597Y-279788328D01*
X92891597Y-279288328D02*
X92820169Y-279359757D01*
X92820169Y-279359757D02*
X92891597Y-279431185D01*
X92891597Y-279431185D02*
X92963026Y-279359757D01*
X92963026Y-279359757D02*
X92891597Y-279288328D01*
X92891597Y-279288328D02*
X92891597Y-279431185D01*
X93463026Y-279788328D02*
X94248741Y-279788328D01*
X94248741Y-279788328D02*
X93463026Y-280788328D01*
X93463026Y-280788328D02*
X94248741Y-280788328D01*
X95391598Y-280716900D02*
X95248741Y-280788328D01*
X95248741Y-280788328D02*
X94963027Y-280788328D01*
X94963027Y-280788328D02*
X94820169Y-280716900D01*
X94820169Y-280716900D02*
X94748741Y-280574042D01*
X94748741Y-280574042D02*
X94748741Y-280002614D01*
X94748741Y-280002614D02*
X94820169Y-279859757D01*
X94820169Y-279859757D02*
X94963027Y-279788328D01*
X94963027Y-279788328D02*
X95248741Y-279788328D01*
X95248741Y-279788328D02*
X95391598Y-279859757D01*
X95391598Y-279859757D02*
X95463027Y-280002614D01*
X95463027Y-280002614D02*
X95463027Y-280145471D01*
X95463027Y-280145471D02*
X94748741Y-280288328D01*
X96105883Y-280645471D02*
X96177312Y-280716900D01*
X96177312Y-280716900D02*
X96105883Y-280788328D01*
X96105883Y-280788328D02*
X96034455Y-280716900D01*
X96034455Y-280716900D02*
X96105883Y-280645471D01*
X96105883Y-280645471D02*
X96105883Y-280788328D01*
X96105883Y-279859757D02*
X96177312Y-279931185D01*
X96177312Y-279931185D02*
X96105883Y-280002614D01*
X96105883Y-280002614D02*
X96034455Y-279931185D01*
X96034455Y-279931185D02*
X96105883Y-279859757D01*
X96105883Y-279859757D02*
X96105883Y-280002614D01*
X97891598Y-280359757D02*
X98605884Y-280359757D01*
X97748741Y-280788328D02*
X98248741Y-279288328D01*
X98248741Y-279288328D02*
X98748741Y-280788328D01*
X99891598Y-279788328D02*
X99891598Y-280788328D01*
X99534455Y-279216900D02*
X99177312Y-280288328D01*
X99177312Y-280288328D02*
X100105883Y-280288328D01*
D10*
D11*
X176463026Y-283588328D02*
X176463026Y-282088328D01*
X177820170Y-283588328D02*
X177820170Y-282088328D01*
X177820170Y-283516900D02*
X177677312Y-283588328D01*
X177677312Y-283588328D02*
X177391598Y-283588328D01*
X177391598Y-283588328D02*
X177248741Y-283516900D01*
X177248741Y-283516900D02*
X177177312Y-283445471D01*
X177177312Y-283445471D02*
X177105884Y-283302614D01*
X177105884Y-283302614D02*
X177105884Y-282874042D01*
X177105884Y-282874042D02*
X177177312Y-282731185D01*
X177177312Y-282731185D02*
X177248741Y-282659757D01*
X177248741Y-282659757D02*
X177391598Y-282588328D01*
X177391598Y-282588328D02*
X177677312Y-282588328D01*
X177677312Y-282588328D02*
X177820170Y-282659757D01*
X178534455Y-283445471D02*
X178605884Y-283516900D01*
X178605884Y-283516900D02*
X178534455Y-283588328D01*
X178534455Y-283588328D02*
X178463027Y-283516900D01*
X178463027Y-283516900D02*
X178534455Y-283445471D01*
X178534455Y-283445471D02*
X178534455Y-283588328D01*
X178534455Y-282659757D02*
X178605884Y-282731185D01*
X178605884Y-282731185D02*
X178534455Y-282802614D01*
X178534455Y-282802614D02*
X178463027Y-282731185D01*
X178463027Y-282731185D02*
X178534455Y-282659757D01*
X178534455Y-282659757D02*
X178534455Y-282802614D01*
X181177313Y-283588328D02*
X180320170Y-283588328D01*
X180748741Y-283588328D02*
X180748741Y-282088328D01*
X180748741Y-282088328D02*
X180605884Y-282302614D01*
X180605884Y-282302614D02*
X180463027Y-282445471D01*
X180463027Y-282445471D02*
X180320170Y-282516900D01*
X182891598Y-282016900D02*
X181605884Y-283945471D01*
X184177313Y-283588328D02*
X183320170Y-283588328D01*
X183748741Y-283588328D02*
X183748741Y-282088328D01*
X183748741Y-282088328D02*
X183605884Y-282302614D01*
X183605884Y-282302614D02*
X183463027Y-282445471D01*
X183463027Y-282445471D02*
X183320170Y-282516900D01*
D10*
D11*
X90007200Y-274502200D02*
X198007200Y-274502200D01*
D10*
D13*
X91698928Y-275206638D02*
X92841785Y-275206638D01*
X92020357Y-277206638D02*
X92270357Y-275206638D01*
X93258452Y-277206638D02*
X93425119Y-275873304D01*
X93508452Y-275206638D02*
X93401309Y-275301876D01*
X93401309Y-275301876D02*
X93484643Y-275397114D01*
X93484643Y-275397114D02*
X93591786Y-275301876D01*
X93591786Y-275301876D02*
X93508452Y-275206638D01*
X93508452Y-275206638D02*
X93484643Y-275397114D01*
X94091786Y-275873304D02*
X94853690Y-275873304D01*
X94460833Y-275206638D02*
X94246548Y-276920923D01*
X94246548Y-276920923D02*
X94317976Y-277111400D01*
X94317976Y-277111400D02*
X94496548Y-277206638D01*
X94496548Y-277206638D02*
X94687024Y-277206638D01*
X95639405Y-277206638D02*
X95460833Y-277111400D01*
X95460833Y-277111400D02*
X95389405Y-276920923D01*
X95389405Y-276920923D02*
X95603690Y-275206638D01*
X97175119Y-277111400D02*
X96972738Y-277206638D01*
X96972738Y-277206638D02*
X96591785Y-277206638D01*
X96591785Y-277206638D02*
X96413214Y-277111400D01*
X96413214Y-277111400D02*
X96341785Y-276920923D01*
X96341785Y-276920923D02*
X96437024Y-276159019D01*
X96437024Y-276159019D02*
X96556071Y-275968542D01*
X96556071Y-275968542D02*
X96758452Y-275873304D01*
X96758452Y-275873304D02*
X97139404Y-275873304D01*
X97139404Y-275873304D02*
X97317976Y-275968542D01*
X97317976Y-275968542D02*
X97389404Y-276159019D01*
X97389404Y-276159019D02*
X97365595Y-276349495D01*
X97365595Y-276349495D02*
X96389404Y-276539971D01*
X98139405Y-277016161D02*
X98222738Y-277111400D01*
X98222738Y-277111400D02*
X98115595Y-277206638D01*
X98115595Y-277206638D02*
X98032262Y-277111400D01*
X98032262Y-277111400D02*
X98139405Y-277016161D01*
X98139405Y-277016161D02*
X98115595Y-277206638D01*
X98270357Y-275968542D02*
X98353690Y-276063780D01*
X98353690Y-276063780D02*
X98246548Y-276159019D01*
X98246548Y-276159019D02*
X98163214Y-276063780D01*
X98163214Y-276063780D02*
X98270357Y-275968542D01*
X98270357Y-275968542D02*
X98246548Y-276159019D01*
D10*
D11*
X91963026Y-272602614D02*
X91463026Y-272602614D01*
X91463026Y-273388328D02*
X91463026Y-271888328D01*
X91463026Y-271888328D02*
X92177312Y-271888328D01*
X92748740Y-273388328D02*
X92748740Y-272388328D01*
X92748740Y-271888328D02*
X92677312Y-271959757D01*
X92677312Y-271959757D02*
X92748740Y-272031185D01*
X92748740Y-272031185D02*
X92820169Y-271959757D01*
X92820169Y-271959757D02*
X92748740Y-271888328D01*
X92748740Y-271888328D02*
X92748740Y-272031185D01*
X93677312Y-273388328D02*
X93534455Y-273316900D01*
X93534455Y-273316900D02*
X93463026Y-273174042D01*
X93463026Y-273174042D02*
X93463026Y-271888328D01*
X94820169Y-273316900D02*
X94677312Y-273388328D01*
X94677312Y-273388328D02*
X94391598Y-273388328D01*
X94391598Y-273388328D02*
X94248740Y-273316900D01*
X94248740Y-273316900D02*
X94177312Y-273174042D01*
X94177312Y-273174042D02*
X94177312Y-272602614D01*
X94177312Y-272602614D02*
X94248740Y-272459757D01*
X94248740Y-272459757D02*
X94391598Y-272388328D01*
X94391598Y-272388328D02*
X94677312Y-272388328D01*
X94677312Y-272388328D02*
X94820169Y-272459757D01*
X94820169Y-272459757D02*
X94891598Y-272602614D01*
X94891598Y-272602614D02*
X94891598Y-272745471D01*
X94891598Y-272745471D02*
X94177312Y-272888328D01*
X95534454Y-273245471D02*
X95605883Y-273316900D01*
X95605883Y-273316900D02*
X95534454Y-273388328D01*
X95534454Y-273388328D02*
X95463026Y-273316900D01*
X95463026Y-273316900D02*
X95534454Y-273245471D01*
X95534454Y-273245471D02*
X95534454Y-273388328D01*
X95534454Y-272459757D02*
X95605883Y-272531185D01*
X95605883Y-272531185D02*
X95534454Y-272602614D01*
X95534454Y-272602614D02*
X95463026Y-272531185D01*
X95463026Y-272531185D02*
X95534454Y-272459757D01*
X95534454Y-272459757D02*
X95534454Y-272602614D01*
X97391597Y-272388328D02*
X97391597Y-273888328D01*
X97391597Y-272459757D02*
X97534455Y-272388328D01*
X97534455Y-272388328D02*
X97820169Y-272388328D01*
X97820169Y-272388328D02*
X97963026Y-272459757D01*
X97963026Y-272459757D02*
X98034455Y-272531185D01*
X98034455Y-272531185D02*
X98105883Y-272674042D01*
X98105883Y-272674042D02*
X98105883Y-273102614D01*
X98105883Y-273102614D02*
X98034455Y-273245471D01*
X98034455Y-273245471D02*
X97963026Y-273316900D01*
X97963026Y-273316900D02*
X97820169Y-273388328D01*
X97820169Y-273388328D02*
X97534455Y-273388328D01*
X97534455Y-273388328D02*
X97391597Y-273316900D01*
X99534455Y-273388328D02*
X98677312Y-273388328D01*
X99105883Y-273388328D02*
X99105883Y-271888328D01*
X99105883Y-271888328D02*
X98963026Y-272102614D01*
X98963026Y-272102614D02*
X98820169Y-272245471D01*
X98820169Y-272245471D02*
X98677312Y-272316900D01*
X100177311Y-273245471D02*
X100248740Y-273316900D01*
X100248740Y-273316900D02*
X100177311Y-273388328D01*
X100177311Y-273388328D02*
X100105883Y-273316900D01*
X100105883Y-273316900D02*
X100177311Y-273245471D01*
X100177311Y-273245471D02*
X100177311Y-273388328D01*
X100891597Y-273388328D02*
X100891597Y-271888328D01*
X101034455Y-272816900D02*
X101463026Y-273388328D01*
X101463026Y-272388328D02*
X100891597Y-272959757D01*
X102105883Y-273388328D02*
X102105883Y-272388328D01*
X102105883Y-271888328D02*
X102034455Y-271959757D01*
X102034455Y-271959757D02*
X102105883Y-272031185D01*
X102105883Y-272031185D02*
X102177312Y-271959757D01*
X102177312Y-271959757D02*
X102105883Y-271888328D01*
X102105883Y-271888328D02*
X102105883Y-272031185D01*
X103463027Y-273316900D02*
X103320169Y-273388328D01*
X103320169Y-273388328D02*
X103034455Y-273388328D01*
X103034455Y-273388328D02*
X102891598Y-273316900D01*
X102891598Y-273316900D02*
X102820169Y-273245471D01*
X102820169Y-273245471D02*
X102748741Y-273102614D01*
X102748741Y-273102614D02*
X102748741Y-272674042D01*
X102748741Y-272674042D02*
X102820169Y-272531185D01*
X102820169Y-272531185D02*
X102891598Y-272459757D01*
X102891598Y-272459757D02*
X103034455Y-272388328D01*
X103034455Y-272388328D02*
X103320169Y-272388328D01*
X103320169Y-272388328D02*
X103463027Y-272459757D01*
X104748741Y-273388328D02*
X104748741Y-272602614D01*
X104748741Y-272602614D02*
X104677312Y-272459757D01*
X104677312Y-272459757D02*
X104534455Y-272388328D01*
X104534455Y-272388328D02*
X104248741Y-272388328D01*
X104248741Y-272388328D02*
X104105883Y-272459757D01*
X104748741Y-273316900D02*
X104605883Y-273388328D01*
X104605883Y-273388328D02*
X104248741Y-273388328D01*
X104248741Y-273388328D02*
X104105883Y-273316900D01*
X104105883Y-273316900D02*
X104034455Y-273174042D01*
X104034455Y-273174042D02*
X104034455Y-273031185D01*
X104034455Y-273031185D02*
X104105883Y-272888328D01*
X104105883Y-272888328D02*
X104248741Y-272816900D01*
X104248741Y-272816900D02*
X104605883Y-272816900D01*
X104605883Y-272816900D02*
X104748741Y-272745471D01*
X106105884Y-273388328D02*
X106105884Y-271888328D01*
X106105884Y-273316900D02*
X105963026Y-273388328D01*
X105963026Y-273388328D02*
X105677312Y-273388328D01*
X105677312Y-273388328D02*
X105534455Y-273316900D01*
X105534455Y-273316900D02*
X105463026Y-273245471D01*
X105463026Y-273245471D02*
X105391598Y-273102614D01*
X105391598Y-273102614D02*
X105391598Y-272674042D01*
X105391598Y-272674042D02*
X105463026Y-272531185D01*
X105463026Y-272531185D02*
X105534455Y-272459757D01*
X105534455Y-272459757D02*
X105677312Y-272388328D01*
X105677312Y-272388328D02*
X105963026Y-272388328D01*
X105963026Y-272388328D02*
X106105884Y-272459757D01*
X106463027Y-273531185D02*
X107605884Y-273531185D01*
X107963026Y-272388328D02*
X107963026Y-273888328D01*
X107963026Y-272459757D02*
X108105884Y-272388328D01*
X108105884Y-272388328D02*
X108391598Y-272388328D01*
X108391598Y-272388328D02*
X108534455Y-272459757D01*
X108534455Y-272459757D02*
X108605884Y-272531185D01*
X108605884Y-272531185D02*
X108677312Y-272674042D01*
X108677312Y-272674042D02*
X108677312Y-273102614D01*
X108677312Y-273102614D02*
X108605884Y-273245471D01*
X108605884Y-273245471D02*
X108534455Y-273316900D01*
X108534455Y-273316900D02*
X108391598Y-273388328D01*
X108391598Y-273388328D02*
X108105884Y-273388328D01*
X108105884Y-273388328D02*
X107963026Y-273316900D01*
X109963027Y-273316900D02*
X109820169Y-273388328D01*
X109820169Y-273388328D02*
X109534455Y-273388328D01*
X109534455Y-273388328D02*
X109391598Y-273316900D01*
X109391598Y-273316900D02*
X109320169Y-273245471D01*
X109320169Y-273245471D02*
X109248741Y-273102614D01*
X109248741Y-273102614D02*
X109248741Y-272674042D01*
X109248741Y-272674042D02*
X109320169Y-272531185D01*
X109320169Y-272531185D02*
X109391598Y-272459757D01*
X109391598Y-272459757D02*
X109534455Y-272388328D01*
X109534455Y-272388328D02*
X109820169Y-272388328D01*
X109820169Y-272388328D02*
X109963027Y-272459757D01*
X110605883Y-273388328D02*
X110605883Y-271888328D01*
X110605883Y-272459757D02*
X110748741Y-272388328D01*
X110748741Y-272388328D02*
X111034455Y-272388328D01*
X111034455Y-272388328D02*
X111177312Y-272459757D01*
X111177312Y-272459757D02*
X111248741Y-272531185D01*
X111248741Y-272531185D02*
X111320169Y-272674042D01*
X111320169Y-272674042D02*
X111320169Y-273102614D01*
X111320169Y-273102614D02*
X111248741Y-273245471D01*
X111248741Y-273245471D02*
X111177312Y-273316900D01*
X111177312Y-273316900D02*
X111034455Y-273388328D01*
X111034455Y-273388328D02*
X110748741Y-273388328D01*
X110748741Y-273388328D02*
X110605883Y-273316900D01*
D10*
D11*
X90007200Y-268502200D02*
X198007200Y-268502200D01*
D10*
D11*
X91391598Y-270616900D02*
X91605884Y-270688328D01*
X91605884Y-270688328D02*
X91963026Y-270688328D01*
X91963026Y-270688328D02*
X92105884Y-270616900D01*
X92105884Y-270616900D02*
X92177312Y-270545471D01*
X92177312Y-270545471D02*
X92248741Y-270402614D01*
X92248741Y-270402614D02*
X92248741Y-270259757D01*
X92248741Y-270259757D02*
X92177312Y-270116900D01*
X92177312Y-270116900D02*
X92105884Y-270045471D01*
X92105884Y-270045471D02*
X91963026Y-269974042D01*
X91963026Y-269974042D02*
X91677312Y-269902614D01*
X91677312Y-269902614D02*
X91534455Y-269831185D01*
X91534455Y-269831185D02*
X91463026Y-269759757D01*
X91463026Y-269759757D02*
X91391598Y-269616900D01*
X91391598Y-269616900D02*
X91391598Y-269474042D01*
X91391598Y-269474042D02*
X91463026Y-269331185D01*
X91463026Y-269331185D02*
X91534455Y-269259757D01*
X91534455Y-269259757D02*
X91677312Y-269188328D01*
X91677312Y-269188328D02*
X92034455Y-269188328D01*
X92034455Y-269188328D02*
X92248741Y-269259757D01*
X92891597Y-270688328D02*
X92891597Y-269188328D01*
X93534455Y-270688328D02*
X93534455Y-269902614D01*
X93534455Y-269902614D02*
X93463026Y-269759757D01*
X93463026Y-269759757D02*
X93320169Y-269688328D01*
X93320169Y-269688328D02*
X93105883Y-269688328D01*
X93105883Y-269688328D02*
X92963026Y-269759757D01*
X92963026Y-269759757D02*
X92891597Y-269831185D01*
X94820169Y-270616900D02*
X94677312Y-270688328D01*
X94677312Y-270688328D02*
X94391598Y-270688328D01*
X94391598Y-270688328D02*
X94248740Y-270616900D01*
X94248740Y-270616900D02*
X94177312Y-270474042D01*
X94177312Y-270474042D02*
X94177312Y-269902614D01*
X94177312Y-269902614D02*
X94248740Y-269759757D01*
X94248740Y-269759757D02*
X94391598Y-269688328D01*
X94391598Y-269688328D02*
X94677312Y-269688328D01*
X94677312Y-269688328D02*
X94820169Y-269759757D01*
X94820169Y-269759757D02*
X94891598Y-269902614D01*
X94891598Y-269902614D02*
X94891598Y-270045471D01*
X94891598Y-270045471D02*
X94177312Y-270188328D01*
X96105883Y-270616900D02*
X95963026Y-270688328D01*
X95963026Y-270688328D02*
X95677312Y-270688328D01*
X95677312Y-270688328D02*
X95534454Y-270616900D01*
X95534454Y-270616900D02*
X95463026Y-270474042D01*
X95463026Y-270474042D02*
X95463026Y-269902614D01*
X95463026Y-269902614D02*
X95534454Y-269759757D01*
X95534454Y-269759757D02*
X95677312Y-269688328D01*
X95677312Y-269688328D02*
X95963026Y-269688328D01*
X95963026Y-269688328D02*
X96105883Y-269759757D01*
X96105883Y-269759757D02*
X96177312Y-269902614D01*
X96177312Y-269902614D02*
X96177312Y-270045471D01*
X96177312Y-270045471D02*
X95463026Y-270188328D01*
X96605883Y-269688328D02*
X97177311Y-269688328D01*
X96820168Y-269188328D02*
X96820168Y-270474042D01*
X96820168Y-270474042D02*
X96891597Y-270616900D01*
X96891597Y-270616900D02*
X97034454Y-270688328D01*
X97034454Y-270688328D02*
X97177311Y-270688328D01*
X97677311Y-270545471D02*
X97748740Y-270616900D01*
X97748740Y-270616900D02*
X97677311Y-270688328D01*
X97677311Y-270688328D02*
X97605883Y-270616900D01*
X97605883Y-270616900D02*
X97677311Y-270545471D01*
X97677311Y-270545471D02*
X97677311Y-270688328D01*
X97677311Y-269759757D02*
X97748740Y-269831185D01*
X97748740Y-269831185D02*
X97677311Y-269902614D01*
X97677311Y-269902614D02*
X97605883Y-269831185D01*
X97605883Y-269831185D02*
X97677311Y-269759757D01*
X97677311Y-269759757D02*
X97677311Y-269902614D01*
D10*
D11*
X110007200Y-278502200D02*
X110007200Y-281502200D01*
D10*
D11*
X174007200Y-278502200D02*
X174007200Y-285002200D01*
X146031880Y-85970319D02*
X146031880Y-84970319D01*
X145603309Y-85065557D02*
X145555690Y-85017938D01*
X145555690Y-85017938D02*
X145460452Y-84970319D01*
X145460452Y-84970319D02*
X145222357Y-84970319D01*
X145222357Y-84970319D02*
X145127119Y-85017938D01*
X145127119Y-85017938D02*
X145079500Y-85065557D01*
X145079500Y-85065557D02*
X145031881Y-85160795D01*
X145031881Y-85160795D02*
X145031881Y-85256033D01*
X145031881Y-85256033D02*
X145079500Y-85398890D01*
X145079500Y-85398890D02*
X145650928Y-85970319D01*
X145650928Y-85970319D02*
X145031881Y-85970319D01*
X144031881Y-85875080D02*
X144079500Y-85922700D01*
X144079500Y-85922700D02*
X144222357Y-85970319D01*
X144222357Y-85970319D02*
X144317595Y-85970319D01*
X144317595Y-85970319D02*
X144460452Y-85922700D01*
X144460452Y-85922700D02*
X144555690Y-85827461D01*
X144555690Y-85827461D02*
X144603309Y-85732223D01*
X144603309Y-85732223D02*
X144650928Y-85541747D01*
X144650928Y-85541747D02*
X144650928Y-85398890D01*
X144650928Y-85398890D02*
X144603309Y-85208414D01*
X144603309Y-85208414D02*
X144555690Y-85113176D01*
X144555690Y-85113176D02*
X144460452Y-85017938D01*
X144460452Y-85017938D02*
X144317595Y-84970319D01*
X144317595Y-84970319D02*
X144222357Y-84970319D01*
X144222357Y-84970319D02*
X144079500Y-85017938D01*
X144079500Y-85017938D02*
X144031881Y-85065557D01*
X143079500Y-85970319D02*
X143650928Y-85970319D01*
X143365214Y-85970319D02*
X143365214Y-84970319D01*
X143365214Y-84970319D02*
X143460452Y-85113176D01*
X143460452Y-85113176D02*
X143555690Y-85208414D01*
X143555690Y-85208414D02*
X143650928Y-85256033D01*
X125104319Y-122620976D02*
X125818604Y-122620976D01*
X125818604Y-122620976D02*
X125961461Y-122573357D01*
X125961461Y-122573357D02*
X126056700Y-122478119D01*
X126056700Y-122478119D02*
X126104319Y-122335262D01*
X126104319Y-122335262D02*
X126104319Y-122240024D01*
X126104319Y-123620976D02*
X126104319Y-123049548D01*
X126104319Y-123335262D02*
X125104319Y-123335262D01*
X125104319Y-123335262D02*
X125247176Y-123240024D01*
X125247176Y-123240024D02*
X125342414Y-123144786D01*
X125342414Y-123144786D02*
X125390033Y-123049548D01*
X125104319Y-124478119D02*
X125104319Y-124287643D01*
X125104319Y-124287643D02*
X125151938Y-124192405D01*
X125151938Y-124192405D02*
X125199557Y-124144786D01*
X125199557Y-124144786D02*
X125342414Y-124049548D01*
X125342414Y-124049548D02*
X125532890Y-124001929D01*
X125532890Y-124001929D02*
X125913842Y-124001929D01*
X125913842Y-124001929D02*
X126009080Y-124049548D01*
X126009080Y-124049548D02*
X126056700Y-124097167D01*
X126056700Y-124097167D02*
X126104319Y-124192405D01*
X126104319Y-124192405D02*
X126104319Y-124382881D01*
X126104319Y-124382881D02*
X126056700Y-124478119D01*
X126056700Y-124478119D02*
X126009080Y-124525738D01*
X126009080Y-124525738D02*
X125913842Y-124573357D01*
X125913842Y-124573357D02*
X125675747Y-124573357D01*
X125675747Y-124573357D02*
X125580509Y-124525738D01*
X125580509Y-124525738D02*
X125532890Y-124478119D01*
X125532890Y-124478119D02*
X125485271Y-124382881D01*
X125485271Y-124382881D02*
X125485271Y-124192405D01*
X125485271Y-124192405D02*
X125532890Y-124097167D01*
X125532890Y-124097167D02*
X125580509Y-124049548D01*
X125580509Y-124049548D02*
X125675747Y-124001929D01*
X102295319Y-199557976D02*
X103009604Y-199557976D01*
X103009604Y-199557976D02*
X103152461Y-199510357D01*
X103152461Y-199510357D02*
X103247700Y-199415119D01*
X103247700Y-199415119D02*
X103295319Y-199272262D01*
X103295319Y-199272262D02*
X103295319Y-199177024D01*
X102295319Y-199938929D02*
X102295319Y-200557976D01*
X102295319Y-200557976D02*
X102676271Y-200224643D01*
X102676271Y-200224643D02*
X102676271Y-200367500D01*
X102676271Y-200367500D02*
X102723890Y-200462738D01*
X102723890Y-200462738D02*
X102771509Y-200510357D01*
X102771509Y-200510357D02*
X102866747Y-200557976D01*
X102866747Y-200557976D02*
X103104842Y-200557976D01*
X103104842Y-200557976D02*
X103200080Y-200510357D01*
X103200080Y-200510357D02*
X103247700Y-200462738D01*
X103247700Y-200462738D02*
X103295319Y-200367500D01*
X103295319Y-200367500D02*
X103295319Y-200081786D01*
X103295319Y-200081786D02*
X103247700Y-199986548D01*
X103247700Y-199986548D02*
X103200080Y-199938929D01*
X102295319Y-201177024D02*
X102295319Y-201272262D01*
X102295319Y-201272262D02*
X102342938Y-201367500D01*
X102342938Y-201367500D02*
X102390557Y-201415119D01*
X102390557Y-201415119D02*
X102485795Y-201462738D01*
X102485795Y-201462738D02*
X102676271Y-201510357D01*
X102676271Y-201510357D02*
X102914366Y-201510357D01*
X102914366Y-201510357D02*
X103104842Y-201462738D01*
X103104842Y-201462738D02*
X103200080Y-201415119D01*
X103200080Y-201415119D02*
X103247700Y-201367500D01*
X103247700Y-201367500D02*
X103295319Y-201272262D01*
X103295319Y-201272262D02*
X103295319Y-201177024D01*
X103295319Y-201177024D02*
X103247700Y-201081786D01*
X103247700Y-201081786D02*
X103200080Y-201034167D01*
X103200080Y-201034167D02*
X103104842Y-200986548D01*
X103104842Y-200986548D02*
X102914366Y-200938929D01*
X102914366Y-200938929D02*
X102676271Y-200938929D01*
X102676271Y-200938929D02*
X102485795Y-200986548D01*
X102485795Y-200986548D02*
X102390557Y-201034167D01*
X102390557Y-201034167D02*
X102342938Y-201081786D01*
X102342938Y-201081786D02*
X102295319Y-201177024D01*
X102168319Y-212003976D02*
X102882604Y-212003976D01*
X102882604Y-212003976D02*
X103025461Y-211956357D01*
X103025461Y-211956357D02*
X103120700Y-211861119D01*
X103120700Y-211861119D02*
X103168319Y-211718262D01*
X103168319Y-211718262D02*
X103168319Y-211623024D01*
X102168319Y-212384929D02*
X102168319Y-213003976D01*
X102168319Y-213003976D02*
X102549271Y-212670643D01*
X102549271Y-212670643D02*
X102549271Y-212813500D01*
X102549271Y-212813500D02*
X102596890Y-212908738D01*
X102596890Y-212908738D02*
X102644509Y-212956357D01*
X102644509Y-212956357D02*
X102739747Y-213003976D01*
X102739747Y-213003976D02*
X102977842Y-213003976D01*
X102977842Y-213003976D02*
X103073080Y-212956357D01*
X103073080Y-212956357D02*
X103120700Y-212908738D01*
X103120700Y-212908738D02*
X103168319Y-212813500D01*
X103168319Y-212813500D02*
X103168319Y-212527786D01*
X103168319Y-212527786D02*
X103120700Y-212432548D01*
X103120700Y-212432548D02*
X103073080Y-212384929D01*
X103168319Y-213956357D02*
X103168319Y-213384929D01*
X103168319Y-213670643D02*
X102168319Y-213670643D01*
X102168319Y-213670643D02*
X102311176Y-213575405D01*
X102311176Y-213575405D02*
X102406414Y-213480167D01*
X102406414Y-213480167D02*
X102454033Y-213384929D01*
X125226319Y-173928976D02*
X125940604Y-173928976D01*
X125940604Y-173928976D02*
X126083461Y-173881357D01*
X126083461Y-173881357D02*
X126178700Y-173786119D01*
X126178700Y-173786119D02*
X126226319Y-173643262D01*
X126226319Y-173643262D02*
X126226319Y-173548024D01*
X125321557Y-174357548D02*
X125273938Y-174405167D01*
X125273938Y-174405167D02*
X125226319Y-174500405D01*
X125226319Y-174500405D02*
X125226319Y-174738500D01*
X125226319Y-174738500D02*
X125273938Y-174833738D01*
X125273938Y-174833738D02*
X125321557Y-174881357D01*
X125321557Y-174881357D02*
X125416795Y-174928976D01*
X125416795Y-174928976D02*
X125512033Y-174928976D01*
X125512033Y-174928976D02*
X125654890Y-174881357D01*
X125654890Y-174881357D02*
X126226319Y-174309929D01*
X126226319Y-174309929D02*
X126226319Y-174928976D01*
X125226319Y-175548024D02*
X125226319Y-175643262D01*
X125226319Y-175643262D02*
X125273938Y-175738500D01*
X125273938Y-175738500D02*
X125321557Y-175786119D01*
X125321557Y-175786119D02*
X125416795Y-175833738D01*
X125416795Y-175833738D02*
X125607271Y-175881357D01*
X125607271Y-175881357D02*
X125845366Y-175881357D01*
X125845366Y-175881357D02*
X126035842Y-175833738D01*
X126035842Y-175833738D02*
X126131080Y-175786119D01*
X126131080Y-175786119D02*
X126178700Y-175738500D01*
X126178700Y-175738500D02*
X126226319Y-175643262D01*
X126226319Y-175643262D02*
X126226319Y-175548024D01*
X126226319Y-175548024D02*
X126178700Y-175452786D01*
X126178700Y-175452786D02*
X126131080Y-175405167D01*
X126131080Y-175405167D02*
X126035842Y-175357548D01*
X126035842Y-175357548D02*
X125845366Y-175309929D01*
X125845366Y-175309929D02*
X125607271Y-175309929D01*
X125607271Y-175309929D02*
X125416795Y-175357548D01*
X125416795Y-175357548D02*
X125321557Y-175405167D01*
X125321557Y-175405167D02*
X125273938Y-175452786D01*
X125273938Y-175452786D02*
X125226319Y-175548024D01*
X102295319Y-160822976D02*
X103009604Y-160822976D01*
X103009604Y-160822976D02*
X103152461Y-160775357D01*
X103152461Y-160775357D02*
X103247700Y-160680119D01*
X103247700Y-160680119D02*
X103295319Y-160537262D01*
X103295319Y-160537262D02*
X103295319Y-160442024D01*
X102390557Y-161251548D02*
X102342938Y-161299167D01*
X102342938Y-161299167D02*
X102295319Y-161394405D01*
X102295319Y-161394405D02*
X102295319Y-161632500D01*
X102295319Y-161632500D02*
X102342938Y-161727738D01*
X102342938Y-161727738D02*
X102390557Y-161775357D01*
X102390557Y-161775357D02*
X102485795Y-161822976D01*
X102485795Y-161822976D02*
X102581033Y-161822976D01*
X102581033Y-161822976D02*
X102723890Y-161775357D01*
X102723890Y-161775357D02*
X103295319Y-161203929D01*
X103295319Y-161203929D02*
X103295319Y-161822976D01*
X102295319Y-162156310D02*
X102295319Y-162822976D01*
X102295319Y-162822976D02*
X103295319Y-162394405D01*
X146031880Y-114164319D02*
X146031880Y-113164319D01*
X145603309Y-113259557D02*
X145555690Y-113211938D01*
X145555690Y-113211938D02*
X145460452Y-113164319D01*
X145460452Y-113164319D02*
X145222357Y-113164319D01*
X145222357Y-113164319D02*
X145127119Y-113211938D01*
X145127119Y-113211938D02*
X145079500Y-113259557D01*
X145079500Y-113259557D02*
X145031881Y-113354795D01*
X145031881Y-113354795D02*
X145031881Y-113450033D01*
X145031881Y-113450033D02*
X145079500Y-113592890D01*
X145079500Y-113592890D02*
X145650928Y-114164319D01*
X145650928Y-114164319D02*
X145031881Y-114164319D01*
X144031881Y-114069080D02*
X144079500Y-114116700D01*
X144079500Y-114116700D02*
X144222357Y-114164319D01*
X144222357Y-114164319D02*
X144317595Y-114164319D01*
X144317595Y-114164319D02*
X144460452Y-114116700D01*
X144460452Y-114116700D02*
X144555690Y-114021461D01*
X144555690Y-114021461D02*
X144603309Y-113926223D01*
X144603309Y-113926223D02*
X144650928Y-113735747D01*
X144650928Y-113735747D02*
X144650928Y-113592890D01*
X144650928Y-113592890D02*
X144603309Y-113402414D01*
X144603309Y-113402414D02*
X144555690Y-113307176D01*
X144555690Y-113307176D02*
X144460452Y-113211938D01*
X144460452Y-113211938D02*
X144317595Y-113164319D01*
X144317595Y-113164319D02*
X144222357Y-113164319D01*
X144222357Y-113164319D02*
X144079500Y-113211938D01*
X144079500Y-113211938D02*
X144031881Y-113259557D01*
X143174738Y-113497652D02*
X143174738Y-114164319D01*
X143412833Y-113116700D02*
X143650928Y-113830985D01*
X143650928Y-113830985D02*
X143031881Y-113830985D01*
X125155319Y-63549072D02*
X125155319Y-64168119D01*
X125155319Y-64168119D02*
X125536271Y-63834786D01*
X125536271Y-63834786D02*
X125536271Y-63977643D01*
X125536271Y-63977643D02*
X125583890Y-64072881D01*
X125583890Y-64072881D02*
X125631509Y-64120500D01*
X125631509Y-64120500D02*
X125726747Y-64168119D01*
X125726747Y-64168119D02*
X125964842Y-64168119D01*
X125964842Y-64168119D02*
X126060080Y-64120500D01*
X126060080Y-64120500D02*
X126107700Y-64072881D01*
X126107700Y-64072881D02*
X126155319Y-63977643D01*
X126155319Y-63977643D02*
X126155319Y-63691929D01*
X126155319Y-63691929D02*
X126107700Y-63596691D01*
X126107700Y-63596691D02*
X126060080Y-63549072D01*
X126155319Y-64596691D02*
X125155319Y-64596691D01*
X125155319Y-64596691D02*
X125155319Y-64977643D01*
X125155319Y-64977643D02*
X125202938Y-65072881D01*
X125202938Y-65072881D02*
X125250557Y-65120500D01*
X125250557Y-65120500D02*
X125345795Y-65168119D01*
X125345795Y-65168119D02*
X125488652Y-65168119D01*
X125488652Y-65168119D02*
X125583890Y-65120500D01*
X125583890Y-65120500D02*
X125631509Y-65072881D01*
X125631509Y-65072881D02*
X125679128Y-64977643D01*
X125679128Y-64977643D02*
X125679128Y-64596691D01*
X126155319Y-65596691D02*
X125155319Y-65596691D01*
X126155319Y-66072881D02*
X125155319Y-66072881D01*
X125155319Y-66072881D02*
X126155319Y-66644309D01*
X126155319Y-66644309D02*
X125155319Y-66644309D01*
X126155319Y-67644309D02*
X126155319Y-67072881D01*
X126155319Y-67358595D02*
X125155319Y-67358595D01*
X125155319Y-67358595D02*
X125298176Y-67263357D01*
X125298176Y-67263357D02*
X125393414Y-67168119D01*
X125393414Y-67168119D02*
X125441033Y-67072881D01*
X102295319Y-148249976D02*
X103009604Y-148249976D01*
X103009604Y-148249976D02*
X103152461Y-148202357D01*
X103152461Y-148202357D02*
X103247700Y-148107119D01*
X103247700Y-148107119D02*
X103295319Y-147964262D01*
X103295319Y-147964262D02*
X103295319Y-147869024D01*
X102390557Y-148678548D02*
X102342938Y-148726167D01*
X102342938Y-148726167D02*
X102295319Y-148821405D01*
X102295319Y-148821405D02*
X102295319Y-149059500D01*
X102295319Y-149059500D02*
X102342938Y-149154738D01*
X102342938Y-149154738D02*
X102390557Y-149202357D01*
X102390557Y-149202357D02*
X102485795Y-149249976D01*
X102485795Y-149249976D02*
X102581033Y-149249976D01*
X102581033Y-149249976D02*
X102723890Y-149202357D01*
X102723890Y-149202357D02*
X103295319Y-148630929D01*
X103295319Y-148630929D02*
X103295319Y-149249976D01*
X102295319Y-150107119D02*
X102295319Y-149916643D01*
X102295319Y-149916643D02*
X102342938Y-149821405D01*
X102342938Y-149821405D02*
X102390557Y-149773786D01*
X102390557Y-149773786D02*
X102533414Y-149678548D01*
X102533414Y-149678548D02*
X102723890Y-149630929D01*
X102723890Y-149630929D02*
X103104842Y-149630929D01*
X103104842Y-149630929D02*
X103200080Y-149678548D01*
X103200080Y-149678548D02*
X103247700Y-149726167D01*
X103247700Y-149726167D02*
X103295319Y-149821405D01*
X103295319Y-149821405D02*
X103295319Y-150011881D01*
X103295319Y-150011881D02*
X103247700Y-150107119D01*
X103247700Y-150107119D02*
X103200080Y-150154738D01*
X103200080Y-150154738D02*
X103104842Y-150202357D01*
X103104842Y-150202357D02*
X102866747Y-150202357D01*
X102866747Y-150202357D02*
X102771509Y-150154738D01*
X102771509Y-150154738D02*
X102723890Y-150107119D01*
X102723890Y-150107119D02*
X102676271Y-150011881D01*
X102676271Y-150011881D02*
X102676271Y-149821405D01*
X102676271Y-149821405D02*
X102723890Y-149726167D01*
X102723890Y-149726167D02*
X102771509Y-149678548D01*
X102771509Y-149678548D02*
X102866747Y-149630929D01*
X70172976Y-113878604D02*
X69696786Y-113878604D01*
X70268214Y-114164319D02*
X69934881Y-113164319D01*
X69934881Y-113164319D02*
X69601548Y-114164319D01*
X69268214Y-113497652D02*
X69268214Y-114164319D01*
X69268214Y-113592890D02*
X69220595Y-113545271D01*
X69220595Y-113545271D02*
X69125357Y-113497652D01*
X69125357Y-113497652D02*
X68982500Y-113497652D01*
X68982500Y-113497652D02*
X68887262Y-113545271D01*
X68887262Y-113545271D02*
X68839643Y-113640509D01*
X68839643Y-113640509D02*
X68839643Y-114164319D01*
X67934881Y-114164319D02*
X67934881Y-113640509D01*
X67934881Y-113640509D02*
X67982500Y-113545271D01*
X67982500Y-113545271D02*
X68077738Y-113497652D01*
X68077738Y-113497652D02*
X68268214Y-113497652D01*
X68268214Y-113497652D02*
X68363452Y-113545271D01*
X67934881Y-114116700D02*
X68030119Y-114164319D01*
X68030119Y-114164319D02*
X68268214Y-114164319D01*
X68268214Y-114164319D02*
X68363452Y-114116700D01*
X68363452Y-114116700D02*
X68411071Y-114021461D01*
X68411071Y-114021461D02*
X68411071Y-113926223D01*
X68411071Y-113926223D02*
X68363452Y-113830985D01*
X68363452Y-113830985D02*
X68268214Y-113783366D01*
X68268214Y-113783366D02*
X68030119Y-113783366D01*
X68030119Y-113783366D02*
X67934881Y-113735747D01*
X67315833Y-114164319D02*
X67411071Y-114116700D01*
X67411071Y-114116700D02*
X67458690Y-114021461D01*
X67458690Y-114021461D02*
X67458690Y-113164319D01*
X66792023Y-114164319D02*
X66887261Y-114116700D01*
X66887261Y-114116700D02*
X66934880Y-114069080D01*
X66934880Y-114069080D02*
X66982499Y-113973842D01*
X66982499Y-113973842D02*
X66982499Y-113688128D01*
X66982499Y-113688128D02*
X66934880Y-113592890D01*
X66934880Y-113592890D02*
X66887261Y-113545271D01*
X66887261Y-113545271D02*
X66792023Y-113497652D01*
X66792023Y-113497652D02*
X66649166Y-113497652D01*
X66649166Y-113497652D02*
X66553928Y-113545271D01*
X66553928Y-113545271D02*
X66506309Y-113592890D01*
X66506309Y-113592890D02*
X66458690Y-113688128D01*
X66458690Y-113688128D02*
X66458690Y-113973842D01*
X66458690Y-113973842D02*
X66506309Y-114069080D01*
X66506309Y-114069080D02*
X66553928Y-114116700D01*
X66553928Y-114116700D02*
X66649166Y-114164319D01*
X66649166Y-114164319D02*
X66792023Y-114164319D01*
X65601547Y-113497652D02*
X65601547Y-114307176D01*
X65601547Y-114307176D02*
X65649166Y-114402414D01*
X65649166Y-114402414D02*
X65696785Y-114450033D01*
X65696785Y-114450033D02*
X65792023Y-114497652D01*
X65792023Y-114497652D02*
X65934880Y-114497652D01*
X65934880Y-114497652D02*
X66030118Y-114450033D01*
X65601547Y-114116700D02*
X65696785Y-114164319D01*
X65696785Y-114164319D02*
X65887261Y-114164319D01*
X65887261Y-114164319D02*
X65982499Y-114116700D01*
X65982499Y-114116700D02*
X66030118Y-114069080D01*
X66030118Y-114069080D02*
X66077737Y-113973842D01*
X66077737Y-113973842D02*
X66077737Y-113688128D01*
X66077737Y-113688128D02*
X66030118Y-113592890D01*
X66030118Y-113592890D02*
X65982499Y-113545271D01*
X65982499Y-113545271D02*
X65887261Y-113497652D01*
X65887261Y-113497652D02*
X65696785Y-113497652D01*
X65696785Y-113497652D02*
X65601547Y-113545271D01*
X64649166Y-114164319D02*
X65125356Y-114164319D01*
X65125356Y-114164319D02*
X65125356Y-113164319D01*
X63887261Y-113497652D02*
X63887261Y-114164319D01*
X64125356Y-113116700D02*
X64363451Y-113830985D01*
X64363451Y-113830985D02*
X63744404Y-113830985D01*
X110438833Y-74832938D02*
X110534071Y-74785319D01*
X110534071Y-74785319D02*
X110676928Y-74785319D01*
X110676928Y-74785319D02*
X110819785Y-74832938D01*
X110819785Y-74832938D02*
X110915023Y-74928176D01*
X110915023Y-74928176D02*
X110962642Y-75023414D01*
X110962642Y-75023414D02*
X111010261Y-75213890D01*
X111010261Y-75213890D02*
X111010261Y-75356747D01*
X111010261Y-75356747D02*
X110962642Y-75547223D01*
X110962642Y-75547223D02*
X110915023Y-75642461D01*
X110915023Y-75642461D02*
X110819785Y-75737700D01*
X110819785Y-75737700D02*
X110676928Y-75785319D01*
X110676928Y-75785319D02*
X110581690Y-75785319D01*
X110581690Y-75785319D02*
X110438833Y-75737700D01*
X110438833Y-75737700D02*
X110391214Y-75690080D01*
X110391214Y-75690080D02*
X110391214Y-75356747D01*
X110391214Y-75356747D02*
X110581690Y-75356747D01*
X109819785Y-75785319D02*
X109915023Y-75737700D01*
X109915023Y-75737700D02*
X109962642Y-75642461D01*
X109962642Y-75642461D02*
X109962642Y-74785319D01*
X109295975Y-75785319D02*
X109391213Y-75737700D01*
X109391213Y-75737700D02*
X109438832Y-75690080D01*
X109438832Y-75690080D02*
X109486451Y-75594842D01*
X109486451Y-75594842D02*
X109486451Y-75309128D01*
X109486451Y-75309128D02*
X109438832Y-75213890D01*
X109438832Y-75213890D02*
X109391213Y-75166271D01*
X109391213Y-75166271D02*
X109295975Y-75118652D01*
X109295975Y-75118652D02*
X109153118Y-75118652D01*
X109153118Y-75118652D02*
X109057880Y-75166271D01*
X109057880Y-75166271D02*
X109010261Y-75213890D01*
X109010261Y-75213890D02*
X108962642Y-75309128D01*
X108962642Y-75309128D02*
X108962642Y-75594842D01*
X108962642Y-75594842D02*
X109010261Y-75690080D01*
X109010261Y-75690080D02*
X109057880Y-75737700D01*
X109057880Y-75737700D02*
X109153118Y-75785319D01*
X109153118Y-75785319D02*
X109295975Y-75785319D01*
X108629308Y-75118652D02*
X108438832Y-75785319D01*
X108438832Y-75785319D02*
X108248356Y-75309128D01*
X108248356Y-75309128D02*
X108057880Y-75785319D01*
X108057880Y-75785319D02*
X107867404Y-75118652D01*
X107486451Y-75118652D02*
X107486451Y-75785319D01*
X107486451Y-75213890D02*
X107438832Y-75166271D01*
X107438832Y-75166271D02*
X107343594Y-75118652D01*
X107343594Y-75118652D02*
X107200737Y-75118652D01*
X107200737Y-75118652D02*
X107105499Y-75166271D01*
X107105499Y-75166271D02*
X107057880Y-75261509D01*
X107057880Y-75261509D02*
X107057880Y-75785319D01*
X106200737Y-75737700D02*
X106295975Y-75785319D01*
X106295975Y-75785319D02*
X106486451Y-75785319D01*
X106486451Y-75785319D02*
X106581689Y-75737700D01*
X106581689Y-75737700D02*
X106629308Y-75642461D01*
X106629308Y-75642461D02*
X106629308Y-75261509D01*
X106629308Y-75261509D02*
X106581689Y-75166271D01*
X106581689Y-75166271D02*
X106486451Y-75118652D01*
X106486451Y-75118652D02*
X106295975Y-75118652D01*
X106295975Y-75118652D02*
X106200737Y-75166271D01*
X106200737Y-75166271D02*
X106153118Y-75261509D01*
X106153118Y-75261509D02*
X106153118Y-75356747D01*
X106153118Y-75356747D02*
X106629308Y-75451985D01*
X105772165Y-74880557D02*
X105724546Y-74832938D01*
X105724546Y-74832938D02*
X105629308Y-74785319D01*
X105629308Y-74785319D02*
X105391213Y-74785319D01*
X105391213Y-74785319D02*
X105295975Y-74832938D01*
X105295975Y-74832938D02*
X105248356Y-74880557D01*
X105248356Y-74880557D02*
X105200737Y-74975795D01*
X105200737Y-74975795D02*
X105200737Y-75071033D01*
X105200737Y-75071033D02*
X105248356Y-75213890D01*
X105248356Y-75213890D02*
X105819784Y-75785319D01*
X105819784Y-75785319D02*
X105200737Y-75785319D01*
X102041319Y-186603976D02*
X102755604Y-186603976D01*
X102755604Y-186603976D02*
X102898461Y-186556357D01*
X102898461Y-186556357D02*
X102993700Y-186461119D01*
X102993700Y-186461119D02*
X103041319Y-186318262D01*
X103041319Y-186318262D02*
X103041319Y-186223024D01*
X102136557Y-187032548D02*
X102088938Y-187080167D01*
X102088938Y-187080167D02*
X102041319Y-187175405D01*
X102041319Y-187175405D02*
X102041319Y-187413500D01*
X102041319Y-187413500D02*
X102088938Y-187508738D01*
X102088938Y-187508738D02*
X102136557Y-187556357D01*
X102136557Y-187556357D02*
X102231795Y-187603976D01*
X102231795Y-187603976D02*
X102327033Y-187603976D01*
X102327033Y-187603976D02*
X102469890Y-187556357D01*
X102469890Y-187556357D02*
X103041319Y-186984929D01*
X103041319Y-186984929D02*
X103041319Y-187603976D01*
X103041319Y-188080167D02*
X103041319Y-188270643D01*
X103041319Y-188270643D02*
X102993700Y-188365881D01*
X102993700Y-188365881D02*
X102946080Y-188413500D01*
X102946080Y-188413500D02*
X102803223Y-188508738D01*
X102803223Y-188508738D02*
X102612747Y-188556357D01*
X102612747Y-188556357D02*
X102231795Y-188556357D01*
X102231795Y-188556357D02*
X102136557Y-188508738D01*
X102136557Y-188508738D02*
X102088938Y-188461119D01*
X102088938Y-188461119D02*
X102041319Y-188365881D01*
X102041319Y-188365881D02*
X102041319Y-188175405D01*
X102041319Y-188175405D02*
X102088938Y-188080167D01*
X102088938Y-188080167D02*
X102136557Y-188032548D01*
X102136557Y-188032548D02*
X102231795Y-187984929D01*
X102231795Y-187984929D02*
X102469890Y-187984929D01*
X102469890Y-187984929D02*
X102565128Y-188032548D01*
X102565128Y-188032548D02*
X102612747Y-188080167D01*
X102612747Y-188080167D02*
X102660366Y-188175405D01*
X102660366Y-188175405D02*
X102660366Y-188365881D01*
X102660366Y-188365881D02*
X102612747Y-188461119D01*
X102612747Y-188461119D02*
X102565128Y-188508738D01*
X102565128Y-188508738D02*
X102469890Y-188556357D01*
X125226319Y-199582976D02*
X125940604Y-199582976D01*
X125940604Y-199582976D02*
X126083461Y-199535357D01*
X126083461Y-199535357D02*
X126178700Y-199440119D01*
X126178700Y-199440119D02*
X126226319Y-199297262D01*
X126226319Y-199297262D02*
X126226319Y-199202024D01*
X125321557Y-200011548D02*
X125273938Y-200059167D01*
X125273938Y-200059167D02*
X125226319Y-200154405D01*
X125226319Y-200154405D02*
X125226319Y-200392500D01*
X125226319Y-200392500D02*
X125273938Y-200487738D01*
X125273938Y-200487738D02*
X125321557Y-200535357D01*
X125321557Y-200535357D02*
X125416795Y-200582976D01*
X125416795Y-200582976D02*
X125512033Y-200582976D01*
X125512033Y-200582976D02*
X125654890Y-200535357D01*
X125654890Y-200535357D02*
X126226319Y-199963929D01*
X126226319Y-199963929D02*
X126226319Y-200582976D01*
X125321557Y-200963929D02*
X125273938Y-201011548D01*
X125273938Y-201011548D02*
X125226319Y-201106786D01*
X125226319Y-201106786D02*
X125226319Y-201344881D01*
X125226319Y-201344881D02*
X125273938Y-201440119D01*
X125273938Y-201440119D02*
X125321557Y-201487738D01*
X125321557Y-201487738D02*
X125416795Y-201535357D01*
X125416795Y-201535357D02*
X125512033Y-201535357D01*
X125512033Y-201535357D02*
X125654890Y-201487738D01*
X125654890Y-201487738D02*
X126226319Y-200916310D01*
X126226319Y-200916310D02*
X126226319Y-201535357D01*
X125226319Y-212409976D02*
X125940604Y-212409976D01*
X125940604Y-212409976D02*
X126083461Y-212362357D01*
X126083461Y-212362357D02*
X126178700Y-212267119D01*
X126178700Y-212267119D02*
X126226319Y-212124262D01*
X126226319Y-212124262D02*
X126226319Y-212029024D01*
X125321557Y-212838548D02*
X125273938Y-212886167D01*
X125273938Y-212886167D02*
X125226319Y-212981405D01*
X125226319Y-212981405D02*
X125226319Y-213219500D01*
X125226319Y-213219500D02*
X125273938Y-213314738D01*
X125273938Y-213314738D02*
X125321557Y-213362357D01*
X125321557Y-213362357D02*
X125416795Y-213409976D01*
X125416795Y-213409976D02*
X125512033Y-213409976D01*
X125512033Y-213409976D02*
X125654890Y-213362357D01*
X125654890Y-213362357D02*
X126226319Y-212790929D01*
X126226319Y-212790929D02*
X126226319Y-213409976D01*
X125226319Y-213743310D02*
X125226319Y-214362357D01*
X125226319Y-214362357D02*
X125607271Y-214029024D01*
X125607271Y-214029024D02*
X125607271Y-214171881D01*
X125607271Y-214171881D02*
X125654890Y-214267119D01*
X125654890Y-214267119D02*
X125702509Y-214314738D01*
X125702509Y-214314738D02*
X125797747Y-214362357D01*
X125797747Y-214362357D02*
X126035842Y-214362357D01*
X126035842Y-214362357D02*
X126131080Y-214314738D01*
X126131080Y-214314738D02*
X126178700Y-214267119D01*
X126178700Y-214267119D02*
X126226319Y-214171881D01*
X126226319Y-214171881D02*
X126226319Y-213886167D01*
X126226319Y-213886167D02*
X126178700Y-213790929D01*
X126178700Y-213790929D02*
X126131080Y-213743310D01*
X107898833Y-74832938D02*
X107994071Y-74785319D01*
X107994071Y-74785319D02*
X108136928Y-74785319D01*
X108136928Y-74785319D02*
X108279785Y-74832938D01*
X108279785Y-74832938D02*
X108375023Y-74928176D01*
X108375023Y-74928176D02*
X108422642Y-75023414D01*
X108422642Y-75023414D02*
X108470261Y-75213890D01*
X108470261Y-75213890D02*
X108470261Y-75356747D01*
X108470261Y-75356747D02*
X108422642Y-75547223D01*
X108422642Y-75547223D02*
X108375023Y-75642461D01*
X108375023Y-75642461D02*
X108279785Y-75737700D01*
X108279785Y-75737700D02*
X108136928Y-75785319D01*
X108136928Y-75785319D02*
X108041690Y-75785319D01*
X108041690Y-75785319D02*
X107898833Y-75737700D01*
X107898833Y-75737700D02*
X107851214Y-75690080D01*
X107851214Y-75690080D02*
X107851214Y-75356747D01*
X107851214Y-75356747D02*
X108041690Y-75356747D01*
X107279785Y-75785319D02*
X107375023Y-75737700D01*
X107375023Y-75737700D02*
X107422642Y-75642461D01*
X107422642Y-75642461D02*
X107422642Y-74785319D01*
X106755975Y-75785319D02*
X106851213Y-75737700D01*
X106851213Y-75737700D02*
X106898832Y-75690080D01*
X106898832Y-75690080D02*
X106946451Y-75594842D01*
X106946451Y-75594842D02*
X106946451Y-75309128D01*
X106946451Y-75309128D02*
X106898832Y-75213890D01*
X106898832Y-75213890D02*
X106851213Y-75166271D01*
X106851213Y-75166271D02*
X106755975Y-75118652D01*
X106755975Y-75118652D02*
X106613118Y-75118652D01*
X106613118Y-75118652D02*
X106517880Y-75166271D01*
X106517880Y-75166271D02*
X106470261Y-75213890D01*
X106470261Y-75213890D02*
X106422642Y-75309128D01*
X106422642Y-75309128D02*
X106422642Y-75594842D01*
X106422642Y-75594842D02*
X106470261Y-75690080D01*
X106470261Y-75690080D02*
X106517880Y-75737700D01*
X106517880Y-75737700D02*
X106613118Y-75785319D01*
X106613118Y-75785319D02*
X106755975Y-75785319D01*
X106089308Y-75118652D02*
X105898832Y-75785319D01*
X105898832Y-75785319D02*
X105708356Y-75309128D01*
X105708356Y-75309128D02*
X105517880Y-75785319D01*
X105517880Y-75785319D02*
X105327404Y-75118652D01*
X104946451Y-75118652D02*
X104946451Y-75785319D01*
X104946451Y-75213890D02*
X104898832Y-75166271D01*
X104898832Y-75166271D02*
X104803594Y-75118652D01*
X104803594Y-75118652D02*
X104660737Y-75118652D01*
X104660737Y-75118652D02*
X104565499Y-75166271D01*
X104565499Y-75166271D02*
X104517880Y-75261509D01*
X104517880Y-75261509D02*
X104517880Y-75785319D01*
X103660737Y-75737700D02*
X103755975Y-75785319D01*
X103755975Y-75785319D02*
X103946451Y-75785319D01*
X103946451Y-75785319D02*
X104041689Y-75737700D01*
X104041689Y-75737700D02*
X104089308Y-75642461D01*
X104089308Y-75642461D02*
X104089308Y-75261509D01*
X104089308Y-75261509D02*
X104041689Y-75166271D01*
X104041689Y-75166271D02*
X103946451Y-75118652D01*
X103946451Y-75118652D02*
X103755975Y-75118652D01*
X103755975Y-75118652D02*
X103660737Y-75166271D01*
X103660737Y-75166271D02*
X103613118Y-75261509D01*
X103613118Y-75261509D02*
X103613118Y-75356747D01*
X103613118Y-75356747D02*
X104089308Y-75451985D01*
X102660737Y-75785319D02*
X103232165Y-75785319D01*
X102946451Y-75785319D02*
X102946451Y-74785319D01*
X102946451Y-74785319D02*
X103041689Y-74928176D01*
X103041689Y-74928176D02*
X103136927Y-75023414D01*
X103136927Y-75023414D02*
X103232165Y-75071033D01*
X102295319Y-135422976D02*
X103009604Y-135422976D01*
X103009604Y-135422976D02*
X103152461Y-135375357D01*
X103152461Y-135375357D02*
X103247700Y-135280119D01*
X103247700Y-135280119D02*
X103295319Y-135137262D01*
X103295319Y-135137262D02*
X103295319Y-135042024D01*
X102390557Y-135851548D02*
X102342938Y-135899167D01*
X102342938Y-135899167D02*
X102295319Y-135994405D01*
X102295319Y-135994405D02*
X102295319Y-136232500D01*
X102295319Y-136232500D02*
X102342938Y-136327738D01*
X102342938Y-136327738D02*
X102390557Y-136375357D01*
X102390557Y-136375357D02*
X102485795Y-136422976D01*
X102485795Y-136422976D02*
X102581033Y-136422976D01*
X102581033Y-136422976D02*
X102723890Y-136375357D01*
X102723890Y-136375357D02*
X103295319Y-135803929D01*
X103295319Y-135803929D02*
X103295319Y-136422976D01*
X102295319Y-137327738D02*
X102295319Y-136851548D01*
X102295319Y-136851548D02*
X102771509Y-136803929D01*
X102771509Y-136803929D02*
X102723890Y-136851548D01*
X102723890Y-136851548D02*
X102676271Y-136946786D01*
X102676271Y-136946786D02*
X102676271Y-137184881D01*
X102676271Y-137184881D02*
X102723890Y-137280119D01*
X102723890Y-137280119D02*
X102771509Y-137327738D01*
X102771509Y-137327738D02*
X102866747Y-137375357D01*
X102866747Y-137375357D02*
X103104842Y-137375357D01*
X103104842Y-137375357D02*
X103200080Y-137327738D01*
X103200080Y-137327738D02*
X103247700Y-137280119D01*
X103247700Y-137280119D02*
X103295319Y-137184881D01*
X103295319Y-137184881D02*
X103295319Y-136946786D01*
X103295319Y-136946786D02*
X103247700Y-136851548D01*
X103247700Y-136851548D02*
X103200080Y-136803929D01*
X72712976Y-113878604D02*
X72236786Y-113878604D01*
X72808214Y-114164319D02*
X72474881Y-113164319D01*
X72474881Y-113164319D02*
X72141548Y-114164319D01*
X71808214Y-113497652D02*
X71808214Y-114164319D01*
X71808214Y-113592890D02*
X71760595Y-113545271D01*
X71760595Y-113545271D02*
X71665357Y-113497652D01*
X71665357Y-113497652D02*
X71522500Y-113497652D01*
X71522500Y-113497652D02*
X71427262Y-113545271D01*
X71427262Y-113545271D02*
X71379643Y-113640509D01*
X71379643Y-113640509D02*
X71379643Y-114164319D01*
X70474881Y-114164319D02*
X70474881Y-113640509D01*
X70474881Y-113640509D02*
X70522500Y-113545271D01*
X70522500Y-113545271D02*
X70617738Y-113497652D01*
X70617738Y-113497652D02*
X70808214Y-113497652D01*
X70808214Y-113497652D02*
X70903452Y-113545271D01*
X70474881Y-114116700D02*
X70570119Y-114164319D01*
X70570119Y-114164319D02*
X70808214Y-114164319D01*
X70808214Y-114164319D02*
X70903452Y-114116700D01*
X70903452Y-114116700D02*
X70951071Y-114021461D01*
X70951071Y-114021461D02*
X70951071Y-113926223D01*
X70951071Y-113926223D02*
X70903452Y-113830985D01*
X70903452Y-113830985D02*
X70808214Y-113783366D01*
X70808214Y-113783366D02*
X70570119Y-113783366D01*
X70570119Y-113783366D02*
X70474881Y-113735747D01*
X69855833Y-114164319D02*
X69951071Y-114116700D01*
X69951071Y-114116700D02*
X69998690Y-114021461D01*
X69998690Y-114021461D02*
X69998690Y-113164319D01*
X69332023Y-114164319D02*
X69427261Y-114116700D01*
X69427261Y-114116700D02*
X69474880Y-114069080D01*
X69474880Y-114069080D02*
X69522499Y-113973842D01*
X69522499Y-113973842D02*
X69522499Y-113688128D01*
X69522499Y-113688128D02*
X69474880Y-113592890D01*
X69474880Y-113592890D02*
X69427261Y-113545271D01*
X69427261Y-113545271D02*
X69332023Y-113497652D01*
X69332023Y-113497652D02*
X69189166Y-113497652D01*
X69189166Y-113497652D02*
X69093928Y-113545271D01*
X69093928Y-113545271D02*
X69046309Y-113592890D01*
X69046309Y-113592890D02*
X68998690Y-113688128D01*
X68998690Y-113688128D02*
X68998690Y-113973842D01*
X68998690Y-113973842D02*
X69046309Y-114069080D01*
X69046309Y-114069080D02*
X69093928Y-114116700D01*
X69093928Y-114116700D02*
X69189166Y-114164319D01*
X69189166Y-114164319D02*
X69332023Y-114164319D01*
X68141547Y-113497652D02*
X68141547Y-114307176D01*
X68141547Y-114307176D02*
X68189166Y-114402414D01*
X68189166Y-114402414D02*
X68236785Y-114450033D01*
X68236785Y-114450033D02*
X68332023Y-114497652D01*
X68332023Y-114497652D02*
X68474880Y-114497652D01*
X68474880Y-114497652D02*
X68570118Y-114450033D01*
X68141547Y-114116700D02*
X68236785Y-114164319D01*
X68236785Y-114164319D02*
X68427261Y-114164319D01*
X68427261Y-114164319D02*
X68522499Y-114116700D01*
X68522499Y-114116700D02*
X68570118Y-114069080D01*
X68570118Y-114069080D02*
X68617737Y-113973842D01*
X68617737Y-113973842D02*
X68617737Y-113688128D01*
X68617737Y-113688128D02*
X68570118Y-113592890D01*
X68570118Y-113592890D02*
X68522499Y-113545271D01*
X68522499Y-113545271D02*
X68427261Y-113497652D01*
X68427261Y-113497652D02*
X68236785Y-113497652D01*
X68236785Y-113497652D02*
X68141547Y-113545271D01*
X67189166Y-114164319D02*
X67665356Y-114164319D01*
X67665356Y-114164319D02*
X67665356Y-113164319D01*
X66951070Y-113164319D02*
X66332023Y-113164319D01*
X66332023Y-113164319D02*
X66665356Y-113545271D01*
X66665356Y-113545271D02*
X66522499Y-113545271D01*
X66522499Y-113545271D02*
X66427261Y-113592890D01*
X66427261Y-113592890D02*
X66379642Y-113640509D01*
X66379642Y-113640509D02*
X66332023Y-113735747D01*
X66332023Y-113735747D02*
X66332023Y-113973842D01*
X66332023Y-113973842D02*
X66379642Y-114069080D01*
X66379642Y-114069080D02*
X66427261Y-114116700D01*
X66427261Y-114116700D02*
X66522499Y-114164319D01*
X66522499Y-114164319D02*
X66808213Y-114164319D01*
X66808213Y-114164319D02*
X66903451Y-114116700D01*
X66903451Y-114116700D02*
X66951070Y-114069080D01*
X125226319Y-160974976D02*
X125940604Y-160974976D01*
X125940604Y-160974976D02*
X126083461Y-160927357D01*
X126083461Y-160927357D02*
X126178700Y-160832119D01*
X126178700Y-160832119D02*
X126226319Y-160689262D01*
X126226319Y-160689262D02*
X126226319Y-160594024D01*
X126226319Y-161974976D02*
X126226319Y-161403548D01*
X126226319Y-161689262D02*
X125226319Y-161689262D01*
X125226319Y-161689262D02*
X125369176Y-161594024D01*
X125369176Y-161594024D02*
X125464414Y-161498786D01*
X125464414Y-161498786D02*
X125512033Y-161403548D01*
X126226319Y-162451167D02*
X126226319Y-162641643D01*
X126226319Y-162641643D02*
X126178700Y-162736881D01*
X126178700Y-162736881D02*
X126131080Y-162784500D01*
X126131080Y-162784500D02*
X125988223Y-162879738D01*
X125988223Y-162879738D02*
X125797747Y-162927357D01*
X125797747Y-162927357D02*
X125416795Y-162927357D01*
X125416795Y-162927357D02*
X125321557Y-162879738D01*
X125321557Y-162879738D02*
X125273938Y-162832119D01*
X125273938Y-162832119D02*
X125226319Y-162736881D01*
X125226319Y-162736881D02*
X125226319Y-162546405D01*
X125226319Y-162546405D02*
X125273938Y-162451167D01*
X125273938Y-162451167D02*
X125321557Y-162403548D01*
X125321557Y-162403548D02*
X125416795Y-162355929D01*
X125416795Y-162355929D02*
X125654890Y-162355929D01*
X125654890Y-162355929D02*
X125750128Y-162403548D01*
X125750128Y-162403548D02*
X125797747Y-162451167D01*
X125797747Y-162451167D02*
X125845366Y-162546405D01*
X125845366Y-162546405D02*
X125845366Y-162736881D01*
X125845366Y-162736881D02*
X125797747Y-162832119D01*
X125797747Y-162832119D02*
X125750128Y-162879738D01*
X125750128Y-162879738D02*
X125654890Y-162927357D01*
X125226319Y-135320976D02*
X125940604Y-135320976D01*
X125940604Y-135320976D02*
X126083461Y-135273357D01*
X126083461Y-135273357D02*
X126178700Y-135178119D01*
X126178700Y-135178119D02*
X126226319Y-135035262D01*
X126226319Y-135035262D02*
X126226319Y-134940024D01*
X126226319Y-136320976D02*
X126226319Y-135749548D01*
X126226319Y-136035262D02*
X125226319Y-136035262D01*
X125226319Y-136035262D02*
X125369176Y-135940024D01*
X125369176Y-135940024D02*
X125464414Y-135844786D01*
X125464414Y-135844786D02*
X125512033Y-135749548D01*
X125226319Y-136654310D02*
X125226319Y-137320976D01*
X125226319Y-137320976D02*
X126226319Y-136892405D01*
X102168319Y-173776976D02*
X102882604Y-173776976D01*
X102882604Y-173776976D02*
X103025461Y-173729357D01*
X103025461Y-173729357D02*
X103120700Y-173634119D01*
X103120700Y-173634119D02*
X103168319Y-173491262D01*
X103168319Y-173491262D02*
X103168319Y-173396024D01*
X102263557Y-174205548D02*
X102215938Y-174253167D01*
X102215938Y-174253167D02*
X102168319Y-174348405D01*
X102168319Y-174348405D02*
X102168319Y-174586500D01*
X102168319Y-174586500D02*
X102215938Y-174681738D01*
X102215938Y-174681738D02*
X102263557Y-174729357D01*
X102263557Y-174729357D02*
X102358795Y-174776976D01*
X102358795Y-174776976D02*
X102454033Y-174776976D01*
X102454033Y-174776976D02*
X102596890Y-174729357D01*
X102596890Y-174729357D02*
X103168319Y-174157929D01*
X103168319Y-174157929D02*
X103168319Y-174776976D01*
X102596890Y-175348405D02*
X102549271Y-175253167D01*
X102549271Y-175253167D02*
X102501652Y-175205548D01*
X102501652Y-175205548D02*
X102406414Y-175157929D01*
X102406414Y-175157929D02*
X102358795Y-175157929D01*
X102358795Y-175157929D02*
X102263557Y-175205548D01*
X102263557Y-175205548D02*
X102215938Y-175253167D01*
X102215938Y-175253167D02*
X102168319Y-175348405D01*
X102168319Y-175348405D02*
X102168319Y-175538881D01*
X102168319Y-175538881D02*
X102215938Y-175634119D01*
X102215938Y-175634119D02*
X102263557Y-175681738D01*
X102263557Y-175681738D02*
X102358795Y-175729357D01*
X102358795Y-175729357D02*
X102406414Y-175729357D01*
X102406414Y-175729357D02*
X102501652Y-175681738D01*
X102501652Y-175681738D02*
X102549271Y-175634119D01*
X102549271Y-175634119D02*
X102596890Y-175538881D01*
X102596890Y-175538881D02*
X102596890Y-175348405D01*
X102596890Y-175348405D02*
X102644509Y-175253167D01*
X102644509Y-175253167D02*
X102692128Y-175205548D01*
X102692128Y-175205548D02*
X102787366Y-175157929D01*
X102787366Y-175157929D02*
X102977842Y-175157929D01*
X102977842Y-175157929D02*
X103073080Y-175205548D01*
X103073080Y-175205548D02*
X103120700Y-175253167D01*
X103120700Y-175253167D02*
X103168319Y-175348405D01*
X103168319Y-175348405D02*
X103168319Y-175538881D01*
X103168319Y-175538881D02*
X103120700Y-175634119D01*
X103120700Y-175634119D02*
X103073080Y-175681738D01*
X103073080Y-175681738D02*
X102977842Y-175729357D01*
X102977842Y-175729357D02*
X102787366Y-175729357D01*
X102787366Y-175729357D02*
X102692128Y-175681738D01*
X102692128Y-175681738D02*
X102644509Y-175634119D01*
X102644509Y-175634119D02*
X102596890Y-175538881D01*
X148571880Y-114164319D02*
X148571880Y-113164319D01*
X148143309Y-113259557D02*
X148095690Y-113211938D01*
X148095690Y-113211938D02*
X148000452Y-113164319D01*
X148000452Y-113164319D02*
X147762357Y-113164319D01*
X147762357Y-113164319D02*
X147667119Y-113211938D01*
X147667119Y-113211938D02*
X147619500Y-113259557D01*
X147619500Y-113259557D02*
X147571881Y-113354795D01*
X147571881Y-113354795D02*
X147571881Y-113450033D01*
X147571881Y-113450033D02*
X147619500Y-113592890D01*
X147619500Y-113592890D02*
X148190928Y-114164319D01*
X148190928Y-114164319D02*
X147571881Y-114164319D01*
X146571881Y-114069080D02*
X146619500Y-114116700D01*
X146619500Y-114116700D02*
X146762357Y-114164319D01*
X146762357Y-114164319D02*
X146857595Y-114164319D01*
X146857595Y-114164319D02*
X147000452Y-114116700D01*
X147000452Y-114116700D02*
X147095690Y-114021461D01*
X147095690Y-114021461D02*
X147143309Y-113926223D01*
X147143309Y-113926223D02*
X147190928Y-113735747D01*
X147190928Y-113735747D02*
X147190928Y-113592890D01*
X147190928Y-113592890D02*
X147143309Y-113402414D01*
X147143309Y-113402414D02*
X147095690Y-113307176D01*
X147095690Y-113307176D02*
X147000452Y-113211938D01*
X147000452Y-113211938D02*
X146857595Y-113164319D01*
X146857595Y-113164319D02*
X146762357Y-113164319D01*
X146762357Y-113164319D02*
X146619500Y-113211938D01*
X146619500Y-113211938D02*
X146571881Y-113259557D01*
X146238547Y-113164319D02*
X145619500Y-113164319D01*
X145619500Y-113164319D02*
X145952833Y-113545271D01*
X145952833Y-113545271D02*
X145809976Y-113545271D01*
X145809976Y-113545271D02*
X145714738Y-113592890D01*
X145714738Y-113592890D02*
X145667119Y-113640509D01*
X145667119Y-113640509D02*
X145619500Y-113735747D01*
X145619500Y-113735747D02*
X145619500Y-113973842D01*
X145619500Y-113973842D02*
X145667119Y-114069080D01*
X145667119Y-114069080D02*
X145714738Y-114116700D01*
X145714738Y-114116700D02*
X145809976Y-114164319D01*
X145809976Y-114164319D02*
X146095690Y-114164319D01*
X146095690Y-114164319D02*
X146190928Y-114116700D01*
X146190928Y-114116700D02*
X146238547Y-114069080D01*
X72712976Y-85684604D02*
X72236786Y-85684604D01*
X72808214Y-85970319D02*
X72474881Y-84970319D01*
X72474881Y-84970319D02*
X72141548Y-85970319D01*
X71808214Y-85303652D02*
X71808214Y-85970319D01*
X71808214Y-85398890D02*
X71760595Y-85351271D01*
X71760595Y-85351271D02*
X71665357Y-85303652D01*
X71665357Y-85303652D02*
X71522500Y-85303652D01*
X71522500Y-85303652D02*
X71427262Y-85351271D01*
X71427262Y-85351271D02*
X71379643Y-85446509D01*
X71379643Y-85446509D02*
X71379643Y-85970319D01*
X70474881Y-85970319D02*
X70474881Y-85446509D01*
X70474881Y-85446509D02*
X70522500Y-85351271D01*
X70522500Y-85351271D02*
X70617738Y-85303652D01*
X70617738Y-85303652D02*
X70808214Y-85303652D01*
X70808214Y-85303652D02*
X70903452Y-85351271D01*
X70474881Y-85922700D02*
X70570119Y-85970319D01*
X70570119Y-85970319D02*
X70808214Y-85970319D01*
X70808214Y-85970319D02*
X70903452Y-85922700D01*
X70903452Y-85922700D02*
X70951071Y-85827461D01*
X70951071Y-85827461D02*
X70951071Y-85732223D01*
X70951071Y-85732223D02*
X70903452Y-85636985D01*
X70903452Y-85636985D02*
X70808214Y-85589366D01*
X70808214Y-85589366D02*
X70570119Y-85589366D01*
X70570119Y-85589366D02*
X70474881Y-85541747D01*
X69855833Y-85970319D02*
X69951071Y-85922700D01*
X69951071Y-85922700D02*
X69998690Y-85827461D01*
X69998690Y-85827461D02*
X69998690Y-84970319D01*
X69332023Y-85970319D02*
X69427261Y-85922700D01*
X69427261Y-85922700D02*
X69474880Y-85875080D01*
X69474880Y-85875080D02*
X69522499Y-85779842D01*
X69522499Y-85779842D02*
X69522499Y-85494128D01*
X69522499Y-85494128D02*
X69474880Y-85398890D01*
X69474880Y-85398890D02*
X69427261Y-85351271D01*
X69427261Y-85351271D02*
X69332023Y-85303652D01*
X69332023Y-85303652D02*
X69189166Y-85303652D01*
X69189166Y-85303652D02*
X69093928Y-85351271D01*
X69093928Y-85351271D02*
X69046309Y-85398890D01*
X69046309Y-85398890D02*
X68998690Y-85494128D01*
X68998690Y-85494128D02*
X68998690Y-85779842D01*
X68998690Y-85779842D02*
X69046309Y-85875080D01*
X69046309Y-85875080D02*
X69093928Y-85922700D01*
X69093928Y-85922700D02*
X69189166Y-85970319D01*
X69189166Y-85970319D02*
X69332023Y-85970319D01*
X68141547Y-85303652D02*
X68141547Y-86113176D01*
X68141547Y-86113176D02*
X68189166Y-86208414D01*
X68189166Y-86208414D02*
X68236785Y-86256033D01*
X68236785Y-86256033D02*
X68332023Y-86303652D01*
X68332023Y-86303652D02*
X68474880Y-86303652D01*
X68474880Y-86303652D02*
X68570118Y-86256033D01*
X68141547Y-85922700D02*
X68236785Y-85970319D01*
X68236785Y-85970319D02*
X68427261Y-85970319D01*
X68427261Y-85970319D02*
X68522499Y-85922700D01*
X68522499Y-85922700D02*
X68570118Y-85875080D01*
X68570118Y-85875080D02*
X68617737Y-85779842D01*
X68617737Y-85779842D02*
X68617737Y-85494128D01*
X68617737Y-85494128D02*
X68570118Y-85398890D01*
X68570118Y-85398890D02*
X68522499Y-85351271D01*
X68522499Y-85351271D02*
X68427261Y-85303652D01*
X68427261Y-85303652D02*
X68236785Y-85303652D01*
X68236785Y-85303652D02*
X68141547Y-85351271D01*
X67189166Y-85970319D02*
X67665356Y-85970319D01*
X67665356Y-85970319D02*
X67665356Y-84970319D01*
X66332023Y-85970319D02*
X66903451Y-85970319D01*
X66617737Y-85970319D02*
X66617737Y-84970319D01*
X66617737Y-84970319D02*
X66712975Y-85113176D01*
X66712975Y-85113176D02*
X66808213Y-85208414D01*
X66808213Y-85208414D02*
X66903451Y-85256033D01*
X125099319Y-148147976D02*
X125813604Y-148147976D01*
X125813604Y-148147976D02*
X125956461Y-148100357D01*
X125956461Y-148100357D02*
X126051700Y-148005119D01*
X126051700Y-148005119D02*
X126099319Y-147862262D01*
X126099319Y-147862262D02*
X126099319Y-147767024D01*
X126099319Y-149147976D02*
X126099319Y-148576548D01*
X126099319Y-148862262D02*
X125099319Y-148862262D01*
X125099319Y-148862262D02*
X125242176Y-148767024D01*
X125242176Y-148767024D02*
X125337414Y-148671786D01*
X125337414Y-148671786D02*
X125385033Y-148576548D01*
X125527890Y-149719405D02*
X125480271Y-149624167D01*
X125480271Y-149624167D02*
X125432652Y-149576548D01*
X125432652Y-149576548D02*
X125337414Y-149528929D01*
X125337414Y-149528929D02*
X125289795Y-149528929D01*
X125289795Y-149528929D02*
X125194557Y-149576548D01*
X125194557Y-149576548D02*
X125146938Y-149624167D01*
X125146938Y-149624167D02*
X125099319Y-149719405D01*
X125099319Y-149719405D02*
X125099319Y-149909881D01*
X125099319Y-149909881D02*
X125146938Y-150005119D01*
X125146938Y-150005119D02*
X125194557Y-150052738D01*
X125194557Y-150052738D02*
X125289795Y-150100357D01*
X125289795Y-150100357D02*
X125337414Y-150100357D01*
X125337414Y-150100357D02*
X125432652Y-150052738D01*
X125432652Y-150052738D02*
X125480271Y-150005119D01*
X125480271Y-150005119D02*
X125527890Y-149909881D01*
X125527890Y-149909881D02*
X125527890Y-149719405D01*
X125527890Y-149719405D02*
X125575509Y-149624167D01*
X125575509Y-149624167D02*
X125623128Y-149576548D01*
X125623128Y-149576548D02*
X125718366Y-149528929D01*
X125718366Y-149528929D02*
X125908842Y-149528929D01*
X125908842Y-149528929D02*
X126004080Y-149576548D01*
X126004080Y-149576548D02*
X126051700Y-149624167D01*
X126051700Y-149624167D02*
X126099319Y-149719405D01*
X126099319Y-149719405D02*
X126099319Y-149909881D01*
X126099319Y-149909881D02*
X126051700Y-150005119D01*
X126051700Y-150005119D02*
X126004080Y-150052738D01*
X126004080Y-150052738D02*
X125908842Y-150100357D01*
X125908842Y-150100357D02*
X125718366Y-150100357D01*
X125718366Y-150100357D02*
X125623128Y-150052738D01*
X125623128Y-150052738D02*
X125575509Y-150005119D01*
X125575509Y-150005119D02*
X125527890Y-149909881D01*
X70172976Y-85684604D02*
X69696786Y-85684604D01*
X70268214Y-85970319D02*
X69934881Y-84970319D01*
X69934881Y-84970319D02*
X69601548Y-85970319D01*
X69268214Y-85303652D02*
X69268214Y-85970319D01*
X69268214Y-85398890D02*
X69220595Y-85351271D01*
X69220595Y-85351271D02*
X69125357Y-85303652D01*
X69125357Y-85303652D02*
X68982500Y-85303652D01*
X68982500Y-85303652D02*
X68887262Y-85351271D01*
X68887262Y-85351271D02*
X68839643Y-85446509D01*
X68839643Y-85446509D02*
X68839643Y-85970319D01*
X67934881Y-85970319D02*
X67934881Y-85446509D01*
X67934881Y-85446509D02*
X67982500Y-85351271D01*
X67982500Y-85351271D02*
X68077738Y-85303652D01*
X68077738Y-85303652D02*
X68268214Y-85303652D01*
X68268214Y-85303652D02*
X68363452Y-85351271D01*
X67934881Y-85922700D02*
X68030119Y-85970319D01*
X68030119Y-85970319D02*
X68268214Y-85970319D01*
X68268214Y-85970319D02*
X68363452Y-85922700D01*
X68363452Y-85922700D02*
X68411071Y-85827461D01*
X68411071Y-85827461D02*
X68411071Y-85732223D01*
X68411071Y-85732223D02*
X68363452Y-85636985D01*
X68363452Y-85636985D02*
X68268214Y-85589366D01*
X68268214Y-85589366D02*
X68030119Y-85589366D01*
X68030119Y-85589366D02*
X67934881Y-85541747D01*
X67315833Y-85970319D02*
X67411071Y-85922700D01*
X67411071Y-85922700D02*
X67458690Y-85827461D01*
X67458690Y-85827461D02*
X67458690Y-84970319D01*
X66792023Y-85970319D02*
X66887261Y-85922700D01*
X66887261Y-85922700D02*
X66934880Y-85875080D01*
X66934880Y-85875080D02*
X66982499Y-85779842D01*
X66982499Y-85779842D02*
X66982499Y-85494128D01*
X66982499Y-85494128D02*
X66934880Y-85398890D01*
X66934880Y-85398890D02*
X66887261Y-85351271D01*
X66887261Y-85351271D02*
X66792023Y-85303652D01*
X66792023Y-85303652D02*
X66649166Y-85303652D01*
X66649166Y-85303652D02*
X66553928Y-85351271D01*
X66553928Y-85351271D02*
X66506309Y-85398890D01*
X66506309Y-85398890D02*
X66458690Y-85494128D01*
X66458690Y-85494128D02*
X66458690Y-85779842D01*
X66458690Y-85779842D02*
X66506309Y-85875080D01*
X66506309Y-85875080D02*
X66553928Y-85922700D01*
X66553928Y-85922700D02*
X66649166Y-85970319D01*
X66649166Y-85970319D02*
X66792023Y-85970319D01*
X65601547Y-85303652D02*
X65601547Y-86113176D01*
X65601547Y-86113176D02*
X65649166Y-86208414D01*
X65649166Y-86208414D02*
X65696785Y-86256033D01*
X65696785Y-86256033D02*
X65792023Y-86303652D01*
X65792023Y-86303652D02*
X65934880Y-86303652D01*
X65934880Y-86303652D02*
X66030118Y-86256033D01*
X65601547Y-85922700D02*
X65696785Y-85970319D01*
X65696785Y-85970319D02*
X65887261Y-85970319D01*
X65887261Y-85970319D02*
X65982499Y-85922700D01*
X65982499Y-85922700D02*
X66030118Y-85875080D01*
X66030118Y-85875080D02*
X66077737Y-85779842D01*
X66077737Y-85779842D02*
X66077737Y-85494128D01*
X66077737Y-85494128D02*
X66030118Y-85398890D01*
X66030118Y-85398890D02*
X65982499Y-85351271D01*
X65982499Y-85351271D02*
X65887261Y-85303652D01*
X65887261Y-85303652D02*
X65696785Y-85303652D01*
X65696785Y-85303652D02*
X65601547Y-85351271D01*
X64649166Y-85970319D02*
X65125356Y-85970319D01*
X65125356Y-85970319D02*
X65125356Y-84970319D01*
X64363451Y-85065557D02*
X64315832Y-85017938D01*
X64315832Y-85017938D02*
X64220594Y-84970319D01*
X64220594Y-84970319D02*
X63982499Y-84970319D01*
X63982499Y-84970319D02*
X63887261Y-85017938D01*
X63887261Y-85017938D02*
X63839642Y-85065557D01*
X63839642Y-85065557D02*
X63792023Y-85160795D01*
X63792023Y-85160795D02*
X63792023Y-85256033D01*
X63792023Y-85256033D02*
X63839642Y-85398890D01*
X63839642Y-85398890D02*
X64411070Y-85970319D01*
X64411070Y-85970319D02*
X63792023Y-85970319D01*
X148571880Y-85970319D02*
X148571880Y-84970319D01*
X148143309Y-85065557D02*
X148095690Y-85017938D01*
X148095690Y-85017938D02*
X148000452Y-84970319D01*
X148000452Y-84970319D02*
X147762357Y-84970319D01*
X147762357Y-84970319D02*
X147667119Y-85017938D01*
X147667119Y-85017938D02*
X147619500Y-85065557D01*
X147619500Y-85065557D02*
X147571881Y-85160795D01*
X147571881Y-85160795D02*
X147571881Y-85256033D01*
X147571881Y-85256033D02*
X147619500Y-85398890D01*
X147619500Y-85398890D02*
X148190928Y-85970319D01*
X148190928Y-85970319D02*
X147571881Y-85970319D01*
X146571881Y-85875080D02*
X146619500Y-85922700D01*
X146619500Y-85922700D02*
X146762357Y-85970319D01*
X146762357Y-85970319D02*
X146857595Y-85970319D01*
X146857595Y-85970319D02*
X147000452Y-85922700D01*
X147000452Y-85922700D02*
X147095690Y-85827461D01*
X147095690Y-85827461D02*
X147143309Y-85732223D01*
X147143309Y-85732223D02*
X147190928Y-85541747D01*
X147190928Y-85541747D02*
X147190928Y-85398890D01*
X147190928Y-85398890D02*
X147143309Y-85208414D01*
X147143309Y-85208414D02*
X147095690Y-85113176D01*
X147095690Y-85113176D02*
X147000452Y-85017938D01*
X147000452Y-85017938D02*
X146857595Y-84970319D01*
X146857595Y-84970319D02*
X146762357Y-84970319D01*
X146762357Y-84970319D02*
X146619500Y-85017938D01*
X146619500Y-85017938D02*
X146571881Y-85065557D01*
X146190928Y-85065557D02*
X146143309Y-85017938D01*
X146143309Y-85017938D02*
X146048071Y-84970319D01*
X146048071Y-84970319D02*
X145809976Y-84970319D01*
X145809976Y-84970319D02*
X145714738Y-85017938D01*
X145714738Y-85017938D02*
X145667119Y-85065557D01*
X145667119Y-85065557D02*
X145619500Y-85160795D01*
X145619500Y-85160795D02*
X145619500Y-85256033D01*
X145619500Y-85256033D02*
X145667119Y-85398890D01*
X145667119Y-85398890D02*
X146238547Y-85970319D01*
X146238547Y-85970319D02*
X145619500Y-85970319D01*
X125140319Y-69899072D02*
X125140319Y-70518119D01*
X125140319Y-70518119D02*
X125521271Y-70184786D01*
X125521271Y-70184786D02*
X125521271Y-70327643D01*
X125521271Y-70327643D02*
X125568890Y-70422881D01*
X125568890Y-70422881D02*
X125616509Y-70470500D01*
X125616509Y-70470500D02*
X125711747Y-70518119D01*
X125711747Y-70518119D02*
X125949842Y-70518119D01*
X125949842Y-70518119D02*
X126045080Y-70470500D01*
X126045080Y-70470500D02*
X126092700Y-70422881D01*
X126092700Y-70422881D02*
X126140319Y-70327643D01*
X126140319Y-70327643D02*
X126140319Y-70041929D01*
X126140319Y-70041929D02*
X126092700Y-69946691D01*
X126092700Y-69946691D02*
X126045080Y-69899072D01*
X126140319Y-70946691D02*
X125140319Y-70946691D01*
X125140319Y-70946691D02*
X125140319Y-71327643D01*
X125140319Y-71327643D02*
X125187938Y-71422881D01*
X125187938Y-71422881D02*
X125235557Y-71470500D01*
X125235557Y-71470500D02*
X125330795Y-71518119D01*
X125330795Y-71518119D02*
X125473652Y-71518119D01*
X125473652Y-71518119D02*
X125568890Y-71470500D01*
X125568890Y-71470500D02*
X125616509Y-71422881D01*
X125616509Y-71422881D02*
X125664128Y-71327643D01*
X125664128Y-71327643D02*
X125664128Y-70946691D01*
X126140319Y-71946691D02*
X125140319Y-71946691D01*
X126140319Y-72422881D02*
X125140319Y-72422881D01*
X125140319Y-72422881D02*
X126140319Y-72994309D01*
X126140319Y-72994309D02*
X125140319Y-72994309D01*
X125235557Y-73422881D02*
X125187938Y-73470500D01*
X125187938Y-73470500D02*
X125140319Y-73565738D01*
X125140319Y-73565738D02*
X125140319Y-73803833D01*
X125140319Y-73803833D02*
X125187938Y-73899071D01*
X125187938Y-73899071D02*
X125235557Y-73946690D01*
X125235557Y-73946690D02*
X125330795Y-73994309D01*
X125330795Y-73994309D02*
X125426033Y-73994309D01*
X125426033Y-73994309D02*
X125568890Y-73946690D01*
X125568890Y-73946690D02*
X126140319Y-73375262D01*
X126140319Y-73375262D02*
X126140319Y-73994309D01*
X102295319Y-122595976D02*
X103009604Y-122595976D01*
X103009604Y-122595976D02*
X103152461Y-122548357D01*
X103152461Y-122548357D02*
X103247700Y-122453119D01*
X103247700Y-122453119D02*
X103295319Y-122310262D01*
X103295319Y-122310262D02*
X103295319Y-122215024D01*
X102390557Y-123024548D02*
X102342938Y-123072167D01*
X102342938Y-123072167D02*
X102295319Y-123167405D01*
X102295319Y-123167405D02*
X102295319Y-123405500D01*
X102295319Y-123405500D02*
X102342938Y-123500738D01*
X102342938Y-123500738D02*
X102390557Y-123548357D01*
X102390557Y-123548357D02*
X102485795Y-123595976D01*
X102485795Y-123595976D02*
X102581033Y-123595976D01*
X102581033Y-123595976D02*
X102723890Y-123548357D01*
X102723890Y-123548357D02*
X103295319Y-122976929D01*
X103295319Y-122976929D02*
X103295319Y-123595976D01*
X102628652Y-124453119D02*
X103295319Y-124453119D01*
X102247700Y-124215024D02*
X102961985Y-123976929D01*
X102961985Y-123976929D02*
X102961985Y-124595976D01*
X125226319Y-186755976D02*
X125940604Y-186755976D01*
X125940604Y-186755976D02*
X126083461Y-186708357D01*
X126083461Y-186708357D02*
X126178700Y-186613119D01*
X126178700Y-186613119D02*
X126226319Y-186470262D01*
X126226319Y-186470262D02*
X126226319Y-186375024D01*
X125321557Y-187184548D02*
X125273938Y-187232167D01*
X125273938Y-187232167D02*
X125226319Y-187327405D01*
X125226319Y-187327405D02*
X125226319Y-187565500D01*
X125226319Y-187565500D02*
X125273938Y-187660738D01*
X125273938Y-187660738D02*
X125321557Y-187708357D01*
X125321557Y-187708357D02*
X125416795Y-187755976D01*
X125416795Y-187755976D02*
X125512033Y-187755976D01*
X125512033Y-187755976D02*
X125654890Y-187708357D01*
X125654890Y-187708357D02*
X126226319Y-187136929D01*
X126226319Y-187136929D02*
X126226319Y-187755976D01*
X126226319Y-188708357D02*
X126226319Y-188136929D01*
X126226319Y-188422643D02*
X125226319Y-188422643D01*
X125226319Y-188422643D02*
X125369176Y-188327405D01*
X125369176Y-188327405D02*
X125464414Y-188232167D01*
X125464414Y-188232167D02*
X125512033Y-188136929D01*
D14*
%TO.C,I2C1*%
X143249500Y-89115500D02*
X143249500Y-106955500D01*
X145909500Y-86515500D02*
X144579500Y-86515500D01*
X145909500Y-87845500D02*
X145909500Y-86515500D01*
X145909500Y-89115500D02*
X143249500Y-89115500D01*
X145909500Y-89115500D02*
X145909500Y-106955500D01*
X145909500Y-106955500D02*
X143249500Y-106955500D01*
%TO.C,J16*%
X111829500Y-124760500D02*
X111829500Y-122100500D01*
X122049500Y-122100500D02*
X111829500Y-122100500D01*
X122049500Y-124760500D02*
X111829500Y-124760500D01*
X122049500Y-124760500D02*
X122049500Y-122100500D01*
X123319500Y-124760500D02*
X124649500Y-124760500D01*
X124649500Y-124760500D02*
X124649500Y-123430500D01*
%TO.C,J30*%
X89020500Y-201697500D02*
X89020500Y-199037500D01*
X99240500Y-199037500D02*
X89020500Y-199037500D01*
X99240500Y-201697500D02*
X89020500Y-201697500D01*
X99240500Y-201697500D02*
X99240500Y-199037500D01*
X100510500Y-201697500D02*
X101840500Y-201697500D01*
X101840500Y-201697500D02*
X101840500Y-200367500D01*
%TO.C,J31*%
X88893500Y-214143500D02*
X88893500Y-211483500D01*
X99113500Y-211483500D02*
X88893500Y-211483500D01*
X99113500Y-214143500D02*
X88893500Y-214143500D01*
X99113500Y-214143500D02*
X99113500Y-211483500D01*
X100383500Y-214143500D02*
X101713500Y-214143500D01*
X101713500Y-214143500D02*
X101713500Y-212813500D01*
%TO.C,J20*%
X111951500Y-176068500D02*
X111951500Y-173408500D01*
X122171500Y-173408500D02*
X111951500Y-173408500D01*
X122171500Y-176068500D02*
X111951500Y-176068500D01*
X122171500Y-176068500D02*
X122171500Y-173408500D01*
X123441500Y-176068500D02*
X124771500Y-176068500D01*
X124771500Y-176068500D02*
X124771500Y-174738500D01*
%TO.C,J27*%
X89020500Y-162962500D02*
X89020500Y-160302500D01*
X99240500Y-160302500D02*
X89020500Y-160302500D01*
X99240500Y-162962500D02*
X89020500Y-162962500D01*
X99240500Y-162962500D02*
X99240500Y-160302500D01*
X100510500Y-162962500D02*
X101840500Y-162962500D01*
X101840500Y-162962500D02*
X101840500Y-161632500D01*
%TO.C,I2C4*%
X143249500Y-117309500D02*
X143249500Y-135149500D01*
X145909500Y-114709500D02*
X144579500Y-114709500D01*
X145909500Y-116039500D02*
X145909500Y-114709500D01*
X145909500Y-117309500D02*
X143249500Y-117309500D01*
X145909500Y-117309500D02*
X145909500Y-135149500D01*
X145909500Y-135149500D02*
X143249500Y-135149500D01*
%TO.C,3PIN1*%
X116960500Y-66950500D02*
X116960500Y-64290500D01*
X122100500Y-64290500D02*
X116960500Y-64290500D01*
X122100500Y-66950500D02*
X116960500Y-66950500D01*
X122100500Y-66950500D02*
X122100500Y-64290500D01*
X123370500Y-66950500D02*
X124700500Y-66950500D01*
X124700500Y-66950500D02*
X124700500Y-65620500D01*
%TO.C,J26*%
X89020500Y-150389500D02*
X89020500Y-147729500D01*
X99240500Y-147729500D02*
X89020500Y-147729500D01*
X99240500Y-150389500D02*
X89020500Y-150389500D01*
X99240500Y-150389500D02*
X99240500Y-147729500D01*
X100510500Y-150389500D02*
X101840500Y-150389500D01*
X101840500Y-150389500D02*
X101840500Y-149059500D01*
%TO.C,AnalogL4*%
X65652500Y-117309500D02*
X65652500Y-135149500D01*
X68312500Y-114709500D02*
X66982500Y-114709500D01*
X68312500Y-116039500D02*
X68312500Y-114709500D01*
X68312500Y-117309500D02*
X65652500Y-117309500D01*
X68312500Y-117309500D02*
X68312500Y-135149500D01*
X68312500Y-135149500D02*
X65652500Y-135149500D01*
%TO.C,Glowne2*%
X106775500Y-78930500D02*
X106775500Y-96770500D01*
X109435500Y-76330500D02*
X108105500Y-76330500D01*
X109435500Y-77660500D02*
X109435500Y-76330500D01*
X109435500Y-78930500D02*
X106775500Y-78930500D01*
X109435500Y-78930500D02*
X109435500Y-96770500D01*
X109435500Y-96770500D02*
X106775500Y-96770500D01*
%TO.C,J29*%
X88766500Y-188743500D02*
X88766500Y-186083500D01*
X98986500Y-186083500D02*
X88766500Y-186083500D01*
X98986500Y-188743500D02*
X88766500Y-188743500D01*
X98986500Y-188743500D02*
X98986500Y-186083500D01*
X100256500Y-188743500D02*
X101586500Y-188743500D01*
X101586500Y-188743500D02*
X101586500Y-187413500D01*
%TO.C,J22*%
X111951500Y-201722500D02*
X111951500Y-199062500D01*
X122171500Y-199062500D02*
X111951500Y-199062500D01*
X122171500Y-201722500D02*
X111951500Y-201722500D01*
X122171500Y-201722500D02*
X122171500Y-199062500D01*
X123441500Y-201722500D02*
X124771500Y-201722500D01*
X124771500Y-201722500D02*
X124771500Y-200392500D01*
%TO.C,J23*%
X111951500Y-214549500D02*
X111951500Y-211889500D01*
X122171500Y-211889500D02*
X111951500Y-211889500D01*
X122171500Y-214549500D02*
X111951500Y-214549500D01*
X122171500Y-214549500D02*
X122171500Y-211889500D01*
X123441500Y-214549500D02*
X124771500Y-214549500D01*
X124771500Y-214549500D02*
X124771500Y-213219500D01*
%TO.C,Glowne1*%
X104235500Y-78930500D02*
X104235500Y-96770500D01*
X106895500Y-76330500D02*
X105565500Y-76330500D01*
X106895500Y-77660500D02*
X106895500Y-76330500D01*
X106895500Y-78930500D02*
X104235500Y-78930500D01*
X106895500Y-78930500D02*
X106895500Y-96770500D01*
X106895500Y-96770500D02*
X104235500Y-96770500D01*
%TO.C,J25*%
X89020500Y-137562500D02*
X89020500Y-134902500D01*
X99240500Y-134902500D02*
X89020500Y-134902500D01*
X99240500Y-137562500D02*
X89020500Y-137562500D01*
X99240500Y-137562500D02*
X99240500Y-134902500D01*
X100510500Y-137562500D02*
X101840500Y-137562500D01*
X101840500Y-137562500D02*
X101840500Y-136232500D01*
%TO.C,AnalogL3*%
X68192500Y-117309500D02*
X68192500Y-135149500D01*
X70852500Y-114709500D02*
X69522500Y-114709500D01*
X70852500Y-116039500D02*
X70852500Y-114709500D01*
X70852500Y-117309500D02*
X68192500Y-117309500D01*
X70852500Y-117309500D02*
X70852500Y-135149500D01*
X70852500Y-135149500D02*
X68192500Y-135149500D01*
%TO.C,J19*%
X111951500Y-163114500D02*
X111951500Y-160454500D01*
X122171500Y-160454500D02*
X111951500Y-160454500D01*
X122171500Y-163114500D02*
X111951500Y-163114500D01*
X122171500Y-163114500D02*
X122171500Y-160454500D01*
X123441500Y-163114500D02*
X124771500Y-163114500D01*
X124771500Y-163114500D02*
X124771500Y-161784500D01*
%TO.C,J17*%
X111951500Y-137460500D02*
X111951500Y-134800500D01*
X122171500Y-134800500D02*
X111951500Y-134800500D01*
X122171500Y-137460500D02*
X111951500Y-137460500D01*
X122171500Y-137460500D02*
X122171500Y-134800500D01*
X123441500Y-137460500D02*
X124771500Y-137460500D01*
X124771500Y-137460500D02*
X124771500Y-136130500D01*
%TO.C,J28*%
X88893500Y-175916500D02*
X88893500Y-173256500D01*
X99113500Y-173256500D02*
X88893500Y-173256500D01*
X99113500Y-175916500D02*
X88893500Y-175916500D01*
X99113500Y-175916500D02*
X99113500Y-173256500D01*
X100383500Y-175916500D02*
X101713500Y-175916500D01*
X101713500Y-175916500D02*
X101713500Y-174586500D01*
%TO.C,I2C3*%
X145789500Y-117309500D02*
X145789500Y-135149500D01*
X148449500Y-114709500D02*
X147119500Y-114709500D01*
X148449500Y-116039500D02*
X148449500Y-114709500D01*
X148449500Y-117309500D02*
X145789500Y-117309500D01*
X148449500Y-117309500D02*
X148449500Y-135149500D01*
X148449500Y-135149500D02*
X145789500Y-135149500D01*
%TO.C,AnalogL1*%
X68192500Y-89115500D02*
X68192500Y-106955500D01*
X70852500Y-86515500D02*
X69522500Y-86515500D01*
X70852500Y-87845500D02*
X70852500Y-86515500D01*
X70852500Y-89115500D02*
X68192500Y-89115500D01*
X70852500Y-89115500D02*
X70852500Y-106955500D01*
X70852500Y-106955500D02*
X68192500Y-106955500D01*
%TO.C,J18*%
X111824500Y-150287500D02*
X111824500Y-147627500D01*
X122044500Y-147627500D02*
X111824500Y-147627500D01*
X122044500Y-150287500D02*
X111824500Y-150287500D01*
X122044500Y-150287500D02*
X122044500Y-147627500D01*
X123314500Y-150287500D02*
X124644500Y-150287500D01*
X124644500Y-150287500D02*
X124644500Y-148957500D01*
%TO.C,AnalogL2*%
X65652500Y-89115500D02*
X65652500Y-106955500D01*
X68312500Y-86515500D02*
X66982500Y-86515500D01*
X68312500Y-87845500D02*
X68312500Y-86515500D01*
X68312500Y-89115500D02*
X65652500Y-89115500D01*
X68312500Y-89115500D02*
X68312500Y-106955500D01*
X68312500Y-106955500D02*
X65652500Y-106955500D01*
%TO.C,I2C2*%
X145789500Y-89115500D02*
X145789500Y-106955500D01*
X148449500Y-86515500D02*
X147119500Y-86515500D01*
X148449500Y-87845500D02*
X148449500Y-86515500D01*
X148449500Y-89115500D02*
X145789500Y-89115500D01*
X148449500Y-89115500D02*
X148449500Y-106955500D01*
X148449500Y-106955500D02*
X145789500Y-106955500D01*
%TO.C,3PIN2*%
X116945500Y-73300500D02*
X116945500Y-70640500D01*
X122085500Y-70640500D02*
X116945500Y-70640500D01*
X122085500Y-73300500D02*
X116945500Y-73300500D01*
X122085500Y-73300500D02*
X122085500Y-70640500D01*
X123355500Y-73300500D02*
X124685500Y-73300500D01*
X124685500Y-73300500D02*
X124685500Y-71970500D01*
%TO.C,J24*%
X89020500Y-124735500D02*
X89020500Y-122075500D01*
X99240500Y-122075500D02*
X89020500Y-122075500D01*
X99240500Y-124735500D02*
X89020500Y-124735500D01*
X99240500Y-124735500D02*
X99240500Y-122075500D01*
X100510500Y-124735500D02*
X101840500Y-124735500D01*
X101840500Y-124735500D02*
X101840500Y-123405500D01*
%TO.C,J21*%
X111951500Y-188895500D02*
X111951500Y-186235500D01*
X122171500Y-186235500D02*
X111951500Y-186235500D01*
X122171500Y-188895500D02*
X111951500Y-188895500D01*
X122171500Y-188895500D02*
X122171500Y-186235500D01*
X123441500Y-188895500D02*
X124771500Y-188895500D01*
X124771500Y-188895500D02*
X124771500Y-187565500D01*
%TD*%
M02*
