%TF.GenerationSoftware,KiCad,Pcbnew,8.0.2*%
%TF.CreationDate,2024-06-16T18:34:37+02:00*%
%TF.ProjectId,p1,70312e6b-6963-4616-945f-706362585858,rev?*%
%TF.SameCoordinates,Original*%
%TF.FileFunction,Profile,NP*%
%FSLAX46Y46*%
G04 Gerber Fmt 4.6, Leading zero omitted, Abs format (unit mm)*
G04 Created by KiCad (PCBNEW 8.0.2) date 2024-06-16 18:34:37*
%MOMM*%
%LPD*%
G01*
G04 APERTURE LIST*
%ADD10C,0.100000*%
%ADD11C,0.150000*%
%ADD12C,0.300000*%
%ADD13C,0.400000*%
G04 APERTURE END LIST*
D10*
D11*
X90007200Y-253002200D02*
X198007200Y-253002200D01*
X198007200Y-285002200D01*
X90007200Y-285002200D01*
X90007200Y-253002200D01*
D10*
D11*
X10000000Y-10000000D02*
X200007200Y-10000000D01*
X200007200Y-287002200D01*
X10000000Y-287002200D01*
X10000000Y-10000000D01*
D10*
D11*
X12000000Y-12000000D02*
X198007200Y-12000000D01*
X198007200Y-285002200D01*
X12000000Y-285002200D01*
X12000000Y-12000000D01*
D10*
D11*
X60000000Y-12000000D02*
X60000000Y-10000000D01*
D10*
D11*
X110000000Y-12000000D02*
X110000000Y-10000000D01*
D10*
D11*
X160000000Y-12000000D02*
X160000000Y-10000000D01*
D10*
D11*
X36089160Y-11593604D02*
X35346303Y-11593604D01*
X35717731Y-11593604D02*
X35717731Y-10293604D01*
X35717731Y-10293604D02*
X35593922Y-10479319D01*
X35593922Y-10479319D02*
X35470112Y-10603128D01*
X35470112Y-10603128D02*
X35346303Y-10665033D01*
D10*
D11*
X85346303Y-10417414D02*
X85408207Y-10355509D01*
X85408207Y-10355509D02*
X85532017Y-10293604D01*
X85532017Y-10293604D02*
X85841541Y-10293604D01*
X85841541Y-10293604D02*
X85965350Y-10355509D01*
X85965350Y-10355509D02*
X86027255Y-10417414D01*
X86027255Y-10417414D02*
X86089160Y-10541223D01*
X86089160Y-10541223D02*
X86089160Y-10665033D01*
X86089160Y-10665033D02*
X86027255Y-10850747D01*
X86027255Y-10850747D02*
X85284398Y-11593604D01*
X85284398Y-11593604D02*
X86089160Y-11593604D01*
D10*
D11*
X135284398Y-10293604D02*
X136089160Y-10293604D01*
X136089160Y-10293604D02*
X135655826Y-10788842D01*
X135655826Y-10788842D02*
X135841541Y-10788842D01*
X135841541Y-10788842D02*
X135965350Y-10850747D01*
X135965350Y-10850747D02*
X136027255Y-10912652D01*
X136027255Y-10912652D02*
X136089160Y-11036461D01*
X136089160Y-11036461D02*
X136089160Y-11345985D01*
X136089160Y-11345985D02*
X136027255Y-11469795D01*
X136027255Y-11469795D02*
X135965350Y-11531700D01*
X135965350Y-11531700D02*
X135841541Y-11593604D01*
X135841541Y-11593604D02*
X135470112Y-11593604D01*
X135470112Y-11593604D02*
X135346303Y-11531700D01*
X135346303Y-11531700D02*
X135284398Y-11469795D01*
D10*
D11*
X185965350Y-10726938D02*
X185965350Y-11593604D01*
X185655826Y-10231700D02*
X185346303Y-11160271D01*
X185346303Y-11160271D02*
X186151064Y-11160271D01*
D10*
D11*
X60000000Y-285002200D02*
X60000000Y-287002200D01*
D10*
D11*
X110000000Y-285002200D02*
X110000000Y-287002200D01*
D10*
D11*
X160000000Y-285002200D02*
X160000000Y-287002200D01*
D10*
D11*
X36089160Y-286595804D02*
X35346303Y-286595804D01*
X35717731Y-286595804D02*
X35717731Y-285295804D01*
X35717731Y-285295804D02*
X35593922Y-285481519D01*
X35593922Y-285481519D02*
X35470112Y-285605328D01*
X35470112Y-285605328D02*
X35346303Y-285667233D01*
D10*
D11*
X85346303Y-285419614D02*
X85408207Y-285357709D01*
X85408207Y-285357709D02*
X85532017Y-285295804D01*
X85532017Y-285295804D02*
X85841541Y-285295804D01*
X85841541Y-285295804D02*
X85965350Y-285357709D01*
X85965350Y-285357709D02*
X86027255Y-285419614D01*
X86027255Y-285419614D02*
X86089160Y-285543423D01*
X86089160Y-285543423D02*
X86089160Y-285667233D01*
X86089160Y-285667233D02*
X86027255Y-285852947D01*
X86027255Y-285852947D02*
X85284398Y-286595804D01*
X85284398Y-286595804D02*
X86089160Y-286595804D01*
D10*
D11*
X135284398Y-285295804D02*
X136089160Y-285295804D01*
X136089160Y-285295804D02*
X135655826Y-285791042D01*
X135655826Y-285791042D02*
X135841541Y-285791042D01*
X135841541Y-285791042D02*
X135965350Y-285852947D01*
X135965350Y-285852947D02*
X136027255Y-285914852D01*
X136027255Y-285914852D02*
X136089160Y-286038661D01*
X136089160Y-286038661D02*
X136089160Y-286348185D01*
X136089160Y-286348185D02*
X136027255Y-286471995D01*
X136027255Y-286471995D02*
X135965350Y-286533900D01*
X135965350Y-286533900D02*
X135841541Y-286595804D01*
X135841541Y-286595804D02*
X135470112Y-286595804D01*
X135470112Y-286595804D02*
X135346303Y-286533900D01*
X135346303Y-286533900D02*
X135284398Y-286471995D01*
D10*
D11*
X185965350Y-285729138D02*
X185965350Y-286595804D01*
X185655826Y-285233900D02*
X185346303Y-286162471D01*
X185346303Y-286162471D02*
X186151064Y-286162471D01*
D10*
D11*
X10000000Y-60000000D02*
X12000000Y-60000000D01*
D10*
D11*
X10000000Y-110000000D02*
X12000000Y-110000000D01*
D10*
D11*
X10000000Y-160000000D02*
X12000000Y-160000000D01*
D10*
D11*
X10000000Y-210000000D02*
X12000000Y-210000000D01*
D10*
D11*
X10000000Y-260000000D02*
X12000000Y-260000000D01*
D10*
D11*
X10690476Y-35222176D02*
X11309523Y-35222176D01*
X10566666Y-35593604D02*
X10999999Y-34293604D01*
X10999999Y-34293604D02*
X11433333Y-35593604D01*
D10*
D11*
X11092857Y-84912652D02*
X11278571Y-84974557D01*
X11278571Y-84974557D02*
X11340476Y-85036461D01*
X11340476Y-85036461D02*
X11402380Y-85160271D01*
X11402380Y-85160271D02*
X11402380Y-85345985D01*
X11402380Y-85345985D02*
X11340476Y-85469795D01*
X11340476Y-85469795D02*
X11278571Y-85531700D01*
X11278571Y-85531700D02*
X11154761Y-85593604D01*
X11154761Y-85593604D02*
X10659523Y-85593604D01*
X10659523Y-85593604D02*
X10659523Y-84293604D01*
X10659523Y-84293604D02*
X11092857Y-84293604D01*
X11092857Y-84293604D02*
X11216666Y-84355509D01*
X11216666Y-84355509D02*
X11278571Y-84417414D01*
X11278571Y-84417414D02*
X11340476Y-84541223D01*
X11340476Y-84541223D02*
X11340476Y-84665033D01*
X11340476Y-84665033D02*
X11278571Y-84788842D01*
X11278571Y-84788842D02*
X11216666Y-84850747D01*
X11216666Y-84850747D02*
X11092857Y-84912652D01*
X11092857Y-84912652D02*
X10659523Y-84912652D01*
D10*
D11*
X11402380Y-135469795D02*
X11340476Y-135531700D01*
X11340476Y-135531700D02*
X11154761Y-135593604D01*
X11154761Y-135593604D02*
X11030952Y-135593604D01*
X11030952Y-135593604D02*
X10845238Y-135531700D01*
X10845238Y-135531700D02*
X10721428Y-135407890D01*
X10721428Y-135407890D02*
X10659523Y-135284080D01*
X10659523Y-135284080D02*
X10597619Y-135036461D01*
X10597619Y-135036461D02*
X10597619Y-134850747D01*
X10597619Y-134850747D02*
X10659523Y-134603128D01*
X10659523Y-134603128D02*
X10721428Y-134479319D01*
X10721428Y-134479319D02*
X10845238Y-134355509D01*
X10845238Y-134355509D02*
X11030952Y-134293604D01*
X11030952Y-134293604D02*
X11154761Y-134293604D01*
X11154761Y-134293604D02*
X11340476Y-134355509D01*
X11340476Y-134355509D02*
X11402380Y-134417414D01*
D10*
D11*
X10659523Y-185593604D02*
X10659523Y-184293604D01*
X10659523Y-184293604D02*
X10969047Y-184293604D01*
X10969047Y-184293604D02*
X11154761Y-184355509D01*
X11154761Y-184355509D02*
X11278571Y-184479319D01*
X11278571Y-184479319D02*
X11340476Y-184603128D01*
X11340476Y-184603128D02*
X11402380Y-184850747D01*
X11402380Y-184850747D02*
X11402380Y-185036461D01*
X11402380Y-185036461D02*
X11340476Y-185284080D01*
X11340476Y-185284080D02*
X11278571Y-185407890D01*
X11278571Y-185407890D02*
X11154761Y-185531700D01*
X11154761Y-185531700D02*
X10969047Y-185593604D01*
X10969047Y-185593604D02*
X10659523Y-185593604D01*
D10*
D11*
X10721428Y-234912652D02*
X11154762Y-234912652D01*
X11340476Y-235593604D02*
X10721428Y-235593604D01*
X10721428Y-235593604D02*
X10721428Y-234293604D01*
X10721428Y-234293604D02*
X11340476Y-234293604D01*
D10*
D11*
X11185714Y-284912652D02*
X10752380Y-284912652D01*
X10752380Y-285593604D02*
X10752380Y-284293604D01*
X10752380Y-284293604D02*
X11371428Y-284293604D01*
D10*
D11*
X200007200Y-60000000D02*
X198007200Y-60000000D01*
D10*
D11*
X200007200Y-110000000D02*
X198007200Y-110000000D01*
D10*
D11*
X200007200Y-160000000D02*
X198007200Y-160000000D01*
D10*
D11*
X200007200Y-210000000D02*
X198007200Y-210000000D01*
D10*
D11*
X200007200Y-260000000D02*
X198007200Y-260000000D01*
D10*
D11*
X198697676Y-35222176D02*
X199316723Y-35222176D01*
X198573866Y-35593604D02*
X199007199Y-34293604D01*
X199007199Y-34293604D02*
X199440533Y-35593604D01*
D10*
D11*
X199100057Y-84912652D02*
X199285771Y-84974557D01*
X199285771Y-84974557D02*
X199347676Y-85036461D01*
X199347676Y-85036461D02*
X199409580Y-85160271D01*
X199409580Y-85160271D02*
X199409580Y-85345985D01*
X199409580Y-85345985D02*
X199347676Y-85469795D01*
X199347676Y-85469795D02*
X199285771Y-85531700D01*
X199285771Y-85531700D02*
X199161961Y-85593604D01*
X199161961Y-85593604D02*
X198666723Y-85593604D01*
X198666723Y-85593604D02*
X198666723Y-84293604D01*
X198666723Y-84293604D02*
X199100057Y-84293604D01*
X199100057Y-84293604D02*
X199223866Y-84355509D01*
X199223866Y-84355509D02*
X199285771Y-84417414D01*
X199285771Y-84417414D02*
X199347676Y-84541223D01*
X199347676Y-84541223D02*
X199347676Y-84665033D01*
X199347676Y-84665033D02*
X199285771Y-84788842D01*
X199285771Y-84788842D02*
X199223866Y-84850747D01*
X199223866Y-84850747D02*
X199100057Y-84912652D01*
X199100057Y-84912652D02*
X198666723Y-84912652D01*
D10*
D11*
X199409580Y-135469795D02*
X199347676Y-135531700D01*
X199347676Y-135531700D02*
X199161961Y-135593604D01*
X199161961Y-135593604D02*
X199038152Y-135593604D01*
X199038152Y-135593604D02*
X198852438Y-135531700D01*
X198852438Y-135531700D02*
X198728628Y-135407890D01*
X198728628Y-135407890D02*
X198666723Y-135284080D01*
X198666723Y-135284080D02*
X198604819Y-135036461D01*
X198604819Y-135036461D02*
X198604819Y-134850747D01*
X198604819Y-134850747D02*
X198666723Y-134603128D01*
X198666723Y-134603128D02*
X198728628Y-134479319D01*
X198728628Y-134479319D02*
X198852438Y-134355509D01*
X198852438Y-134355509D02*
X199038152Y-134293604D01*
X199038152Y-134293604D02*
X199161961Y-134293604D01*
X199161961Y-134293604D02*
X199347676Y-134355509D01*
X199347676Y-134355509D02*
X199409580Y-134417414D01*
D10*
D11*
X198666723Y-185593604D02*
X198666723Y-184293604D01*
X198666723Y-184293604D02*
X198976247Y-184293604D01*
X198976247Y-184293604D02*
X199161961Y-184355509D01*
X199161961Y-184355509D02*
X199285771Y-184479319D01*
X199285771Y-184479319D02*
X199347676Y-184603128D01*
X199347676Y-184603128D02*
X199409580Y-184850747D01*
X199409580Y-184850747D02*
X199409580Y-185036461D01*
X199409580Y-185036461D02*
X199347676Y-185284080D01*
X199347676Y-185284080D02*
X199285771Y-185407890D01*
X199285771Y-185407890D02*
X199161961Y-185531700D01*
X199161961Y-185531700D02*
X198976247Y-185593604D01*
X198976247Y-185593604D02*
X198666723Y-185593604D01*
D10*
D11*
X198728628Y-234912652D02*
X199161962Y-234912652D01*
X199347676Y-235593604D02*
X198728628Y-235593604D01*
X198728628Y-235593604D02*
X198728628Y-234293604D01*
X198728628Y-234293604D02*
X199347676Y-234293604D01*
D10*
D11*
X199192914Y-284912652D02*
X198759580Y-284912652D01*
X198759580Y-285593604D02*
X198759580Y-284293604D01*
X198759580Y-284293604D02*
X199378628Y-284293604D01*
D10*
D11*
X113463026Y-280788328D02*
X113463026Y-279288328D01*
X113463026Y-279288328D02*
X113820169Y-279288328D01*
X113820169Y-279288328D02*
X114034455Y-279359757D01*
X114034455Y-279359757D02*
X114177312Y-279502614D01*
X114177312Y-279502614D02*
X114248741Y-279645471D01*
X114248741Y-279645471D02*
X114320169Y-279931185D01*
X114320169Y-279931185D02*
X114320169Y-280145471D01*
X114320169Y-280145471D02*
X114248741Y-280431185D01*
X114248741Y-280431185D02*
X114177312Y-280574042D01*
X114177312Y-280574042D02*
X114034455Y-280716900D01*
X114034455Y-280716900D02*
X113820169Y-280788328D01*
X113820169Y-280788328D02*
X113463026Y-280788328D01*
X115605884Y-280788328D02*
X115605884Y-280002614D01*
X115605884Y-280002614D02*
X115534455Y-279859757D01*
X115534455Y-279859757D02*
X115391598Y-279788328D01*
X115391598Y-279788328D02*
X115105884Y-279788328D01*
X115105884Y-279788328D02*
X114963026Y-279859757D01*
X115605884Y-280716900D02*
X115463026Y-280788328D01*
X115463026Y-280788328D02*
X115105884Y-280788328D01*
X115105884Y-280788328D02*
X114963026Y-280716900D01*
X114963026Y-280716900D02*
X114891598Y-280574042D01*
X114891598Y-280574042D02*
X114891598Y-280431185D01*
X114891598Y-280431185D02*
X114963026Y-280288328D01*
X114963026Y-280288328D02*
X115105884Y-280216900D01*
X115105884Y-280216900D02*
X115463026Y-280216900D01*
X115463026Y-280216900D02*
X115605884Y-280145471D01*
X116105884Y-279788328D02*
X116677312Y-279788328D01*
X116320169Y-279288328D02*
X116320169Y-280574042D01*
X116320169Y-280574042D02*
X116391598Y-280716900D01*
X116391598Y-280716900D02*
X116534455Y-280788328D01*
X116534455Y-280788328D02*
X116677312Y-280788328D01*
X117748741Y-280716900D02*
X117605884Y-280788328D01*
X117605884Y-280788328D02*
X117320170Y-280788328D01*
X117320170Y-280788328D02*
X117177312Y-280716900D01*
X117177312Y-280716900D02*
X117105884Y-280574042D01*
X117105884Y-280574042D02*
X117105884Y-280002614D01*
X117105884Y-280002614D02*
X117177312Y-279859757D01*
X117177312Y-279859757D02*
X117320170Y-279788328D01*
X117320170Y-279788328D02*
X117605884Y-279788328D01*
X117605884Y-279788328D02*
X117748741Y-279859757D01*
X117748741Y-279859757D02*
X117820170Y-280002614D01*
X117820170Y-280002614D02*
X117820170Y-280145471D01*
X117820170Y-280145471D02*
X117105884Y-280288328D01*
X118463026Y-280645471D02*
X118534455Y-280716900D01*
X118534455Y-280716900D02*
X118463026Y-280788328D01*
X118463026Y-280788328D02*
X118391598Y-280716900D01*
X118391598Y-280716900D02*
X118463026Y-280645471D01*
X118463026Y-280645471D02*
X118463026Y-280788328D01*
X118463026Y-279859757D02*
X118534455Y-279931185D01*
X118534455Y-279931185D02*
X118463026Y-280002614D01*
X118463026Y-280002614D02*
X118391598Y-279931185D01*
X118391598Y-279931185D02*
X118463026Y-279859757D01*
X118463026Y-279859757D02*
X118463026Y-280002614D01*
D10*
D11*
X90007200Y-281502200D02*
X198007200Y-281502200D01*
D10*
D11*
X91463026Y-283588328D02*
X91463026Y-282088328D01*
X92320169Y-283588328D02*
X91677312Y-282731185D01*
X92320169Y-282088328D02*
X91463026Y-282945471D01*
X92963026Y-283588328D02*
X92963026Y-282588328D01*
X92963026Y-282088328D02*
X92891598Y-282159757D01*
X92891598Y-282159757D02*
X92963026Y-282231185D01*
X92963026Y-282231185D02*
X93034455Y-282159757D01*
X93034455Y-282159757D02*
X92963026Y-282088328D01*
X92963026Y-282088328D02*
X92963026Y-282231185D01*
X94534455Y-283445471D02*
X94463027Y-283516900D01*
X94463027Y-283516900D02*
X94248741Y-283588328D01*
X94248741Y-283588328D02*
X94105884Y-283588328D01*
X94105884Y-283588328D02*
X93891598Y-283516900D01*
X93891598Y-283516900D02*
X93748741Y-283374042D01*
X93748741Y-283374042D02*
X93677312Y-283231185D01*
X93677312Y-283231185D02*
X93605884Y-282945471D01*
X93605884Y-282945471D02*
X93605884Y-282731185D01*
X93605884Y-282731185D02*
X93677312Y-282445471D01*
X93677312Y-282445471D02*
X93748741Y-282302614D01*
X93748741Y-282302614D02*
X93891598Y-282159757D01*
X93891598Y-282159757D02*
X94105884Y-282088328D01*
X94105884Y-282088328D02*
X94248741Y-282088328D01*
X94248741Y-282088328D02*
X94463027Y-282159757D01*
X94463027Y-282159757D02*
X94534455Y-282231185D01*
X95820170Y-283588328D02*
X95820170Y-282802614D01*
X95820170Y-282802614D02*
X95748741Y-282659757D01*
X95748741Y-282659757D02*
X95605884Y-282588328D01*
X95605884Y-282588328D02*
X95320170Y-282588328D01*
X95320170Y-282588328D02*
X95177312Y-282659757D01*
X95820170Y-283516900D02*
X95677312Y-283588328D01*
X95677312Y-283588328D02*
X95320170Y-283588328D01*
X95320170Y-283588328D02*
X95177312Y-283516900D01*
X95177312Y-283516900D02*
X95105884Y-283374042D01*
X95105884Y-283374042D02*
X95105884Y-283231185D01*
X95105884Y-283231185D02*
X95177312Y-283088328D01*
X95177312Y-283088328D02*
X95320170Y-283016900D01*
X95320170Y-283016900D02*
X95677312Y-283016900D01*
X95677312Y-283016900D02*
X95820170Y-282945471D01*
X97177313Y-283588328D02*
X97177313Y-282088328D01*
X97177313Y-283516900D02*
X97034455Y-283588328D01*
X97034455Y-283588328D02*
X96748741Y-283588328D01*
X96748741Y-283588328D02*
X96605884Y-283516900D01*
X96605884Y-283516900D02*
X96534455Y-283445471D01*
X96534455Y-283445471D02*
X96463027Y-283302614D01*
X96463027Y-283302614D02*
X96463027Y-282874042D01*
X96463027Y-282874042D02*
X96534455Y-282731185D01*
X96534455Y-282731185D02*
X96605884Y-282659757D01*
X96605884Y-282659757D02*
X96748741Y-282588328D01*
X96748741Y-282588328D02*
X97034455Y-282588328D01*
X97034455Y-282588328D02*
X97177313Y-282659757D01*
X99034455Y-282802614D02*
X99534455Y-282802614D01*
X99748741Y-283588328D02*
X99034455Y-283588328D01*
X99034455Y-283588328D02*
X99034455Y-282088328D01*
X99034455Y-282088328D02*
X99748741Y-282088328D01*
X100391598Y-283445471D02*
X100463027Y-283516900D01*
X100463027Y-283516900D02*
X100391598Y-283588328D01*
X100391598Y-283588328D02*
X100320170Y-283516900D01*
X100320170Y-283516900D02*
X100391598Y-283445471D01*
X100391598Y-283445471D02*
X100391598Y-283588328D01*
X101105884Y-283588328D02*
X101105884Y-282088328D01*
X101105884Y-282088328D02*
X101463027Y-282088328D01*
X101463027Y-282088328D02*
X101677313Y-282159757D01*
X101677313Y-282159757D02*
X101820170Y-282302614D01*
X101820170Y-282302614D02*
X101891599Y-282445471D01*
X101891599Y-282445471D02*
X101963027Y-282731185D01*
X101963027Y-282731185D02*
X101963027Y-282945471D01*
X101963027Y-282945471D02*
X101891599Y-283231185D01*
X101891599Y-283231185D02*
X101820170Y-283374042D01*
X101820170Y-283374042D02*
X101677313Y-283516900D01*
X101677313Y-283516900D02*
X101463027Y-283588328D01*
X101463027Y-283588328D02*
X101105884Y-283588328D01*
X102605884Y-283445471D02*
X102677313Y-283516900D01*
X102677313Y-283516900D02*
X102605884Y-283588328D01*
X102605884Y-283588328D02*
X102534456Y-283516900D01*
X102534456Y-283516900D02*
X102605884Y-283445471D01*
X102605884Y-283445471D02*
X102605884Y-283588328D01*
X103248742Y-283159757D02*
X103963028Y-283159757D01*
X103105885Y-283588328D02*
X103605885Y-282088328D01*
X103605885Y-282088328D02*
X104105885Y-283588328D01*
X104605884Y-283445471D02*
X104677313Y-283516900D01*
X104677313Y-283516900D02*
X104605884Y-283588328D01*
X104605884Y-283588328D02*
X104534456Y-283516900D01*
X104534456Y-283516900D02*
X104605884Y-283445471D01*
X104605884Y-283445471D02*
X104605884Y-283588328D01*
X106677313Y-282731185D02*
X106534456Y-282659757D01*
X106534456Y-282659757D02*
X106463027Y-282588328D01*
X106463027Y-282588328D02*
X106391599Y-282445471D01*
X106391599Y-282445471D02*
X106391599Y-282374042D01*
X106391599Y-282374042D02*
X106463027Y-282231185D01*
X106463027Y-282231185D02*
X106534456Y-282159757D01*
X106534456Y-282159757D02*
X106677313Y-282088328D01*
X106677313Y-282088328D02*
X106963027Y-282088328D01*
X106963027Y-282088328D02*
X107105885Y-282159757D01*
X107105885Y-282159757D02*
X107177313Y-282231185D01*
X107177313Y-282231185D02*
X107248742Y-282374042D01*
X107248742Y-282374042D02*
X107248742Y-282445471D01*
X107248742Y-282445471D02*
X107177313Y-282588328D01*
X107177313Y-282588328D02*
X107105885Y-282659757D01*
X107105885Y-282659757D02*
X106963027Y-282731185D01*
X106963027Y-282731185D02*
X106677313Y-282731185D01*
X106677313Y-282731185D02*
X106534456Y-282802614D01*
X106534456Y-282802614D02*
X106463027Y-282874042D01*
X106463027Y-282874042D02*
X106391599Y-283016900D01*
X106391599Y-283016900D02*
X106391599Y-283302614D01*
X106391599Y-283302614D02*
X106463027Y-283445471D01*
X106463027Y-283445471D02*
X106534456Y-283516900D01*
X106534456Y-283516900D02*
X106677313Y-283588328D01*
X106677313Y-283588328D02*
X106963027Y-283588328D01*
X106963027Y-283588328D02*
X107105885Y-283516900D01*
X107105885Y-283516900D02*
X107177313Y-283445471D01*
X107177313Y-283445471D02*
X107248742Y-283302614D01*
X107248742Y-283302614D02*
X107248742Y-283016900D01*
X107248742Y-283016900D02*
X107177313Y-282874042D01*
X107177313Y-282874042D02*
X107105885Y-282802614D01*
X107105885Y-282802614D02*
X106963027Y-282731185D01*
X107891598Y-283445471D02*
X107963027Y-283516900D01*
X107963027Y-283516900D02*
X107891598Y-283588328D01*
X107891598Y-283588328D02*
X107820170Y-283516900D01*
X107820170Y-283516900D02*
X107891598Y-283445471D01*
X107891598Y-283445471D02*
X107891598Y-283588328D01*
X108891599Y-282088328D02*
X109034456Y-282088328D01*
X109034456Y-282088328D02*
X109177313Y-282159757D01*
X109177313Y-282159757D02*
X109248742Y-282231185D01*
X109248742Y-282231185D02*
X109320170Y-282374042D01*
X109320170Y-282374042D02*
X109391599Y-282659757D01*
X109391599Y-282659757D02*
X109391599Y-283016900D01*
X109391599Y-283016900D02*
X109320170Y-283302614D01*
X109320170Y-283302614D02*
X109248742Y-283445471D01*
X109248742Y-283445471D02*
X109177313Y-283516900D01*
X109177313Y-283516900D02*
X109034456Y-283588328D01*
X109034456Y-283588328D02*
X108891599Y-283588328D01*
X108891599Y-283588328D02*
X108748742Y-283516900D01*
X108748742Y-283516900D02*
X108677313Y-283445471D01*
X108677313Y-283445471D02*
X108605884Y-283302614D01*
X108605884Y-283302614D02*
X108534456Y-283016900D01*
X108534456Y-283016900D02*
X108534456Y-282659757D01*
X108534456Y-282659757D02*
X108605884Y-282374042D01*
X108605884Y-282374042D02*
X108677313Y-282231185D01*
X108677313Y-282231185D02*
X108748742Y-282159757D01*
X108748742Y-282159757D02*
X108891599Y-282088328D01*
X110034455Y-283445471D02*
X110105884Y-283516900D01*
X110105884Y-283516900D02*
X110034455Y-283588328D01*
X110034455Y-283588328D02*
X109963027Y-283516900D01*
X109963027Y-283516900D02*
X110034455Y-283445471D01*
X110034455Y-283445471D02*
X110034455Y-283588328D01*
X110677313Y-282231185D02*
X110748741Y-282159757D01*
X110748741Y-282159757D02*
X110891599Y-282088328D01*
X110891599Y-282088328D02*
X111248741Y-282088328D01*
X111248741Y-282088328D02*
X111391599Y-282159757D01*
X111391599Y-282159757D02*
X111463027Y-282231185D01*
X111463027Y-282231185D02*
X111534456Y-282374042D01*
X111534456Y-282374042D02*
X111534456Y-282516900D01*
X111534456Y-282516900D02*
X111463027Y-282731185D01*
X111463027Y-282731185D02*
X110605884Y-283588328D01*
X110605884Y-283588328D02*
X111534456Y-283588328D01*
D10*
D11*
X90007200Y-278502200D02*
X198007200Y-278502200D01*
D10*
D12*
X177418853Y-280780528D02*
X176918853Y-280066242D01*
X176561710Y-280780528D02*
X176561710Y-279280528D01*
X176561710Y-279280528D02*
X177133139Y-279280528D01*
X177133139Y-279280528D02*
X177275996Y-279351957D01*
X177275996Y-279351957D02*
X177347425Y-279423385D01*
X177347425Y-279423385D02*
X177418853Y-279566242D01*
X177418853Y-279566242D02*
X177418853Y-279780528D01*
X177418853Y-279780528D02*
X177347425Y-279923385D01*
X177347425Y-279923385D02*
X177275996Y-279994814D01*
X177275996Y-279994814D02*
X177133139Y-280066242D01*
X177133139Y-280066242D02*
X176561710Y-280066242D01*
X178633139Y-280709100D02*
X178490282Y-280780528D01*
X178490282Y-280780528D02*
X178204568Y-280780528D01*
X178204568Y-280780528D02*
X178061710Y-280709100D01*
X178061710Y-280709100D02*
X177990282Y-280566242D01*
X177990282Y-280566242D02*
X177990282Y-279994814D01*
X177990282Y-279994814D02*
X178061710Y-279851957D01*
X178061710Y-279851957D02*
X178204568Y-279780528D01*
X178204568Y-279780528D02*
X178490282Y-279780528D01*
X178490282Y-279780528D02*
X178633139Y-279851957D01*
X178633139Y-279851957D02*
X178704568Y-279994814D01*
X178704568Y-279994814D02*
X178704568Y-280137671D01*
X178704568Y-280137671D02*
X177990282Y-280280528D01*
X179204567Y-279780528D02*
X179561710Y-280780528D01*
X179561710Y-280780528D02*
X179918853Y-279780528D01*
X180490281Y-280637671D02*
X180561710Y-280709100D01*
X180561710Y-280709100D02*
X180490281Y-280780528D01*
X180490281Y-280780528D02*
X180418853Y-280709100D01*
X180418853Y-280709100D02*
X180490281Y-280637671D01*
X180490281Y-280637671D02*
X180490281Y-280780528D01*
X180490281Y-279851957D02*
X180561710Y-279923385D01*
X180561710Y-279923385D02*
X180490281Y-279994814D01*
X180490281Y-279994814D02*
X180418853Y-279923385D01*
X180418853Y-279923385D02*
X180490281Y-279851957D01*
X180490281Y-279851957D02*
X180490281Y-279994814D01*
D10*
D11*
X91391598Y-280716900D02*
X91605884Y-280788328D01*
X91605884Y-280788328D02*
X91963026Y-280788328D01*
X91963026Y-280788328D02*
X92105884Y-280716900D01*
X92105884Y-280716900D02*
X92177312Y-280645471D01*
X92177312Y-280645471D02*
X92248741Y-280502614D01*
X92248741Y-280502614D02*
X92248741Y-280359757D01*
X92248741Y-280359757D02*
X92177312Y-280216900D01*
X92177312Y-280216900D02*
X92105884Y-280145471D01*
X92105884Y-280145471D02*
X91963026Y-280074042D01*
X91963026Y-280074042D02*
X91677312Y-280002614D01*
X91677312Y-280002614D02*
X91534455Y-279931185D01*
X91534455Y-279931185D02*
X91463026Y-279859757D01*
X91463026Y-279859757D02*
X91391598Y-279716900D01*
X91391598Y-279716900D02*
X91391598Y-279574042D01*
X91391598Y-279574042D02*
X91463026Y-279431185D01*
X91463026Y-279431185D02*
X91534455Y-279359757D01*
X91534455Y-279359757D02*
X91677312Y-279288328D01*
X91677312Y-279288328D02*
X92034455Y-279288328D01*
X92034455Y-279288328D02*
X92248741Y-279359757D01*
X92891597Y-280788328D02*
X92891597Y-279788328D01*
X92891597Y-279288328D02*
X92820169Y-279359757D01*
X92820169Y-279359757D02*
X92891597Y-279431185D01*
X92891597Y-279431185D02*
X92963026Y-279359757D01*
X92963026Y-279359757D02*
X92891597Y-279288328D01*
X92891597Y-279288328D02*
X92891597Y-279431185D01*
X93463026Y-279788328D02*
X94248741Y-279788328D01*
X94248741Y-279788328D02*
X93463026Y-280788328D01*
X93463026Y-280788328D02*
X94248741Y-280788328D01*
X95391598Y-280716900D02*
X95248741Y-280788328D01*
X95248741Y-280788328D02*
X94963027Y-280788328D01*
X94963027Y-280788328D02*
X94820169Y-280716900D01*
X94820169Y-280716900D02*
X94748741Y-280574042D01*
X94748741Y-280574042D02*
X94748741Y-280002614D01*
X94748741Y-280002614D02*
X94820169Y-279859757D01*
X94820169Y-279859757D02*
X94963027Y-279788328D01*
X94963027Y-279788328D02*
X95248741Y-279788328D01*
X95248741Y-279788328D02*
X95391598Y-279859757D01*
X95391598Y-279859757D02*
X95463027Y-280002614D01*
X95463027Y-280002614D02*
X95463027Y-280145471D01*
X95463027Y-280145471D02*
X94748741Y-280288328D01*
X96105883Y-280645471D02*
X96177312Y-280716900D01*
X96177312Y-280716900D02*
X96105883Y-280788328D01*
X96105883Y-280788328D02*
X96034455Y-280716900D01*
X96034455Y-280716900D02*
X96105883Y-280645471D01*
X96105883Y-280645471D02*
X96105883Y-280788328D01*
X96105883Y-279859757D02*
X96177312Y-279931185D01*
X96177312Y-279931185D02*
X96105883Y-280002614D01*
X96105883Y-280002614D02*
X96034455Y-279931185D01*
X96034455Y-279931185D02*
X96105883Y-279859757D01*
X96105883Y-279859757D02*
X96105883Y-280002614D01*
X97891598Y-280359757D02*
X98605884Y-280359757D01*
X97748741Y-280788328D02*
X98248741Y-279288328D01*
X98248741Y-279288328D02*
X98748741Y-280788328D01*
X99891598Y-279788328D02*
X99891598Y-280788328D01*
X99534455Y-279216900D02*
X99177312Y-280288328D01*
X99177312Y-280288328D02*
X100105883Y-280288328D01*
D10*
D11*
X176463026Y-283588328D02*
X176463026Y-282088328D01*
X177820170Y-283588328D02*
X177820170Y-282088328D01*
X177820170Y-283516900D02*
X177677312Y-283588328D01*
X177677312Y-283588328D02*
X177391598Y-283588328D01*
X177391598Y-283588328D02*
X177248741Y-283516900D01*
X177248741Y-283516900D02*
X177177312Y-283445471D01*
X177177312Y-283445471D02*
X177105884Y-283302614D01*
X177105884Y-283302614D02*
X177105884Y-282874042D01*
X177105884Y-282874042D02*
X177177312Y-282731185D01*
X177177312Y-282731185D02*
X177248741Y-282659757D01*
X177248741Y-282659757D02*
X177391598Y-282588328D01*
X177391598Y-282588328D02*
X177677312Y-282588328D01*
X177677312Y-282588328D02*
X177820170Y-282659757D01*
X178534455Y-283445471D02*
X178605884Y-283516900D01*
X178605884Y-283516900D02*
X178534455Y-283588328D01*
X178534455Y-283588328D02*
X178463027Y-283516900D01*
X178463027Y-283516900D02*
X178534455Y-283445471D01*
X178534455Y-283445471D02*
X178534455Y-283588328D01*
X178534455Y-282659757D02*
X178605884Y-282731185D01*
X178605884Y-282731185D02*
X178534455Y-282802614D01*
X178534455Y-282802614D02*
X178463027Y-282731185D01*
X178463027Y-282731185D02*
X178534455Y-282659757D01*
X178534455Y-282659757D02*
X178534455Y-282802614D01*
X181177313Y-283588328D02*
X180320170Y-283588328D01*
X180748741Y-283588328D02*
X180748741Y-282088328D01*
X180748741Y-282088328D02*
X180605884Y-282302614D01*
X180605884Y-282302614D02*
X180463027Y-282445471D01*
X180463027Y-282445471D02*
X180320170Y-282516900D01*
X182891598Y-282016900D02*
X181605884Y-283945471D01*
X184177313Y-283588328D02*
X183320170Y-283588328D01*
X183748741Y-283588328D02*
X183748741Y-282088328D01*
X183748741Y-282088328D02*
X183605884Y-282302614D01*
X183605884Y-282302614D02*
X183463027Y-282445471D01*
X183463027Y-282445471D02*
X183320170Y-282516900D01*
D10*
D11*
X90007200Y-274502200D02*
X198007200Y-274502200D01*
D10*
D13*
X91698928Y-275206638D02*
X92841785Y-275206638D01*
X92020357Y-277206638D02*
X92270357Y-275206638D01*
X93258452Y-277206638D02*
X93425119Y-275873304D01*
X93508452Y-275206638D02*
X93401309Y-275301876D01*
X93401309Y-275301876D02*
X93484643Y-275397114D01*
X93484643Y-275397114D02*
X93591786Y-275301876D01*
X93591786Y-275301876D02*
X93508452Y-275206638D01*
X93508452Y-275206638D02*
X93484643Y-275397114D01*
X94091786Y-275873304D02*
X94853690Y-275873304D01*
X94460833Y-275206638D02*
X94246548Y-276920923D01*
X94246548Y-276920923D02*
X94317976Y-277111400D01*
X94317976Y-277111400D02*
X94496548Y-277206638D01*
X94496548Y-277206638D02*
X94687024Y-277206638D01*
X95639405Y-277206638D02*
X95460833Y-277111400D01*
X95460833Y-277111400D02*
X95389405Y-276920923D01*
X95389405Y-276920923D02*
X95603690Y-275206638D01*
X97175119Y-277111400D02*
X96972738Y-277206638D01*
X96972738Y-277206638D02*
X96591785Y-277206638D01*
X96591785Y-277206638D02*
X96413214Y-277111400D01*
X96413214Y-277111400D02*
X96341785Y-276920923D01*
X96341785Y-276920923D02*
X96437024Y-276159019D01*
X96437024Y-276159019D02*
X96556071Y-275968542D01*
X96556071Y-275968542D02*
X96758452Y-275873304D01*
X96758452Y-275873304D02*
X97139404Y-275873304D01*
X97139404Y-275873304D02*
X97317976Y-275968542D01*
X97317976Y-275968542D02*
X97389404Y-276159019D01*
X97389404Y-276159019D02*
X97365595Y-276349495D01*
X97365595Y-276349495D02*
X96389404Y-276539971D01*
X98139405Y-277016161D02*
X98222738Y-277111400D01*
X98222738Y-277111400D02*
X98115595Y-277206638D01*
X98115595Y-277206638D02*
X98032262Y-277111400D01*
X98032262Y-277111400D02*
X98139405Y-277016161D01*
X98139405Y-277016161D02*
X98115595Y-277206638D01*
X98270357Y-275968542D02*
X98353690Y-276063780D01*
X98353690Y-276063780D02*
X98246548Y-276159019D01*
X98246548Y-276159019D02*
X98163214Y-276063780D01*
X98163214Y-276063780D02*
X98270357Y-275968542D01*
X98270357Y-275968542D02*
X98246548Y-276159019D01*
D10*
D11*
X91963026Y-272602614D02*
X91463026Y-272602614D01*
X91463026Y-273388328D02*
X91463026Y-271888328D01*
X91463026Y-271888328D02*
X92177312Y-271888328D01*
X92748740Y-273388328D02*
X92748740Y-272388328D01*
X92748740Y-271888328D02*
X92677312Y-271959757D01*
X92677312Y-271959757D02*
X92748740Y-272031185D01*
X92748740Y-272031185D02*
X92820169Y-271959757D01*
X92820169Y-271959757D02*
X92748740Y-271888328D01*
X92748740Y-271888328D02*
X92748740Y-272031185D01*
X93677312Y-273388328D02*
X93534455Y-273316900D01*
X93534455Y-273316900D02*
X93463026Y-273174042D01*
X93463026Y-273174042D02*
X93463026Y-271888328D01*
X94820169Y-273316900D02*
X94677312Y-273388328D01*
X94677312Y-273388328D02*
X94391598Y-273388328D01*
X94391598Y-273388328D02*
X94248740Y-273316900D01*
X94248740Y-273316900D02*
X94177312Y-273174042D01*
X94177312Y-273174042D02*
X94177312Y-272602614D01*
X94177312Y-272602614D02*
X94248740Y-272459757D01*
X94248740Y-272459757D02*
X94391598Y-272388328D01*
X94391598Y-272388328D02*
X94677312Y-272388328D01*
X94677312Y-272388328D02*
X94820169Y-272459757D01*
X94820169Y-272459757D02*
X94891598Y-272602614D01*
X94891598Y-272602614D02*
X94891598Y-272745471D01*
X94891598Y-272745471D02*
X94177312Y-272888328D01*
X95534454Y-273245471D02*
X95605883Y-273316900D01*
X95605883Y-273316900D02*
X95534454Y-273388328D01*
X95534454Y-273388328D02*
X95463026Y-273316900D01*
X95463026Y-273316900D02*
X95534454Y-273245471D01*
X95534454Y-273245471D02*
X95534454Y-273388328D01*
X95534454Y-272459757D02*
X95605883Y-272531185D01*
X95605883Y-272531185D02*
X95534454Y-272602614D01*
X95534454Y-272602614D02*
X95463026Y-272531185D01*
X95463026Y-272531185D02*
X95534454Y-272459757D01*
X95534454Y-272459757D02*
X95534454Y-272602614D01*
X97391597Y-272388328D02*
X97391597Y-273888328D01*
X97391597Y-272459757D02*
X97534455Y-272388328D01*
X97534455Y-272388328D02*
X97820169Y-272388328D01*
X97820169Y-272388328D02*
X97963026Y-272459757D01*
X97963026Y-272459757D02*
X98034455Y-272531185D01*
X98034455Y-272531185D02*
X98105883Y-272674042D01*
X98105883Y-272674042D02*
X98105883Y-273102614D01*
X98105883Y-273102614D02*
X98034455Y-273245471D01*
X98034455Y-273245471D02*
X97963026Y-273316900D01*
X97963026Y-273316900D02*
X97820169Y-273388328D01*
X97820169Y-273388328D02*
X97534455Y-273388328D01*
X97534455Y-273388328D02*
X97391597Y-273316900D01*
X99534455Y-273388328D02*
X98677312Y-273388328D01*
X99105883Y-273388328D02*
X99105883Y-271888328D01*
X99105883Y-271888328D02*
X98963026Y-272102614D01*
X98963026Y-272102614D02*
X98820169Y-272245471D01*
X98820169Y-272245471D02*
X98677312Y-272316900D01*
X100177311Y-273245471D02*
X100248740Y-273316900D01*
X100248740Y-273316900D02*
X100177311Y-273388328D01*
X100177311Y-273388328D02*
X100105883Y-273316900D01*
X100105883Y-273316900D02*
X100177311Y-273245471D01*
X100177311Y-273245471D02*
X100177311Y-273388328D01*
X100891597Y-273388328D02*
X100891597Y-271888328D01*
X101034455Y-272816900D02*
X101463026Y-273388328D01*
X101463026Y-272388328D02*
X100891597Y-272959757D01*
X102105883Y-273388328D02*
X102105883Y-272388328D01*
X102105883Y-271888328D02*
X102034455Y-271959757D01*
X102034455Y-271959757D02*
X102105883Y-272031185D01*
X102105883Y-272031185D02*
X102177312Y-271959757D01*
X102177312Y-271959757D02*
X102105883Y-271888328D01*
X102105883Y-271888328D02*
X102105883Y-272031185D01*
X103463027Y-273316900D02*
X103320169Y-273388328D01*
X103320169Y-273388328D02*
X103034455Y-273388328D01*
X103034455Y-273388328D02*
X102891598Y-273316900D01*
X102891598Y-273316900D02*
X102820169Y-273245471D01*
X102820169Y-273245471D02*
X102748741Y-273102614D01*
X102748741Y-273102614D02*
X102748741Y-272674042D01*
X102748741Y-272674042D02*
X102820169Y-272531185D01*
X102820169Y-272531185D02*
X102891598Y-272459757D01*
X102891598Y-272459757D02*
X103034455Y-272388328D01*
X103034455Y-272388328D02*
X103320169Y-272388328D01*
X103320169Y-272388328D02*
X103463027Y-272459757D01*
X104748741Y-273388328D02*
X104748741Y-272602614D01*
X104748741Y-272602614D02*
X104677312Y-272459757D01*
X104677312Y-272459757D02*
X104534455Y-272388328D01*
X104534455Y-272388328D02*
X104248741Y-272388328D01*
X104248741Y-272388328D02*
X104105883Y-272459757D01*
X104748741Y-273316900D02*
X104605883Y-273388328D01*
X104605883Y-273388328D02*
X104248741Y-273388328D01*
X104248741Y-273388328D02*
X104105883Y-273316900D01*
X104105883Y-273316900D02*
X104034455Y-273174042D01*
X104034455Y-273174042D02*
X104034455Y-273031185D01*
X104034455Y-273031185D02*
X104105883Y-272888328D01*
X104105883Y-272888328D02*
X104248741Y-272816900D01*
X104248741Y-272816900D02*
X104605883Y-272816900D01*
X104605883Y-272816900D02*
X104748741Y-272745471D01*
X106105884Y-273388328D02*
X106105884Y-271888328D01*
X106105884Y-273316900D02*
X105963026Y-273388328D01*
X105963026Y-273388328D02*
X105677312Y-273388328D01*
X105677312Y-273388328D02*
X105534455Y-273316900D01*
X105534455Y-273316900D02*
X105463026Y-273245471D01*
X105463026Y-273245471D02*
X105391598Y-273102614D01*
X105391598Y-273102614D02*
X105391598Y-272674042D01*
X105391598Y-272674042D02*
X105463026Y-272531185D01*
X105463026Y-272531185D02*
X105534455Y-272459757D01*
X105534455Y-272459757D02*
X105677312Y-272388328D01*
X105677312Y-272388328D02*
X105963026Y-272388328D01*
X105963026Y-272388328D02*
X106105884Y-272459757D01*
X106463027Y-273531185D02*
X107605884Y-273531185D01*
X107963026Y-272388328D02*
X107963026Y-273888328D01*
X107963026Y-272459757D02*
X108105884Y-272388328D01*
X108105884Y-272388328D02*
X108391598Y-272388328D01*
X108391598Y-272388328D02*
X108534455Y-272459757D01*
X108534455Y-272459757D02*
X108605884Y-272531185D01*
X108605884Y-272531185D02*
X108677312Y-272674042D01*
X108677312Y-272674042D02*
X108677312Y-273102614D01*
X108677312Y-273102614D02*
X108605884Y-273245471D01*
X108605884Y-273245471D02*
X108534455Y-273316900D01*
X108534455Y-273316900D02*
X108391598Y-273388328D01*
X108391598Y-273388328D02*
X108105884Y-273388328D01*
X108105884Y-273388328D02*
X107963026Y-273316900D01*
X109963027Y-273316900D02*
X109820169Y-273388328D01*
X109820169Y-273388328D02*
X109534455Y-273388328D01*
X109534455Y-273388328D02*
X109391598Y-273316900D01*
X109391598Y-273316900D02*
X109320169Y-273245471D01*
X109320169Y-273245471D02*
X109248741Y-273102614D01*
X109248741Y-273102614D02*
X109248741Y-272674042D01*
X109248741Y-272674042D02*
X109320169Y-272531185D01*
X109320169Y-272531185D02*
X109391598Y-272459757D01*
X109391598Y-272459757D02*
X109534455Y-272388328D01*
X109534455Y-272388328D02*
X109820169Y-272388328D01*
X109820169Y-272388328D02*
X109963027Y-272459757D01*
X110605883Y-273388328D02*
X110605883Y-271888328D01*
X110605883Y-272459757D02*
X110748741Y-272388328D01*
X110748741Y-272388328D02*
X111034455Y-272388328D01*
X111034455Y-272388328D02*
X111177312Y-272459757D01*
X111177312Y-272459757D02*
X111248741Y-272531185D01*
X111248741Y-272531185D02*
X111320169Y-272674042D01*
X111320169Y-272674042D02*
X111320169Y-273102614D01*
X111320169Y-273102614D02*
X111248741Y-273245471D01*
X111248741Y-273245471D02*
X111177312Y-273316900D01*
X111177312Y-273316900D02*
X111034455Y-273388328D01*
X111034455Y-273388328D02*
X110748741Y-273388328D01*
X110748741Y-273388328D02*
X110605883Y-273316900D01*
D10*
D11*
X90007200Y-268502200D02*
X198007200Y-268502200D01*
D10*
D11*
X91391598Y-270616900D02*
X91605884Y-270688328D01*
X91605884Y-270688328D02*
X91963026Y-270688328D01*
X91963026Y-270688328D02*
X92105884Y-270616900D01*
X92105884Y-270616900D02*
X92177312Y-270545471D01*
X92177312Y-270545471D02*
X92248741Y-270402614D01*
X92248741Y-270402614D02*
X92248741Y-270259757D01*
X92248741Y-270259757D02*
X92177312Y-270116900D01*
X92177312Y-270116900D02*
X92105884Y-270045471D01*
X92105884Y-270045471D02*
X91963026Y-269974042D01*
X91963026Y-269974042D02*
X91677312Y-269902614D01*
X91677312Y-269902614D02*
X91534455Y-269831185D01*
X91534455Y-269831185D02*
X91463026Y-269759757D01*
X91463026Y-269759757D02*
X91391598Y-269616900D01*
X91391598Y-269616900D02*
X91391598Y-269474042D01*
X91391598Y-269474042D02*
X91463026Y-269331185D01*
X91463026Y-269331185D02*
X91534455Y-269259757D01*
X91534455Y-269259757D02*
X91677312Y-269188328D01*
X91677312Y-269188328D02*
X92034455Y-269188328D01*
X92034455Y-269188328D02*
X92248741Y-269259757D01*
X92891597Y-270688328D02*
X92891597Y-269188328D01*
X93534455Y-270688328D02*
X93534455Y-269902614D01*
X93534455Y-269902614D02*
X93463026Y-269759757D01*
X93463026Y-269759757D02*
X93320169Y-269688328D01*
X93320169Y-269688328D02*
X93105883Y-269688328D01*
X93105883Y-269688328D02*
X92963026Y-269759757D01*
X92963026Y-269759757D02*
X92891597Y-269831185D01*
X94820169Y-270616900D02*
X94677312Y-270688328D01*
X94677312Y-270688328D02*
X94391598Y-270688328D01*
X94391598Y-270688328D02*
X94248740Y-270616900D01*
X94248740Y-270616900D02*
X94177312Y-270474042D01*
X94177312Y-270474042D02*
X94177312Y-269902614D01*
X94177312Y-269902614D02*
X94248740Y-269759757D01*
X94248740Y-269759757D02*
X94391598Y-269688328D01*
X94391598Y-269688328D02*
X94677312Y-269688328D01*
X94677312Y-269688328D02*
X94820169Y-269759757D01*
X94820169Y-269759757D02*
X94891598Y-269902614D01*
X94891598Y-269902614D02*
X94891598Y-270045471D01*
X94891598Y-270045471D02*
X94177312Y-270188328D01*
X96105883Y-270616900D02*
X95963026Y-270688328D01*
X95963026Y-270688328D02*
X95677312Y-270688328D01*
X95677312Y-270688328D02*
X95534454Y-270616900D01*
X95534454Y-270616900D02*
X95463026Y-270474042D01*
X95463026Y-270474042D02*
X95463026Y-269902614D01*
X95463026Y-269902614D02*
X95534454Y-269759757D01*
X95534454Y-269759757D02*
X95677312Y-269688328D01*
X95677312Y-269688328D02*
X95963026Y-269688328D01*
X95963026Y-269688328D02*
X96105883Y-269759757D01*
X96105883Y-269759757D02*
X96177312Y-269902614D01*
X96177312Y-269902614D02*
X96177312Y-270045471D01*
X96177312Y-270045471D02*
X95463026Y-270188328D01*
X96605883Y-269688328D02*
X97177311Y-269688328D01*
X96820168Y-269188328D02*
X96820168Y-270474042D01*
X96820168Y-270474042D02*
X96891597Y-270616900D01*
X96891597Y-270616900D02*
X97034454Y-270688328D01*
X97034454Y-270688328D02*
X97177311Y-270688328D01*
X97677311Y-270545471D02*
X97748740Y-270616900D01*
X97748740Y-270616900D02*
X97677311Y-270688328D01*
X97677311Y-270688328D02*
X97605883Y-270616900D01*
X97605883Y-270616900D02*
X97677311Y-270545471D01*
X97677311Y-270545471D02*
X97677311Y-270688328D01*
X97677311Y-269759757D02*
X97748740Y-269831185D01*
X97748740Y-269831185D02*
X97677311Y-269902614D01*
X97677311Y-269902614D02*
X97605883Y-269831185D01*
X97605883Y-269831185D02*
X97677311Y-269759757D01*
X97677311Y-269759757D02*
X97677311Y-269902614D01*
D10*
D11*
X110007200Y-278502200D02*
X110007200Y-281502200D01*
D10*
D11*
X174007200Y-278502200D02*
X174007200Y-285002200D01*
M02*
