M48
; DRILL file {KiCad 8.0.2} date 2024-06-16T18:34:17+0200
; FORMAT={-:-/ absolute / inch / decimal}
; #@! TF.CreationDate,2024-06-16T18:34:17+02:00
; #@! TF.GenerationSoftware,Kicad,Pcbnew,8.0.2
; #@! TF.FileFunction,Plated,1,2,PTH
FMAT,2
INCH
; #@! TA.AperFunction,Plated,PTH,ComponentDrill
T1C0.0394
%
G90
G05
T1
X2.6371Y-3.4585
X2.6371Y-3.5585
X2.6371Y-3.6585
X2.6371Y-3.7585
X2.6371Y-3.8585
X2.6371Y-3.9585
X2.6371Y-4.0585
X2.6371Y-4.1585
X2.6371Y-4.5685
X2.6371Y-4.6685
X2.6371Y-4.7685
X2.6371Y-4.8685
X2.6371Y-4.9685
X2.6371Y-5.0685
X2.6371Y-5.1685
X2.6371Y-5.2685
X2.7371Y-3.4585
X2.7371Y-3.5585
X2.7371Y-3.6585
X2.7371Y-3.7585
X2.7371Y-3.8585
X2.7371Y-3.9585
X2.7371Y-4.0585
X2.7371Y-4.1585
X2.7371Y-4.5685
X2.7371Y-4.6685
X2.7371Y-4.7685
X2.7371Y-4.8685
X2.7371Y-4.9685
X2.7371Y-5.0685
X2.7371Y-5.1685
X2.7371Y-5.2685
X3.3571Y-2.6585
X3.3571Y-2.7585
X3.3571Y-2.8585
X3.3571Y-2.9585
X3.3571Y-3.0585
X3.3571Y-3.1585
X3.3571Y-3.2585
X3.3571Y-3.3585
X3.3571Y-3.4585
X3.3571Y-3.5585
X3.3571Y-3.6585
X3.3571Y-3.7585
X3.3571Y-3.8585
X3.3571Y-3.9585
X3.3571Y-4.0585
X3.3571Y-4.1585
X3.5471Y-7.3785
X3.5521Y-6.8735
X3.5521Y-8.3785
X3.5571Y-4.8585
X3.5571Y-5.3635
X3.5571Y-5.8685
X3.5571Y-6.3635
X3.5571Y-7.8885
X3.6471Y-7.3785
X3.6521Y-6.8735
X3.6521Y-8.3785
X3.6571Y-4.8585
X3.6571Y-5.3635
X3.6571Y-5.8685
X3.6571Y-6.3635
X3.6571Y-7.8885
X3.7471Y-7.3785
X3.7521Y-6.8735
X3.7521Y-8.3785
X3.7571Y-4.8585
X3.7571Y-5.3635
X3.7571Y-5.8685
X3.7571Y-6.3635
X3.7571Y-7.8885
X3.8471Y-7.3785
X3.8521Y-6.8735
X3.8521Y-8.3785
X3.8571Y-4.8585
X3.8571Y-5.3635
X3.8571Y-5.8685
X3.8571Y-6.3635
X3.8571Y-7.8885
X3.9471Y-7.3785
X3.9521Y-6.8735
X3.9521Y-8.3785
X3.9571Y-3.0585
X3.9571Y-3.1585
X3.9571Y-3.2585
X3.9571Y-3.3585
X3.9571Y-3.4585
X3.9571Y-3.5585
X3.9571Y-3.6585
X3.9571Y-3.7585
X3.9571Y-4.8585
X3.9571Y-5.3635
X3.9571Y-5.8685
X3.9571Y-6.3635
X3.9571Y-7.8885
X4.1561Y-3.0575
X4.1561Y-3.1575
X4.1561Y-3.2575
X4.1561Y-3.3575
X4.1561Y-3.4575
X4.1561Y-3.5575
X4.1561Y-3.6575
X4.1561Y-3.7575
X4.2561Y-3.0575
X4.2561Y-3.1575
X4.2561Y-3.2575
X4.2561Y-3.3575
X4.2561Y-3.4575
X4.2561Y-3.5575
X4.2561Y-3.6575
X4.2561Y-3.7575
X4.4549Y-5.8645
X4.4551Y-4.8595
X4.4571Y-3.0585
X4.4571Y-3.1585
X4.4571Y-3.2585
X4.4571Y-3.3585
X4.4571Y-3.4585
X4.4571Y-3.5585
X4.4571Y-3.6585
X4.4571Y-3.7585
X4.4571Y-3.8585
X4.4571Y-3.9585
X4.4571Y-4.0585
X4.4571Y-4.1585
X4.4571Y-4.4535
X4.4571Y-4.5535
X4.4571Y-4.6535
X4.4571Y-4.7535
X4.4581Y-4.9589
X4.4581Y-5.0589
X4.4581Y-5.1589
X4.4581Y-5.2589
X4.4581Y-5.4639
X4.4581Y-5.5639
X4.4581Y-5.6639
X4.4581Y-5.7639
X4.4581Y-5.9689
X4.4581Y-6.0689
X4.4581Y-6.1689
X4.4581Y-6.2689
X4.4581Y-6.4739
X4.4581Y-6.5739
X4.4581Y-6.6739
X4.4581Y-6.7739
X4.4581Y-6.9789
X4.4581Y-7.0789
X4.4581Y-7.1789
X4.4581Y-7.2789
X4.4581Y-7.4839
X4.4581Y-7.5839
X4.4581Y-7.6839
X4.4581Y-7.7839
X4.4581Y-7.9889
X4.4581Y-8.0889
X4.4581Y-8.1889
X4.4581Y-8.2889
X4.4599Y-5.3595
X4.4599Y-6.3695
X4.4599Y-6.8795
X4.4599Y-7.3845
X4.4599Y-7.8895
X4.4599Y-8.3945
X4.5549Y-5.8645
X4.5551Y-4.8595
X4.5599Y-5.3595
X4.5599Y-6.3695
X4.5599Y-6.8795
X4.5599Y-7.3845
X4.5599Y-7.8895
X4.5599Y-8.3945
X4.6549Y-5.8645
X4.6551Y-4.8595
X4.6565Y-2.8335
X4.6571Y-2.5835
X4.6599Y-5.3595
X4.6599Y-6.3695
X4.6599Y-6.8795
X4.6599Y-7.3845
X4.6599Y-7.8895
X4.6599Y-8.3945
X4.7549Y-5.8645
X4.7551Y-4.8595
X4.7565Y-2.8335
X4.7571Y-2.5835
X4.7599Y-5.3595
X4.7599Y-6.3695
X4.7599Y-6.8795
X4.7599Y-7.3845
X4.7599Y-7.8895
X4.7599Y-8.3945
X4.8549Y-5.8645
X4.8551Y-4.8595
X4.8565Y-2.8335
X4.8571Y-2.5835
X4.8599Y-5.3595
X4.8599Y-6.3695
X4.8599Y-6.8795
X4.8599Y-7.3845
X4.8599Y-7.8895
X4.8599Y-8.3945
X5.0571Y-3.0585
X5.0571Y-3.1585
X5.0571Y-3.2585
X5.0571Y-3.3585
X5.0571Y-3.4585
X5.0571Y-3.5585
X5.0571Y-3.6585
X5.0571Y-3.7585
X5.0571Y-3.8585
X5.0571Y-3.9585
X5.0571Y-4.0585
X5.0571Y-4.1585
X5.6921Y-3.4585
X5.6921Y-3.5585
X5.6921Y-3.6585
X5.6921Y-3.7585
X5.6921Y-3.8585
X5.6921Y-3.9585
X5.6921Y-4.0585
X5.6921Y-4.1585
X5.6921Y-4.5685
X5.6921Y-4.6685
X5.6921Y-4.7685
X5.6921Y-4.8685
X5.6921Y-4.9685
X5.6921Y-5.0685
X5.6921Y-5.1685
X5.6921Y-5.2685
X5.7921Y-3.4585
X5.7921Y-3.5585
X5.7921Y-3.6585
X5.7921Y-3.7585
X5.7921Y-3.8585
X5.7921Y-3.9585
X5.7921Y-4.0585
X5.7921Y-4.1585
X5.7921Y-4.5685
X5.7921Y-4.6685
X5.7921Y-4.7685
X5.7921Y-4.8685
X5.7921Y-4.9685
X5.7921Y-5.0685
X5.7921Y-5.1685
X5.7921Y-5.2685
M30
